<?xml version="1.0" encoding="UTF-8"?>
<svg width="1200pt" height="1200pt" version="1.1" viewBox="0 0 1200 1200" xmlns="http://www.w3.org/2000/svg" fill="#104e64e6" stroke="#ffca28" stroke-width="30">
 <path d="m409.5 637.5h-259.5c-20.719 0-37.5-16.781-37.5-37.5s16.781-37.5 37.5-37.5h259.5l-36-36c-13.781-14.766-13.359-37.781 0.9375-52.078 14.25-14.297 37.266-14.672 52.078-0.9375l99.984 99.984v0.046875c3.375 3.4688 6.0938 7.5 8.0156 12 3.9844 9.2344 3.9844 19.734 0 28.969-1.9219 4.5-4.6406 8.5312-8.0156 12l-99.984 99.984v0.046875c-14.672 14.625-38.391 14.625-53.016 0-14.625-14.672-14.625-38.391 0-53.016zm611.48-433.5-300-75c-26.109-6.4219-53.766-0.51562-75 15.984-6.2344 5.1094-11.766 10.969-16.5 17.531h-279.47c-48.234 0.23438-87.234 39.281-87.516 87.469v100.03c0 20.672 16.781 37.5 37.5 37.5s37.5-16.828 37.5-37.5v-100.03c0-6.8906 5.5781-12.469 12.516-12.469h262.5v725.02l-262.5-0.046875c-6.9375 0-12.516-5.5781-12.516-12.469v-100.03c0-20.672-16.781-37.5-37.5-37.5s-37.5 16.828-37.5 37.5v100.03c0.28125 48.188 39.281 87.234 87.516 87.469h279.52-0.046875c4.7344 6.5625 10.266 12.422 16.5 17.531 15.469 12 34.453 18.469 54 18.469 6.9844 0.75 14.016 0.75 21 0l300-75c39.094-9.6562 66.562-44.719 66.516-84.984v-624.52c0.046875-40.219-27.422-75.328-66.516-84.984z"/>
</svg>
