<?xml version="1.0" encoding="utf-8"?>
<!-- Generator: Adobe Illustrator 16.0.0, SVG Export Plug-In . SVG Version: 6.00 Build 0)  -->
<!DOCTYPE svg PUBLIC "-//W3C//DTD SVG 1.1//EN" "http://www.w3.org/Graphics/SVG/1.1/DTD/svg11.dtd">
<svg version="1.1" id="Layer_1" xmlns="http://www.w3.org/2000/svg" xmlns:xlink="http://www.w3.org/1999/xlink" x="0px" y="0px" fill="#104e64e6" stroke="#ffca28" stroke-width="16"
	 width="1142.664px" height="856.12px" viewBox="28.67 171.94 1142.664 856.12"
	 enable-background="new 28.67 171.94 1142.664 856.12" xml:space="preserve">
<path d="M1117.6,171.94H82.4c-30.449,0-53.73,23.285-53.73,53.73v748.66c0,30.449,23.285,53.729,53.73,53.729h1035.2
	c30.449,0,53.73-23.284,53.73-53.729l0.004-748.66c0-30.449-25.074-53.73-53.73-53.73H1117.6z M841.78,290.15
	c3.582-7.164,10.746-12.539,16.121-16.121s10.745-7.164,16.12-8.957c12.539-3.582,25.074-1.793,35.82,1.793
	c10.746,5.375,21.492,12.539,30.449,19.703c3.582,3.582,7.164,7.164,7.164,10.746c0,5.375-5.375,8.957-10.746,12.539
	c-10.746,5.375-23.285,10.746-34.031,14.328c-14.328,5.375-34.03,10.746-48.358,1.793
	C843.569,322.388,836.405,302.689,841.78,290.15L841.78,290.15z M508.64,211.345c7.164-3.582,14.328-3.582,21.492-3.582
	c8.957,0,17.91,1.793,26.867,3.582c5.375,1.793,12.539,3.582,14.328,8.957c1.793,5.375,0,10.746-3.582,16.121
	c-3.582,3.582-10.746,5.375-16.121,7.164c-14.328,3.582-37.613,7.164-50.148,0C487.148,234.626,497.894,216.716,508.64,211.345
	L508.64,211.345z M171.93,879.405c-1.793,3.582-5.375,3.582-8.957,5.375c-8.957,3.582-17.91,3.582-26.867,3.582
	s-17.91-1.793-26.867-3.582c-10.746-1.793-26.867-7.164-32.238-17.91c-5.375-12.539,0-26.867,10.746-34.031
	c5.375-3.582,10.746-7.164,16.121-8.957c14.328-5.375,32.238-5.375,48.359-3.582h14.328c1.793,0,3.582,0,5.375,1.793
	c1.793,1.793,1.793,3.582,1.793,5.375c0,5.375-1.793,10.746-3.582,17.91c-1.793,5.375-1.793,12.539,0,17.91
	c1.793,3.582,5.375,5.375,5.375,8.957C175.512,872.241,173.719,875.823,171.93,879.405L171.93,879.405z M223.868,565.975
	c-5.375,8.957-12.539,14.328-19.703,17.91s-16.121,5.375-25.074,8.957c-5.375,1.793-10.746,3.582-16.121,1.793
	c-19.703-5.375-21.492-25.074-17.91-42.983c0-5.375,1.793-8.957,3.582-14.328c1.793-5.375,5.375-8.957,10.746-8.957
	c7.164-1.793,14.328,1.793,19.703,5.375s10.746,8.957,17.91,10.746c5.375,1.793,10.746,0,16.121,0s10.746,0,14.328,3.582
	C227.45,551.647,227.45,560.604,223.868,565.975L223.868,565.975z M243.571,302.695c0,3.582-1.793,8.957-5.375,10.746
	c-1.793,1.793-5.375,1.793-8.957,1.793c-8.957,0-16.121,3.582-23.285,7.164s-16.121,5.375-23.285,3.582
	c-1.793,0-5.375-1.793-7.164-3.582c-3.582-1.793-7.164-3.582-10.746-5.375c-1.793,0-3.582-1.793-5.375-1.793
	s-3.582-1.793-5.375-1.793s-1.793,0-3.582-1.793c-1.793-1.793-3.582-5.375-5.375-8.957c-1.777-1.785-3.57-7.156-1.777-8.949
	c3.582-5.375,10.746-3.582,16.121-8.957c1.789-3.578,1.789-7.16,3.578-10.742c1.793-1.793,3.582-3.582,7.164-3.582
	c8.957-3.582,16.121-7.164,25.074-7.164c12.539,0,25.074,7.164,32.238,16.121c1.793,3.582,3.582,7.164,7.164,10.746
	c1.793,1.793,5.375,3.582,7.164,5.375C243.571,297.32,243.571,300.902,243.571,302.695L243.571,302.695z M374.321,322.394
	c0-1.793-1.793-1.793-1.793-3.582c0-10.746,10.746-21.492,21.491-25.074c10.746-3.582,23.285-3.582,34.031-3.582
	c3.582,0,8.957,0,12.539,1.793c3.582,3.582,3.582,7.164,3.582,12.539c-1.793,10.746-10.746,17.91-19.703,23.285
	c-14.328,5.375-32.237,5.375-46.565-3.582C376.114,322.394,374.321,322.394,374.321,322.394L374.321,322.394z M451.337,865.084
	c-7.164,3.582-14.328,3.582-21.492,3.582c-8.957,0-21.492,0-28.655-5.375c-5.375-5.375-12.539-12.539-14.328-19.703
	c-1.793-5.375,0-10.746,1.793-14.328s5.375-5.375,8.957-7.164c10.746-3.582,21.491-5.375,32.237-3.582c1.793,0,1.793,0,3.582,1.793
	c1.793,1.793,1.793,5.375,1.793,7.164c0,7.164,7.164,14.328,14.328,14.328h3.582c1.793,0,3.582,1.793,5.375,3.582
	C462.083,852.549,456.708,861.502,451.337,865.084L451.337,865.084z M472.829,743.294c-10.746,5.375-23.285,7.164-35.82,7.164
	c-8.957,0-14.328-1.793-21.492-5.375c-5.375-1.793-12.539,0-17.909-5.375c-5.375-5.375-5.375-12.539-3.582-19.703v-3.582
	c1.793-3.582,5.375-3.582,7.164-5.375c5.375-1.793,12.539-5.375,16.121-10.745c1.793-1.794,1.793-3.582,1.793-5.375
	c3.582-3.582,8.957-5.375,14.327-3.582c16.121,1.793,28.656,12.539,41.195,21.491c5.375,3.582,8.957,7.164,10.746,12.539
	C485.368,732.548,479.993,739.712,472.829,743.294L472.829,743.294z M677.009,845.384c-3.582,5.375-10.746,7.164-17.91,8.957
	c-5.375,1.793-12.539,3.582-17.909,3.582c-8.957,0-17.91-3.582-26.867-1.793c-5.375,0-12.539,3.582-17.91,0
	c-14.328-5.375-7.164-28.656-5.375-39.402c0-1.793,1.793-3.581,1.793-7.164c3.582-5.375,10.746-7.164,17.91-5.375
	c5.375,1.793,10.746,7.164,16.121,10.746s10.746,7.164,17.91,7.164c5.375,0,8.956-3.582,14.327-3.582
	c3.582,0,8.957,1.793,12.539,3.582c1.793,1.793,3.582,1.793,5.375,3.582C682.38,832.845,682.38,841.802,677.009,845.384
	L677.009,845.384z M703.872,374.334c-7.164,8.957-10.746,12.539-10.746,12.539s-3.582,39.402-23.285,62.688
	c-7.164,7.165-14.328,8.957-14.328,8.957l-42.983,17.91l-17.91,103.88l39.402,50.148c10.75,14.328,16.12,32.238,12.538,50.148
	l-10.745,59.104l3.582,10.746c0,0,19.702-5.375,26.866,10.746s-35.819,16.121-50.147,8.957c-12.539-7.164,1.793-34.031,1.793-34.031
	l-8.957-64.477l-132.54-98.513l-12.539,50.148c0,0,14.328,19.703,0,26.867c-12.539,5.375-55.523,7.164-50.148-8.957
	c7.164-16.121,26.867-10.746,26.867-10.746l3.582-10.746v-64.478c0-12.538,8.957-23.284,21.492-26.866
	c1.793,0,5.375-1.793,7.164-1.793c3.582,0,8.957,0,12.539,3.582l26.867,12.538l-12.539-59.102l-42.988-17.91l-14.328-7.164
	c-19.703-23.285-21.492-68.059-21.492-68.059s-8.956-3.582-12.538-12.539s8.957-14.328,25.073-17.91
	c16.121-3.582,5.375,23.285,5.375,23.285l23.285,46.565l12.539,1.793l34.031,1.794l19.703-1.794l1.793-1.793
	c1.793,0,1.793-1.793,1.793-1.793h-1.793h-3.582c-12.539-3.582-10.746-28.655-8.957-44.776c-7.164-5.375-12.539-14.328-3.582-19.703
	h1.793c21.492-10.746,57.312,0,51.941,30.449v1.793v1.793c0,1.793-3.582,19.703-3.582,17.91c1.793,5.375,0,7.164,7.164,12.539
	L600,424.484l41.195-1.793l8.957-3.582c0,0,16.121-12.539,21.492-39.402c0,0-5.375-25.074,5.375-23.285
	c12.522,1.789,34.016,8.957,26.852,17.91L703.872,374.334z M728.95,309.857c-3.582,3.582-10.746,5.375-16.121,7.164
	c-14.328,3.582-37.613,7.164-50.148,0c-14.328-7.164-1.793-26.867,8.957-30.449c7.164-3.582,14.328-3.582,21.492-3.582
	c8.957,0,17.91,1.793,26.867,3.582c5.375,1.793,12.539,3.582,14.328,8.957C734.321,300.9,732.532,306.275,728.95,309.857
	L728.95,309.857z M829.25,601.797c-3.582,0-8.957-1.793-12.539-1.793c-7.164,0-14.328,5.375-21.492,8.957
	c-7.164,5.375-17.91,8.957-26.867,5.375c-5.375-1.793-12.539-7.164-17.909-10.746c-8.957-8.957-7.165-30.449-3.582-41.195
	c1.793-1.793,1.793-5.375,5.375-7.164c1.793-1.793,5.375-1.793,8.957-3.582c8.956-1.793,17.909-1.793,28.655-1.793
	c3.582,0,5.375,0,8.957,1.793c3.582,0,5.375,1.794,8.957,3.582c3.582,1.793,7.164,0,10.746,1.793
	c12.539,1.794,23.285,8.957,34.031,10.746h23.285c1.793,0,3.582,0,5.375,1.793s1.793,3.582,3.582,5.375
	c1.793,7.164-1.793,12.539-7.164,17.91c-5.375,3.582-10.746,7.164-17.91,7.164C845.371,601.797,836.414,601.797,829.25,601.797
	L829.25,601.797z M992.229,891.947c-5.375,3.582-10.745,7.164-17.909,7.164c-8.957,1.793-17.91,3.582-26.867,1.793
	c-3.582,0-8.957-1.793-12.539-1.793c-7.164,0-14.328,5.375-21.492,8.957c-7.164,5.375-17.91,8.957-26.867,5.375
	c-5.375-1.793-12.539-7.164-17.91-10.746c-8.957-8.957-7.164-30.449-3.582-41.195c1.794-1.793,1.794-5.375,5.375-7.164
	c1.794-1.793,5.375-1.793,8.957-3.582c8.957-1.793,17.91-1.793,28.656-1.793c3.582,0,5.375,0,8.957,1.793
	c3.582,0,5.375,1.793,8.957,3.582c3.582,1.793,7.164,0,10.746,1.793c12.539,1.793,23.285,8.957,34.031,10.746h23.285
	c1.793,0,3.581,0,5.375,1.793c1.793,1.793,1.793,3.582,3.581,5.375C1001.187,881.201,997.604,886.572,992.229,891.947
	L992.229,891.947z M1038.796,689.557c-5.375,8.957-12.539,14.328-19.703,17.91s-16.121,5.375-25.074,8.957
	c-5.375,1.793-10.745,3.582-16.12,1.793c-19.703-5.375-21.492-25.074-17.91-42.983c0-5.375,1.793-8.957,3.582-14.328
	c1.793-3.582,5.375-8.957,10.746-8.957c7.164-1.793,14.327,1.793,19.702,5.375s10.746,8.957,17.91,10.746
	c5.375,1.793,10.746,0,16.121,0s10.746,0,14.328,3.582C1044.171,677.022,1042.378,684.186,1038.796,689.557L1038.796,689.557z"/>
</svg>
