<?xml version="1.0" encoding="UTF-8"?>
<svg width="1200pt" height="1200pt" version="1.1" viewBox="0 0 1200 1200" xmlns="http://www.w3.org/2000/svg" fill="#104e64e6" stroke="#104e64e6" stroke-width="20">
 <path d="m321.45 95.602c1.5859 14.668-2.0391 24.121-16.812 22.426-1.5859-14.668 2.0391-24.121 16.812-22.426z" fill-rule="evenodd"/>
 <path d="m708.31 95.602h22.441c6.543 19.453-31.352 26.066-22.441 0z" fill-rule="evenodd"/>
 <path d="m377.52 123.62c14.762-1.6797 18.398 7.7734 16.812 22.426h-22.426c-2.3594-11.719 3.8555-14.836 5.6133-22.426z" fill-rule="evenodd"/>
 <path d="m966.23 129.24h16.828v22.426h-22.441c-0.69141-10.051 6.8672-11.812 5.6133-22.426z" fill-rule="evenodd"/>
 <path d="m495.27 146.05h16.828c1.4648 18.281-6.668 26.988-22.441 28.039-1.7852-13 0.90625-21.52 5.6133-28.039z" fill-rule="evenodd"/>
 <path d="m1067.1 151.67h16.828v22.426c-18.738 5.625-18.402-7.7734-16.828-22.426z" fill-rule="evenodd"/>
 <path d="m422.38 157.28c14.281 0.55859 13.254 20.895 5.6133 28.027-22.949 3.0781-18.961-24.215-5.6133-28.027z" fill-rule="evenodd"/>
 <path d="m629.81 174.09c9.8516 1.3477 12.801 9.6406 11.215 22.426h-16.812c-2.3633-11.719 3.8398-14.84 5.5977-22.426z" fill-rule="evenodd"/>
 <path d="m315.84 331.08c-108.64 25.32-127.41-89.375-72.879-134.56 31.574 6.8398 107.73-25.332 123.33 33.641 10.812 40.812-19.121 76.707-50.453 100.92zm-61.668-28.023c21.215 13.68 45.547 9.5586 72.895 5.6016 18.281-15.734 37.48-73.254 5.6016-89.707 23.305 59.652-48.441 60.41-78.496 84.105z" fill-rule="evenodd"/>
 <path d="m153.25 213.33c2.5742 17.52-11.973 17.934-28.027 16.828v-16.828c7.3594-7.1992 20.668-7.1992 28.027 0z" fill-rule="evenodd"/>
 <path d="m910.16 213.33h16.812c0.22656 17.055 3.2812 36.906-16.812 33.641-7.668-7.1719-7.668-26.465 0-33.641z" fill-rule="evenodd"/>
 <path d="m741.95 246.97c-0.74609 55.922-1.4805 99.719-5.625 140.19-70.254-8.6523-130.11 31.668-123.33 117.73 29.586 0.83984 70.094-0.78516 106.52-5.6133 4.1602 42.707-15.293 81.375 0 117.75-14.332 24.895-53.801 24.652-95.293 22.441-7.7461 16.227-12.812 70.535 5.6016 78.48-25.625 23.121-19.215 101.38-11.215 140.19-30.188 29.602-98.625 20.973-145.77 33.641-24.879-73.055-24.641-172.52-22.426-257.92-24.441-9.4141-60.48 12.852-95.32 11.227-8.4414-40.16-8.2539-88.934-11.199-134.57 50.266-12.414 66.801 4.0391 112.12-11.215 2.1953-177.24 105.57-253.28 285.94-252.32zm-257.89 257.92c-15.348 31.387-76.746 16.707-112.13 28.027-3.3086 32.668 5.4414 65.828 0 84.105 39.547 4.0391 58.414-12.602 95.32-11.215 12.535 82.785-4 194.61 33.641 252.31 15.613 3.9453 65.039-0.53516 89.691-5.625-6.668-75.16 1.2539-157.73 5.6133-229.85 34.254 0.60156 63.641-3.6133 89.691-11.227 11.281-16.746 3.1875-52.895 5.625-78.492-30.762-17.359-75.559 12.812-106.54-5.6016-1.7617-98.945 36.879-157.49 128.95-162.6-0.039062-40.906 1.2539-64.293 5.6016-89.707-148.32-17.789-255.32 79.609-235.46 229.88z" fill-rule="evenodd"/>
 <path d="m512.08 258.2h11.199c-1.0273 4.7617 2.1875 5.2812 5.6133 5.6016v11.215c-4.7734-1.0273-5.2812 2.1875-5.6133 5.6016h-11.199c1.0273-4.7617-2.1875-5.2812-5.6133-5.6016v-11.215c4.7891 1.0391 5.2969-2.1875 5.6133-5.6016z" fill-rule="evenodd"/>
 <path d="m831.67 269.41h22.414c2.3984 11.719-3.8281 14.828-5.5859 22.426-14.789 1.6797-18.402-7.7734-16.828-22.426z" fill-rule="evenodd"/>
 <path d="m882.13 314.25v16.828c-9.9453-1.2812-28.094 5.6406-22.453-11.215 5.0117-4.3594 12.68-6.0273 22.453-5.6133z" fill-rule="evenodd"/>
 <path d="m377.52 336.69c29.879-3.4648 25.867 31.906-5.6133 22.426-2.3594-11.719 3.8555-14.852 5.6133-22.426z" fill-rule="evenodd"/>
 <path d="m786.8 342.29c10.133 9.625-1.7344 22.055-16.828 22.426-1.5586-14.652 2.0547-24.105 16.828-22.426z" fill-rule="evenodd"/>
 <path d="m938.17 364.72h16.828c2.3867 11.719-3.8281 14.84-5.5859 22.441-9.8672-1.3594-12.789-9.6523-11.242-22.441z" fill-rule="evenodd"/>
 <path d="m1005.5 409.57v16.828c-9.9453-1.2812-28.055 5.6523-22.426-11.215 4.9883-4.3594 12.68-6.0273 22.426-5.6133z" fill-rule="evenodd"/>
 <path d="m214.93 420.8c9.0547-1.5859 9.6523 5.2812 16.812 5.6016 1.6797 14.773-7.7617 18.398-22.414 16.812-2.3867-11.723 3.8281-14.855 5.6016-22.414z" fill-rule="evenodd"/>
 <path d="m405.56 420.8c2.6016 17.547-4.8789 25.027-22.426 22.414-2.6133-17.547 4.8672-25.027 22.426-22.414z" fill-rule="evenodd"/>
 <path d="m657.85 420.8c16.867-5.6523 9.9336 12.48 11.199 22.414h-16.812c-2.3711-11.723 3.8672-14.855 5.6133-22.414z" fill-rule="evenodd"/>
 <path d="m966.23 426.39c1.5859 14.652-2.0547 24.121-16.812 22.426-2.9727-4.5078-5.8516-9.1055-5.625-16.812 4.9961-4.3477 12.664-6.0273 22.438-5.6133z" fill-rule="evenodd"/>
 <path d="m898.95 443.21c2.3477 43.48-16.547 65.68-61.691 61.68-36.266-39.547 20.211-99.906 61.691-61.68zm-16.812 16.812c2.5195-9.1602-30.559-9.1602-28.055 0 0.68359 7.9844 30.734 23.105 28.055 0z" fill-rule="evenodd"/>
 <path d="m775.6 454.44h-22.453c-4.3867-21.602 26.863-21.602 22.453 0z" fill-rule="evenodd"/>
 <path d="m231.75 465.64h16.828c1.5742 14.668-2.0391 24.121-16.828 22.441-9.3477-11.148 0.50781-7.1367 0-22.441z" fill-rule="evenodd"/>
 <path d="m377.52 465.64c16.668 0.49219 15 33.441-5.6133 28.039-1.7734-13 0.90625-21.531 5.6133-28.039z" fill-rule="evenodd"/>
 <path d="m702.69 465.64c1.5742 14.668-2.0273 24.121-16.828 22.441-1.5703-14.684 2.0703-24.137 16.828-22.441z" fill-rule="evenodd"/>
 <path d="m1050.3 465.64c21.602-4.4141 21.602 26.84 0 22.441v-22.441z" fill-rule="evenodd"/>
 <path d="m983.05 510.49h16.828c1.5742 14.668-2.0547 24.121-16.828 22.426v-22.426z" fill-rule="evenodd"/>
 <path d="m859.69 544.13h22.453c-0.70703 14.266-8.1719 21.746-22.453 22.426v-22.426z" fill-rule="evenodd"/>
 <path d="m259.79 549.73c23.414 3.7461 2.6016 34.812-11.215 16.812 1.9766-7.3594 9.8555-8.8008 11.215-16.812z" fill-rule="evenodd"/>
 <path d="m170.07 555.35c31.906 22.758-32.559 37.438 0 0z" fill-rule="evenodd"/>
 <path d="m226.15 566.56c9.0547-1.5742 9.6523 5.3086 16.828 5.6133 1.6797 14.773-7.7734 18.398-22.441 16.828-2.375-11.734 3.8516-14.852 5.6133-22.441z" fill-rule="evenodd"/>
 <path d="m282.21 617.01c17.574 3.8672 7.3086 14.945 5.6016 28.055-25.055 0.92188-14.469-19.746-5.6016-28.055z" fill-rule="evenodd"/>
 <path d="m910.16 622.62c1.6016 14.652-2.0391 24.121-16.828 22.441-1.5859-14.68 2.0547-24.133 16.828-22.441z" fill-rule="evenodd"/>
 <path d="m960.61 628.24h11.215c-1.0117 4.7617 2.1875 5.2812 5.6133 5.6016v11.227c-4.7461-1.0547-5.2812 2.1719-5.6133 5.5859h-11.215c1.0273-4.7734-2.1719-5.2812-5.6133-5.5859v-11.227c4.7734 1.0391 5.293-2.1992 5.6133-5.6016z" fill-rule="evenodd"/>
 <path d="m747.56 673.09c14.762-1.707 18.398 7.7617 16.828 22.426h-22.441c-0.69141-10.078 6.8555-11.852 5.6133-22.426z" fill-rule="evenodd"/>
 <path d="m685.87 684.29c9.8945 1.3477 12.812 9.668 11.227 22.441h-16.812c-2.375-11.734 3.8398-14.828 5.5859-22.441z" fill-rule="evenodd"/>
 <path d="m921.36 706.73c5.7852 22.867-26.188 29.879-22.414 5.6133 4.9609-4.3594 12.668-6.0391 22.414-5.6133z" fill-rule="evenodd"/>
 <path d="m181.29 774.01c14.773-1.6914 18.398 7.7734 16.812 22.453h-22.414c-2.3828-11.746 3.8281-14.879 5.6016-22.453z" fill-rule="evenodd"/>
 <path d="m399.95 779.64c-0.67969 14.227-8.1484 21.734-22.414 22.398-17.465-15.438 6.9766-39.879 22.414-22.398z" fill-rule="evenodd"/>
 <path d="m304.64 790.84c3.9062 20.719-8.8789 24.762-28.027 22.441v-16.812c6.4922-4.75 15.027-7.4141 28.027-5.6289z" fill-rule="evenodd"/>
 <path d="m809.23 813.27h-22.441c-4.3711-21.586 26.855-21.586 22.441 0z" fill-rule="evenodd"/>
 <path d="m820.43 818.85v16.828c-17.867-3.3203-17.332 10.508-28.027 0 5.1484-9.8281 10.453-19.465 28.027-16.828z" fill-rule="evenodd"/>
 <path d="m366.31 846.92v22.398h-22.414c-2.6133-17.535 4.8672-25.039 22.414-22.398z" fill-rule="evenodd"/>
 <path d="m304.64 880.55c-2.4805 25.559-18.215 37.84-33.641 50.465-30.133-13.934-34.812-22.332-33.652-61.707 15.293-29.73 58.453-12.453 67.293 11.242zm-39.254 22.414c20.613 5.3984 22.293-27.508 5.6133-28.027 2.293 13.508-10.254 12.188-5.6133 28.027z" fill-rule="evenodd"/>
 <path d="m405.56 931.01c14.668-1.5859 24.121 2.0273 22.426 16.812-4.9883 4.3594-12.668 6.0273-22.426 5.6016v-22.414z" fill-rule="evenodd"/>
 <path d="m971.83 931.01c9.0781-1.5859 9.6523 5.2812 16.828 5.5859 1.6914 14.762-7.7461 18.387-22.426 16.828-2.4023-11.719 3.8242-14.84 5.5977-22.414z" fill-rule="evenodd"/>
 <path d="m226.15 964.65c-15.852-4.6406-14.52 7.8945-28.039 5.6016-9.4297-26.641 32.266-30.934 28.039-5.6016z" fill-rule="evenodd"/>
 <path d="m596.19 964.65c9.8516 1.3477 12.773 9.625 11.199 22.414h-16.828c-2.3594-11.719 3.8672-14.84 5.6289-22.414z" fill-rule="evenodd"/>
 <path d="m1067.1 964.65c4.6406 15.84-7.9219 14.535-5.625 28.027-8.1875-4.8945-21.707-4.4648-16.812-22.426 4.9961-4.3594 12.664-6.0391 22.438-5.6016z" fill-rule="evenodd"/>
 <path d="m635.41 970.25c4.6406 15.852-7.8945 14.508-5.6016 28.055-16.68-0.52344-14.984-33.469 5.6016-28.055z" fill-rule="evenodd"/>
 <path d="m427.99 1009.5c8.8789 0.45312 21.387-2.6914 22.426 5.6133 6.1211 19.68-34.402 15.016-22.426-5.6133z" fill-rule="evenodd"/>
 <path d="m775.6 1009.5c9.3203 11.133-0.50781 7.1211 0 22.441-21.574 4.3867-21.574-26.855 0-22.441z" fill-rule="evenodd"/>
 <path d="m192.51 1020.7c-3.3867 11.586-8.668 21.238-28.039 16.828v-16.828c7.3711-7.1992 20.664-7.1992 28.039 0z" fill-rule="evenodd"/>
 <path d="m355.09 1020.7c1.6914 14.762-7.7734 18.387-22.426 16.828-1.6797-14.789 7.7734-18.402 22.426-16.828z" fill-rule="evenodd"/>
 <path d="m1044.7 1020.7c14.668-1.5742 24.105 2.0391 22.441 16.828-10.535 11-27 3.2383-22.441-16.828z" fill-rule="evenodd"/>
 <path d="m641.03 1037.5c21.574-4.3984 21.574 26.852 0 22.426-9.3477-11.145 0.49219-7.1328 0-22.426z" fill-rule="evenodd"/>
 <path d="m231.75 1048.7c1.5859 14.652-2.0391 24.121-16.812 22.414-1.5859-14.668 2.0391-24.105 16.812-22.414z" fill-rule="evenodd"/>
 <path d="m685.87 1054.3c16.879-5.6523 9.9453 12.492 11.227 22.426h-16.812c-2.375-11.734 3.8398-14.84 5.5859-22.426z" fill-rule="evenodd"/>
 <path d="m91.586 1065.6c17.691 0.97266 33.441 3.9219 33.641 22.414-12.254 10.598-35.668-1.6289-33.641-22.414z" fill-rule="evenodd"/>
 <path d="m512.08 1065.6h22.426c2.6016 17.52-4.8789 25.012-22.426 22.414v-22.414z" fill-rule="evenodd"/>
 <path d="m854.08 1065.6c23.426 3.7188 2.625 34.785-11.199 16.812 1.9727-7.3477 9.8555-8.8398 11.199-16.812z" fill-rule="evenodd"/>
 <path d="m764.39 1099.2c10.133 9.6133-1.7188 22.027-16.828 22.426-1.5703-14.68 2.0664-24.117 16.828-22.426z" fill-rule="evenodd"/>
 <path d="m388.73 1104.8c14.773-1.668 18.398 7.7461 16.828 22.426h-22.426c-2.3906-11.734 3.8359-14.812 5.5977-22.426z" fill-rule="evenodd"/>
 <path d="m792.41 1009.5c-60.574-134.19 129.49-156.11 128.95-44.84-0.29297 64.082-75.547 81.133-128.95 44.84zm11.199-56.066c22.852-10.801 47.602-19.707 72.906-28.039-26.414-27.586-68.598-0.90625-72.906 28.039z" fill-rule="evenodd"/>
 <path d="m803.61 90c105.38 16.348 223.45-98.453 302.77-28.039 80.559 71.492-59.613 182.87-95.309 235.48 66.121 76.625 128.76 103.05 117.73 218.67-6.8516 72.227-77.934 122.93-89.707 185.01-22.492 118.61 48.906 180.72 95.32 257.92-6.3086 42.254 13.332 129.09-22.441 156.99-67.625 17.773-99.227-35.508-151.39-50.453-61.332 35.973-125.43 99.48-207.46 89.691-50.492-6.0117-89.32-53.078-140.15-56.055-75.906-4.4414-108.89 45.547-179.41 78.48-75.16-1.2266-120.64-63.746-190.62-67.281-63.586-3.1602-135.84 68.465-196.24 5.625-20.492-94.375 44.906-143.68 78.492-201.84 2.3984-32.988-27.32-45.734-28.039-72.906-1.9062-72.281 94.68-148.55 33.641-235.48-118.49-26.828-5.6016-135.65-5.6016-207.45 0-85.281-106.61-125.19-72.895-241.08 11.988-41.148 56.52-112.29 100.92-112.15 25.922 0.09375 50.961 23.988 78.492 28.039 69.746 10.27 141.54-57.891 201.88-44.852 52.039 11.254 72.094 69.945 145.77 67.281 66.133-32.734 179.62-107.38 224.24-5.6016zm-403.67-16.828c-17.668 0.83984-2.3594-31.266-28.027-22.426-54.453 17.867-84.652 46.105-145.77 39.238-35.641-4-73.602-35.812-106.54-16.828-19.168 46.832-63.555 82.137-56.062 140.18 6.0273 46.547 50.105 92.387 78.492 112.15-10.426 25.734 1.7461 39.746 0 61.68-4.6016 57.707-55.691 116.32-50.465 151.38 6.1484 41.16 59.027 46.879 84.105 84.105-5.2383 6-20.691 1.7461-16.828 16.828 18.602 77.773-27.762 135.79-39.254 201.84 77.398 106.16-96.039 143.09-50.465 269.12 17.465 3.0781 36.547 4.5742 50.465 11.227-3.3984-22.078 12.547-24.828 28.039-28.039v28.039c101.27-72.508 193.03 20.441 291.55 33.625 62.266-30.492 106.32-86.16 190.62-78.492 51.039 4.6406 98.773 54.613 145.79 56.078 67.52 2.0547 137.62-82.215 185.01-84.105 57-2.293 78.867 69.426 145.77 50.453 53.906-121.55-66.281-192.13-84.105-291.55-26.465-147.83 103.69-205.95 89.719-336.4-2.6914-25.055-16.121-48.266-28.027-84.094-32.934-30.734-86.668-30.668-89.719-78.508-4.668-72.691 199.2-149.81 84.105-241.08-96.199-10.266-162.24 32.32-280.31 44.84-16.762-54.562-122.2-91.656-145.8-16.828-25.359-9.8945-51.348 15.746-84.094 16.812-60.801 2.0117-110.01-45.188-151.39-67.281-7.7969 7.1484-2.4258 27.469-16.812 28.039z" fill-rule="evenodd"/>
</svg>
