<?xml version="1.0" encoding="UTF-8"?>
<svg width="1200pt" height="1200pt" version="1.1" viewBox="0 0 1200 1200" xmlns="http://www.w3.org/2000/svg" fill="#104e64e6">
 <path d="m1163.4 35.613c52.453 250.62-32.254 589.36 0 844.13 0.90625 22.895-24.441 19.441-35.922 29.934-9.707 86.094-8.0117 183.61-47.922 239.48-22.852 4.8945-23.16-12.762-29.945-23.961-17.547 6.3594-11.84 36.039-29.895 41.922-40.613 0.69141-43.988-35.867-53.879-65.867-30.16 9.8008-12.148 67.652-41.945 77.84-97.812-25.133-33.785-175.65-71.852-257.44-12.133 79.895 21.84 225.07-47.867 263.43-50.559-29.281-22.453-137.25-41.945-197.55-24.691 49.547 9.4414 171.39-53.879 197.55-35.613-58.574-57.238-156.79-29.895-215.52 28.266 55.719 2.9609 131.46 35.922 185.57 31.121-14.762 15.508-76.281 23.934-113.72-60.625-37.148-34.906-160.68-47.922-245.48-24.895 50.266 22.199 178.54-53.879 191.6-4.3867 67.133 17.906 203.03-59.852 191.56-56.961-39.973 17.48-212.87-41.906-269.4-19 59.309 5.332 159.36-17.961 221.51-48.227-4.332-34.133 53.68-71.84 59.852-22.574-1.3867-32.309-15.586-29.945-41.895-20.453 2.4531-7.6016 16.148-29.934 5.9609-5.3203-14.641-13.961-25.961-11.961-47.879-29.375 16.492-24.066 67.734-65.852 71.84-12.293-25.641-15.426-60.414-23.945-89.801-23.785 24.121-8.2148 87.586-53.879 89.801-27.922-12.012-29.039-50.801-29.934-89.801-39.922 13.961-25.719 82.012-59.867 101.77-30.691-7.2539-36.922-38.934-35.922-77.812-13.465-11.988-33.668 6.5859-47.895-11.988-6.8281-69.012 20.508-172.15-29.934-197.56-9.2031-277.32-15.07-604.23 23.957-850.11 70.879-31.121 154.79-15.895 239.46-17.961 153.04-3.7734 315.99-23.945 472.93-23.945 140.52-0.011719 285.08-14.586 401.16 23.934zm-383.19 53.879c-4.1484 81.641-8.2656 163.33-5.9727 251.44 126.19 63.227 143.33 373.39-5.9609 425.05-1.5859 26.398-9.6016 46.309-6.0273 77.84 98.066-17.254 199.4 10.613 323.29-11.988-23.668-222.44 20.215-491.16 6.0117-742.35-90.367-4.1172-206.34-14.414-311.34 0zm-676.49 23.934c4.3086 67.867 8.8516 126-6 185.6 119.6 9.0547 222.62-0.17188 359.21 6 69.281-39.078 155.55-56.961 221.54-17.961 9.8945-56.453 23.52-139.4 17.961-191.6-199.66-1.4766-414 10.215-592.71 17.961zm419.08 484.93c13.746-52.398 45.012-175.33 5.9727-221.49-2.1992 68.824-35.043 159.98-5.9727 221.49zm41.891-221.49c-9.2109 173.59-28.918 331.93-5.9844 514.85 49-166.28-6.625-324.87 23.945-502.88 20.785 70.613-1.2812 200.99 23.945 269.41 34.094-65.691 11.453-188.11 17.961-281.38-19.945-0.011718-39.906-0.011718-59.867-0.011718zm-466.97 472.93c111.6 9.707 209.87 3.6133 293.36 17.973-0.17187 75.398 6.9727 144.6 5.9883 245.46 30.945-6.9883 18.574-57.281 29.934-83.828-36.812-75.465-0.66797-179.45 0-281.39-108.81-52.48-147.73-243.25-77.84-359.2-79.734-15.387-168.2 9.8672-251.44-6-20.215 137.14-10.199 311.56 0 466.98zm574.73-275.36c21.066-42.398 33.266-120.32 17.961-179.6-12.906-5.0273-20.398-15.52-41.895-11.988 15.199 56.613-4.6523 148.31 23.934 191.59zm-209.52 101.76c-8.1211-98.652 34.852-207.59 11.961-281.38-46.934 57.203-52.176 224.56-11.961 281.38zm209.52 59.879c29.691-3.6133 36.895-48.988 41.945-77.84 13.465-77.508 13.055-168.95 5.9609-245.45-7.6523-0.35938-8.2656-7.707-17.961-6 31.121 134.28-50.211 202.7-29.945 329.29zm89.785-77.84c58.121-31.48 35.52-153.05 0-191.57-11.172 62.508-11.84 129.88 0 191.57zm-347.21-65.852c3.4805-10.812 15.719-105.41 0-113.76-11.242 25.773-36.48 94.789 0 113.76zm65.852 83.812c23.441 1.3086 11.68-89.094 5.9883-77.84 1.4102 29.332-10.547 45.332-5.9883 77.84zm131.71 0c46.281 64.094-11.281 217.54 41.895 281.38 27.707-107.25-3.1602-244.15-17.961-347.21 0.71875 30.602-17.668 42.16-23.934 65.84zm-101.77 137.68c6.707-50.668 30.961-142.57 6-185.57-4.082 56.109-12.387 136.6-6 185.57zm203.57-89.785c32.039 5.8789 56.734-26.801 53.879-35.922-20.105 21.652-27.547-19.973-41.945-23.934 2.5039 26.402-1.5742 46.242-11.934 59.855zm-137.71 179.59c0.054687 24.973 13.078 51.027 11.973 77.84-2.3594 56.719-42.148 128.05 5.9883 179.61 58.734-118.61 5.3203-351.68 0-478.95 15.066 87.867-18.082 164.16-17.961 221.49zm-137.71 77.84c46.172-59.68 32.441-190.36 47.895-263.41-1.2656-6.7344-6.6523-9.332-11.973-11.988-43.816 56.242-42.977 188.18-35.922 275.4zm293.38 17.961c27.922-63.906 10.828-172.76 23.934-251.44-17.652 8.1211-37.039 7.4922-47.922-5.9883 8.4805 83.777-10.508 188.12 23.988 257.43zm-221.54-131.71c-17.668 67.961-27.746 162.97-5.9883 233.48 14.492-71.332-3.0664-174.71 23.934-233.48h-17.945zm538.8 41.918c19.227 65.078-27.199 175.16 29.945 221.51 10.828-68.105 55.215-156.08 23.934-227.51-18.734 1.2148-43.934-4.0234-53.879 6zm-89.812 11.961c24.492 37.375-3.6133 127.4 29.961 155.67 21.973-42.707 46.895-104.84 29.945-167.62-20.922 3.0234-45.203 2.6641-59.906 11.957zm-71.828 185.6c47.293-24.988 52.961-122.08 41.945-185.6-89.598-34.145-35.16 124.87-41.945 185.6zm-119.71-125.73c3.3086-12.453 9.332-12.68 17.961-5.9883 12.309 53.465-17.762 153.83 29.895 185.6 23.586-69.453 29.961-167.08 6.0273-239.48h-59.906c3.7695 18.215-7.6445 51.574 6.0234 59.867zm-676.54 107.76c10.492-29.668 43.574-92.625 23.945-149.68h-29.922c-4.25 45.934-24.996 120.32 5.9766 149.68zm83.828-143.68c16.121 28.559-19.906 94.961 5.9883 113.76 35.398-12.508 17.508-78.293 35.922-107.76-12.844-4.6953-33.457-14.547-41.91-6zm107.76 0c-5.8945 48 1.6406 72.027 5.9883 107.77 24.973-24.934 34.84-64.961 41.906-107.77-23.828-4.3633-24.082-4.3633-47.895 0zm35.918 203.57c46.492-27.734 65.121-145.91 35.922-209.56h-11.973c-2.8164 72.199-48.762 129.27-23.949 209.56zm-179.6 23.922c29.227-31.32 18.719-61.348 11.961-95.785-8.8516-45.215 15.68-125.67-11.961-131.72-2.9219 79.332-34.508 165.5 0 227.5zm101.77-11.961c31.812-57.414 14.332-128.48 17.961-215.54-65.684 18.188-45.164 171.41-17.961 215.54zm209.53 5.9883c36.945-42.785 17.133-137.89 17.961-197.56-24.652 53.477-60.719 144.8-17.961 197.56zm472.95-5.9883c10.453-51.105 60.398-103.2 17.961-155.65 19.734 70.266-76.891 122.41-17.961 155.65zm95.828-11.961c0.054687-41.961 22.961-92.652 5.9609-131.72 4.3867 49.668-61.387 103.75-5.9609 131.72z" fill-rule="evenodd"/>
 <path d="m941.81 113.43c161.91-33.773 160.57 222.92 35.922 221.52-113.28-1.293-171.39-193.2-35.922-221.52zm6.0156 101.8c10.922 24.852 43.586 29.094 65.828 11.961 13.625-65.641-69.855-80.281-65.828-11.961z" fill-rule="evenodd"/>
</svg>
