<?xml version="1.0" encoding="UTF-8"?>
<svg width="309.87" height="200" viewBox="0 0 1122 847" xmlns="http://www.w3.org/2000/svg" xmlns:xlink="http://www.w3.org/1999/xlink">
 <defs>
  <filter id="g">
   <feGaussianBlur stdDeviation="28.71523"/>
  </filter>
  <filter id="f">
   <feGaussianBlur stdDeviation="7.61522"/>
  </filter>
  <filter id="e" x="-.19182" y="-.06402" width="1.3836" height="1.128">
   <feGaussianBlur stdDeviation="12.10632"/>
  </filter>
  <linearGradient id="d" x2="0" y1="1158.2" y2="1364.2" gradientUnits="userSpaceOnUse" spreadMethod="reflect">
   <stop stop-color="#3b2c42" offset="0"/>
   <stop stop-color="#654b6f" offset=".4"/>
   <stop stop-color="#775884" offset=".6"/>
   <stop stop-color="#654b6f" offset=".7"/>
   <stop stop-color="#3b2c42" offset="1"/>
  </linearGradient>
  <linearGradient id="c" x2="0" y1="1188.6" y2="1335.4" gradientUnits="userSpaceOnUse">
   <stop stop-color="#a00" offset="0"/>
   <stop stop-color="#d80000" offset=".6"/>
   <stop stop-color="#a00" offset="1"/>
  </linearGradient>
  <pattern id="h" width="30.06602" height="5.18058" patternUnits="userSpaceOnUse">
   <path d="m7.597.061c-2.518-.248-4.941.241-7.607,1.727v1.273c2.783-1.63 5.183-2.009 7.482-1.781s4.497,1.081 6.781,1.938c4.567,1.713 9.551,3.458 15.813-.157l-.004-1.273c-6.44,3.709-10.816,1.982-15.371.273-2.278-.854-4.576-1.75-7.094-2z"/>
  </pattern>
  <pattern id="b" xlink:href="#a" patternTransform="matrix(2.1061 0 0 2.1061 478.51 -419.72)"/>
  <pattern id="a" xlink:href="#h" patternTransform="matrix(2.1061 0 0 2.1061 478.51 -419.72)"/>
 </defs>
 <g transform="matrix(1.015 0 0 1.015 776.35 -537.65)">
  <path d="m-676.5 1192.8c-36.783-91.588-48.049-193.08-30.305-290.31 12.448-68.442 29.323-140.32 74.562-195.2 31.536-38.418 86.083-40.925 131.95-36.687 67.351 5.6111 127.03 39.411 189.27 62.495 168.67 67.399 338.73 131.36 506.2 201.72 41.873 18.697 88.919 47.887 95.207 97.664 3.7057 43.663-10.73 92.185-45.954 120.16-25.604 19.131-58.684 23.321-89.796 22.932-23.873 17.85-67.948 6.1387-82.526 23.055-11.729 5.6094-118.52 8.8596-145.04 10.899l2.4748 120.24 145.17 0.1593c6.1486 4.8809 47.905 2.2903 74.114 2.9152 42.127-3.2324 84.028-12.136 123.83-26.192 63.532-27.855 101.33-90.737 132.36-149.68 35.736-73.371 40.326-166.73-3.5516-237.72-48.567-71.153-127.92-113.06-206.72-142.47-192.97-75.735-386.6-149.91-582-219.17-87.131-31.177-186.54-38.15-274.01-4.5756-47.338 20.062-79.625 63.208-109.15 103.42-61.948 89.372-91.367 199.39-86.452 307.74 2.3497 91.551 10.168 186.69 53.068 269.34 34.898 67.79 110.51 103.93 183.27 113.73 34.617 2.8779 69.478 1.2688 104.2 2.5187 25.828 3.1476 53.775-8.4011 53.873-38.084 5.3467-29.446 9.4007-59.944 5.3758-89.778-22.483-17.297-55.624-10.434-82.599-14.624-23.735 2.7351-45.075-11.214-68.313-8.6598-24.173 5.4994-47.68 10.456-68.5-5.8459z" fill="#b3b3b3" stroke="#000" stroke-width="2.4"/>
  <path d="m77.479 1196.3c9.1646 4.8216 8.162 120.78 0.16505 123.56l-136.13 1.385c-5.2601 0.0535-7.2648 8.0473-0.03313 8.4243l133.14 0.1328 0.37239 3.5133-572.81 0.0077c-10.096-14.423-66.683-2.0634-74.903-15.429-9.1795-14.925-4.7176-93.903 0.25717-110.93 3.8266-13.101 21.719-5.328 36.833-9.6287s13.867-7.6781 23.622-7.5738l459.11 1.9055c0.42439 3.5266 5.78 5.4748 10.148 5.4454l120.23-0.8116z" fill="url(#c)" stroke="#000" stroke-width="2.4"/>
  <path d="m-480.24 1159.4h258.97s7.1859 20.029 10.866 28.365c6.3865 14.467 1.8214 130.72-1.2031 146.71-1.675 8.857-9.6629 28.451-9.6629 28.451h-258.97s-9.2059-20.107-11.44-29.266c-4.0591-16.636-7.0503-129.64-2.3311-144.7 2.9262-9.337 13.772-29.566 13.772-29.566z" fill="url(#d)" stroke="#000" stroke-width="2.4"/>
  <path d="m134.98 1185.2c27.871 59.872 16.072 104.4 3.9006 149.21" fill="none" stroke="#000" stroke-width="2.4"/>
  <path d="m-596.9 1199.9c-27.871 59.872-13.656 103.91-1.4842 148.72" fill="none" stroke="#000" stroke-width="2.4"/>
  <g transform="matrix(1.2163 -.035681 .035792 1.2201 -913.95 449.18)" fill="#fff" stroke="#000" stroke-width="1.9693">
   <path d="m768.9 680.19c0.95855 14.456-21.665 19.877-27.244 6.3144-6.0338-11.575 7.8103-25.766 19.329-19.087 4.6984 2.3826 8.0932 7.4217 7.9151 12.772z" opacity=".8"/>
   <path d="m316.14 669.07c0.95857 14.456-21.665 19.877-27.244 6.3144-6.0338-11.575 7.8103-25.766 19.329-19.087 4.6984 2.3826 8.0932 7.4218 7.9151 12.772z" opacity=".8"/>
  </g>
  <path transform="matrix(1.7914 0 0 1.0203 64.161 504.46)" d="m-84.749 672.32a3.0597 71.583 0 1 1 0.31234 141.38" fill="none" stroke="#000" stroke-linecap="round" stroke-linejoin="round" stroke-width="3.0392"/>
  <path transform="translate(-3.4319e-8 517.16)" d="m-608.38 777.27c-159.79-8.7159-214.99-194.65-191.75-331.2 41.515-243.9 165.6-328.3 217.9-351.54s322.49 90.064 415.46 124.93 461.08 144.91 508.43 235.33c39.259 74.97-1e-5 242.59-55.201 270.19-58.106 29.053-175.77 49.39-210.63 31.958" fill="none" filter="url(#g)" stroke="#fff" stroke-width="32.87"/>
  <path d="m-794.72 1215.4c-21.586-68.87-28.867-113.45-40.636-224.44-6.8086-64.21-0.89931-99.841 9.4155-151.14 14.064-69.946 50.463-138.05 92.043-192.96 48.762-64.402 73.618-72.641 132.88-85.481 5.7876-1.2539 38.968-19.455 52.223-28.925 25.582 0.80183 56.167-0.01089 48.069 2.489-37.887 11.695-2.3542 15.579-8.3573 22.592-8.9683 10.477-72.244 13.889-95.029 19.53-47.126 11.669-83.848 41.637-121.61 99.246-31.705 48.365-66.991 137.47-79.456 200.64-13.549 68.665-6.3508 208.69 16.187 314.87 6.8592 32.315 6.4898 60.052-0.79978 60.052-1.0612 0 1.239-24.318-4.932-36.465z" fill="#a9a9a9" filter="url(#f)"/>
  <path transform="translate(-3.4319e-8 517.16)" d="m269.02 293.54c-5.8106 29.053-6.3091 33.058 9.6701 49.038s62.464 31.46 90.064 73.587c34.37 52.46 46.837 116.42 29.405 165.81s-81.63 122.86-81.63 133.03 10.682 32.384 10.682 32.384l28.424-28.424s-11.357-12.633-2.6409-27.16c6.0256-10.043 59.838-109.19 59.838-173.1 0-66.822-23.242-107.5-58.106-140.91-11.866-11.371-49.39-40.674-49.39-40.674l5.8106-21.79-42.127-21.79z" fill="#999" fill-opacity=".75" fill-rule="evenodd" filter="url(#e)"/>
  <path d="m-429.29 1158h49.705c6.682 69.843 5.0516 138.3 0 206.19h-49.705c-4.3087-68.729-4.5266-137.46 0-206.19z" fill="url(#a)" opacity=".5"/>
  <path d="m-334.79 1158h49.705c6.682 69.843 5.0516 138.3 0 206.19h-49.705c-4.3087-68.729-4.5266-137.46 0-206.19z" fill="url(#b)" opacity=".5"/>
 </g>
</svg>
