<?xml version="1.0" encoding="UTF-8"?>
<svg width="1200pt" height="1200pt" version="1.1" viewBox="0 0 1200 1200" fill="#104e64e6" stroke="#104e64e6" stroke-width="4" xmlns="http://www.w3.org/2000/svg">
 <path d="m819.94 92.594 3.7188 0.082031 5.5664-0.097656z" stroke-width="16"/>
 <path d="m957.25 175.3c0-0.097656-0.15625-0.15625-0.19141-0.25391-0.035156-0.097657 0-0.3125-0.12109-0.45703l-40.285-80.566c-2.2969-4.5977-7.8867-6.4648-12.484-4.168-4.6016 2.293-6.4688 7.8867-4.1719 12.484l37.441 74.891c-25.539 27.164-60.707 43.238-97.957 44.773l-16.992-20.219c4.3789-36.156 6.6211-72.539 6.707-108.96l-5.5664-0.14453-13.008 0.22656c0.023438 37.082-2.3477 74.129-7.0938 110.91v0.19141c-9.0977 70.105-28.188 143.84-64.152 179.7l-23.543 10.645c-4 1.7969-6.1953 6.1445-5.2734 10.43 0.92578 4.2852 4.7188 7.3398 9.1016 7.332 1.3164 0 2.6172-0.28125 3.8164-0.82812l19.414-8.7734c1.1992 1.2852 2.7344 2.8086 4.3789 4.5234h0.003906c-11.457 6.918-23.434 12.934-35.82 18-5.543 0.097656-10.801 0.3125-15.469 0.74219h-0.17969c-16.535 1.8477-44.305 7.0547-51.406 20.891l-0.003906 0.003906c-46.332 3.5664-92.902 2.5312-139.03-3.0859 3.1797-10.656 5.4844-21.559 6.8906-32.59 1.1992-12.719 2.3984-54.551 3.6016-98.844l0.14062-3.7461c0.20312-7.4414 0-14.902 0-22.355 0.80469-2.1094 0.80469-4.4414 0-6.5508-0.078125-55-4.9453-109.89-14.543-164.04l-1.3789-7.7656h-0.003906c-0.90625-5.0508-5.7344-8.4062-10.785-7.5-5.0508 0.91016-8.4102 5.7383-7.5 10.789l1.3906 7.7539v-0.003907c8.8477 49.805 13.621 100.25 14.27 150.83-43.754-10.176-88.191-17.148-132.96-20.867l18.145-138.11c0.33203-2.4492-0.32422-4.9297-1.8281-6.8945-1.5-1.9648-3.7227-3.2461-6.1758-3.5664-2.4531-0.32031-4.9297 0.35156-6.8867 1.8633-1.9531 1.5156-3.2266 3.7461-3.5312 6.1992l-19.391 147.72c-0.32812 2.5117 0.38281 5.0508 1.9688 7.0234 1.5859 1.9766 3.9102 3.2188 6.4297 3.4414 0.35938 0 11.617 1.0195 27.949 2.7969 1.1992 12.875 7.2969 84.383 0 113.26v-0.003907c-11.68 45.996-19.242 92.938-22.609 140.27-4.0195 50.398-23.219 177.6-27.012 202.62-0.42578 2.7539-0.64062 5.5391-0.63672 8.3281v10.367c0.007813 3.5195-0.49609 7.0234-1.4844 10.402l-22.379 76.586h-0.003906c-3.2891 11.297-2.9258 23.348 1.0312 34.426l9.1562 45.266c1.1016 5.4648 3.8555 10.465 7.8867 14.316l30.238 28.906c-4.2695 55.926-4.1523 112.1 0.34766 168 0.55469 4.6758 4.5117 8.1992 9.2188 8.2109 0.37109 0 0.73047 0 1.1055-0.058593l-0.003906-0.003907c5.0938-0.60547 8.7344-5.2227 8.1367-10.32-4.2305-52.441-4.4688-105.13-0.70703-157.61 4.9766-0.39062 9.6016-2.7188 12.883-6.4805 3.2852-3.7617 4.9609-8.6602 4.6719-13.645 4.2812-1.6133 7.8125-4.7539 9.9141-8.8164 2.1055-4.0625 2.6289-8.7617 1.4766-13.188-1.1523-4.4258-3.9023-8.2695-7.7188-10.793l-8.9023-6-10.477-14.867 2.3984-12.422c0.58984-3.1328 2.1523-6 4.4648-8.1953 4.6602-4.3867 7.9648-10.016 9.5273-16.223l15.457-60.961c2.3125-9.1172 1.8945-18.715-1.1992-27.598l-0.80469-2.3164c-2.2422-6.4844-2.1641-13.551 0.22656-19.98 9.4805-25.344 31.105-83.027 50.125-132.31 1.7891-4.6211 3.4805-9.1914 5.125-13.715 69.594 15.277 140.59 23.297 211.84 23.926 1.1914 17.055 5.1094 33.805 11.602 49.621 12.102 18.148 31.117 30.539 52.609 34.273 6.2539 1.3242 12.629 2 19.02 2.0156 18.785 0.082031 37.043-6.2188 51.781-17.871 29.809-23.473 32.746-56.281 30.434-82.285l-0.003906 0.003906c7.6562 34.008 12.391 68.609 14.16 103.43 3.2891 65.461-0.64844 79.812-6.6133 101.55l0.003907 0.003906c-6.293 22.258-10.598 45.031-12.863 68.051-10.129 89.387-28.453 229.2-28.645 230.64-0.66016 5.0898 2.9258 9.75 8.0156 10.414 0.39453 0.058593 0.79688 0.085937 1.1992 0.085937 4.6602-0.007812 8.5977-3.4688 9.2031-8.0898 0.17969-1.4023 18.527-141.41 28.668-230.96v0.003906c2.1523-22.07 6.2773-43.902 12.324-65.234 6.2031-22.621 10.691-38.965 7.1992-107.4-2.6797-63.922-15.809-126.97-38.867-186.65 0.30859-4.8242 1.0273-9.6133 2.1484-14.316 0.17969-0.66016 0.22656-1.3906 0.37109-2.0742v-0.003906c0.42578-1.1484 0.62891-2.3711 0.60156-3.5977 0.14453-1.9688 0.14453-3.9453 0-5.918l-2.0273-33.348c0.015625-1.1406-0.097656-2.2773-0.33594-3.3945-2.3984-9.875-17.461-17.473-37.453-22.859-6.0156-8.3203-12.445-16.332-19.273-24l0.49219-0.34766c3.957-3.1016 4.7305-8.7812 1.7539-12.832-2.9766-4.0469-8.6328-4.9961-12.77-2.1445 0 0-0.89844 0.64844-2.1133 1.4883-1.9336-2.0391-3.7578-3.9609-5.3047-5.5664 1.668-1.8828 3.2539-3.8867 4.8008-5.9023 4.1289 0.21484 10.621 0.45703 19.199 0.45703l0.003906-0.003906c44.051-0.20703 87.934-5.4414 130.8-15.602 25.824-6.1211 42.59-8.6641 53.688-10.355 22.691-3.457 28.68-5.2578 29.941-27.156 0.15625-2.7344 0.34766-6 0.69531-9.8516 3.6719-38.688-37.871-143.09-39.645-147.52zm-569.28 558.89c-3.9062 10.5-4.0391 22.031-0.37109 32.617l0.80469 2.3164h-0.003906c1.8984 5.4492 2.1484 11.34 0.72266 16.93l-15.469 60.973c-0.69922 2.793-2.1875 5.3242-4.2852 7.2969-5.1523 4.8672-8.6328 11.238-9.9453 18.203l-2.3984 12.434h-0.003906c-0.92578 4.957 0.17969 10.078 3.0742 14.207l10.488 14.844c1.3086 1.8906 2.9609 3.5195 4.8711 4.8008l8.8555 6-12.625-6.9492-0.85156-0.69531-16.094-18-5.3516-40.703c-0.30469-2.4531-1.5742-4.6836-3.5312-6.1992-1.9531-1.5117-4.4336-2.1836-6.8828-1.8633-2.4531 0.31641-4.6758 1.6016-6.1797 3.5664-1.5 1.9648-2.1602 4.4453-1.8242 6.8945l5.3516 40.715c0.48828 3.7188 2.0898 7.1992 4.5977 9.9844l16.477 18.406c0.16797 0.19141 0.43359 0.30078 0.61328 0.48047 0.17969 0.17969 0.20312 0.33594 0.37109 0.46875l14.09 12.098-1.1289 0.52734-33.387-32.016c-1.2891-1.2227-2.1641-2.8164-2.5078-4.5586l-9.3125-45.961c-0.097657-0.48047-0.23047-0.95312-0.39844-1.4141-2.8047-7.5078-3.1133-15.719-0.875-23.414l22.395-76.57c1.4805-5.0703 2.2305-10.32 2.2305-15.602v-10.332c0-1.8516 0.14062-3.6992 0.41797-5.5312 3.8281-25.105 23.102-152.96 27.18-203.93h0.003906c3.2891-46.312 10.695-92.242 22.125-137.24 7.5-29.785 2.5781-95.258 0.80469-115.62 32.902 3.1797 65.48 9.1055 97.391 17.723 0 6.3008 0.14453 12.602 0 18.887l-0.10938 3.7188c-1.1992 42-2.3984 85.5-3.4922 97.598l0.003906 0.003907c-4.293 23.434-10.641 46.449-18.973 68.77-0.16406 0.46094-0.29688 0.92969-0.39453 1.4062-8.9141 41.633-21.031 82.512-36.242 122.28-19.078 49.309-40.738 107.08-50.23 132.46zm78.84-157.2c10.391-30.562 18.965-61.715 25.68-93.289 0.91016-2.5078 3.9844-11.137 7.4648-22.031 31.242 3.8438 62.684 5.8242 94.164 5.9297 11.855 0 24.086-0.49219 36.312-1.2734 6 16.223 22.129 58.98 30.562 78.793 4.9141 17.359 7.9648 35.199 9.0977 53.207l0.19141 1.6211c-68.418-0.91797-136.58-8.6055-203.48-22.945zm329.16 95.016c-15.734 12.164-36.082 16.66-55.477 12.266-16.137-2.5547-30.566-11.5-40.031-24.816-6.7969-20.441-10.801-41.707-11.906-63.219-1.1797-19.812-4.6914-39.422-10.461-58.414-2.7734-6.5039-6.4453-15.719-10.32-25.656 18.227 4.8906 37 7.4453 55.871 7.5977h0.10937c5.0039-0.14844 8.9922-4.2344 9.0234-9.2422 0.027344-5.0078-3.9141-9.1406-8.918-9.3477-22.043-0.011719-43.918-3.8242-64.668-11.27-2.8203-7.4297-5.4727-14.398-7.6914-20.328 15.781 12.109 55.586 18.984 94.477 18.984 23.516 0.63672 46.973-2.6797 69.395-9.8008l0.99609 16.57c-0.007813 0.57812-0.046875 1.1562-0.11719 1.7266-8.9414 5.1172-19.145 7.6133-29.438 7.2031-5.0234 0.25391-8.9336 4.4609-8.8164 9.4922 0.11719 5.0273 4.2188 9.0508 9.2461 9.0703h0.45703c8.668-0.27734 17.258-1.7031 25.551-4.2383-0.070312 0.98438-0.14453 1.9805-0.21484 2.9883h-0.003906c-0.003906 0.097656-0.003906 0.19531 0 0.28906-1.0234 16.895-0.55469 33.844 1.4062 50.652 0.39453 3.1914 1.0547 6.9492 1.7891 11.137 4.4141 25.391 11.121 63.672-20.258 88.355zm13.836-210.96c-42.324 16.691-133.51 7.4141-147.8-6.8867l-0.21484-0.21484c11.277-5.4883 23.492-8.7812 36-9.7109 45.457-4.1289 99.527 7.4141 114 15.984-0.58984 0.28906-1.25 0.58984-1.9805 0.86328zm-42.793-32.207c-5.5312-0.82812-11.137-1.4883-16.801-2.0508 3.6016-2.0625 6.8867-3.9961 9.8867-5.8438 2.3203 2.5898 4.6211 5.2305 6.9141 7.9297zm60.984-191.51c1.6602 1.9766 4.0703 3.1719 6.6484 3.3008 6.8984 0.17969 13.797-0.22266 20.629-1.1992 2.6406 4.4531 5.4727 9.4688 8.293 14.617l-53.41 18.973c3.6016-15.469 6.4922-31.066 8.8555-46.344zm150.49 83.832c-0.37109 4.1055-0.5625 7.5586-0.73047 10.477-0.16797 2.9141-0.33594 5.8086-0.625 7.3438-4.4688 1.1172-9 1.9531-13.574 2.5078-11.398 1.7266-28.609 4.3438-55.199 10.645-43.641 10.301-88.359 15.328-133.2 14.977 12.902-22.785 22.797-47.145 29.438-72.469l67.777-24.059c6.0703 11.605 10.68 20.855 10.801 21.035h-0.003907c1.5703 3.1602 4.7969 5.1602 8.3281 5.1602 1.4336-0.007813 2.8438-0.33984 4.1289-0.97266 4.5938-2.293 6.4648-7.8711 4.1758-12.469-0.63672-1.2734-13.715-27.527-25.199-47.723 26.648-6.7422 51.043-20.402 70.715-39.602 13.477 35.52 35.473 100.39 33.215 125.15z"/>
 <path d="m815.57 841.2c4.9727-1.3242 7.9258-6.4297 6.6016-11.398-1.3242-4.9727-6.4297-7.9258-11.398-6.6016-32.789 9.9805-67.613 11.223-101.03 3.6016 0.37109-0.40625 0.76953-0.78125 1.1406-1.1992 18.816-21.066 33.645-45.379 43.766-71.75 0.92969-2.3047 0.89844-4.8867-0.085937-7.168-0.98828-2.2812-2.8477-4.0703-5.1641-4.9688-2.3203-0.89844-4.8984-0.83203-7.168 0.18359-2.2656 1.0195-4.0312 2.9023-4.8984 5.2344-9.3125 24.258-22.957 46.621-40.273 66-12.414 13.855-25.637 26.969-39.598 39.262-27.996 24.562-48.266 49.812-75.145 112.8-34.801 81.684-80.543 176.61-81 177.6-2.2266 4.6211-0.28906 10.176 4.332 12.406 1.2617 0.59766 2.6367 0.91016 4.0312 0.91406 3.5781 0.011718 6.8477-2.0312 8.3984-5.2578 0.45703-0.94922 46.332-96.254 81.348-178.33h0.003906c8.375-20.48 18.34-40.273 29.805-59.195 2.8086 40.715 9.4336 122.4 21.457 197.32 0.71484 4.5039 4.5977 7.8203 9.1562 7.8242 0.49609 0 0.98828-0.039062 1.4766-0.12109 2.4336-0.39062 4.6133-1.7305 6.0586-3.7266 1.4453-1.9961 2.0352-4.4844 1.6445-6.918-14.988-93.359-21.504-197.63-22.68-217.89 7.1602-8.3711 14.934-16.195 23.258-23.414 8.7852-7.7031 17.363-16.043 25.812-24.648l-0.003906 0.003906c17.578 6.0898 36.102 8.9844 54.699 8.5547 22.125-0.15234 44.133-3.2148 65.457-9.1094z"/>
 <path d="m599.51 434.53c2.8594-0.011719 5.5547-1.3398 7.3086-3.5977 48.07-61.199 58.078-153.93 58.488-157.84 0.52344-5.1133-3.1953-9.6797-8.3047-10.203-5.1094-0.52344-9.6758 3.1953-10.199 8.3047-0.097656 0.91016-9.9102 91.391-54.625 148.26-2.1953 2.7969-2.6016 6.6016-1.0469 9.7969 1.5547 3.1992 4.8008 5.2266 8.3555 5.2266z"/>
</svg>
