<?xml version="1.0" encoding="utf-8"?>
<!-- Generator: Adobe Illustrator 16.0.0, SVG Export Plug-In . SVG Version: 6.00 Build 0)  -->
<!DOCTYPE svg PUBLIC "-//W3C//DTD SVG 1.1//EN" "http://www.w3.org/Graphics/SVG/1.1/DTD/svg11.dtd">
<svg version="1.1" id="Layer_1" xmlns="http://www.w3.org/2000/svg" xmlns:xlink="http://www.w3.org/1999/xlink" x="0px" y="0px"
	 width="1064.329px" height="911.03px" viewBox="63.193 206.619 1064.329 911.03" fill="#104e64e6" 
	 enable-background="new 63.193 206.619 1064.329 911.03" xml:space="preserve">
<path d="M791.8,330.95c-6.137,0.004-12.026-2.434-16.367-6.773c-4.34-4.336-6.781-10.223-6.781-16.359
	c0-6.137,2.438-12.023,6.777-16.363s10.228-6.777,16.363-6.777c6.137,0,12.023,2.441,16.359,6.781
	c4.34,4.344,6.773,10.23,6.773,16.367c-0.008,6.129-2.445,12.008-6.781,16.344S797.928,330.943,791.8,330.95L791.8,330.95z
	 M791.8,296.688c-4.508-0.004-8.57,2.707-10.297,6.867s-0.777,8.953,2.406,12.141s7.973,4.141,12.137,2.418
	s6.879-5.785,6.879-10.289C802.917,301.681,797.94,296.704,791.8,296.688L791.8,296.688z"/>
<path d="M964.05,383.09C874.124,246,801.87,211.91,757.1,207.49c-23.491-3.473-47.323,3.547-65.184,19.199
	c-35.207,35.785-149.17,138.72-254.28,187.04l-19.812-3.238c-5.66-0.949-11.47-0.289-16.773,1.898
	c-5.301,2.191-9.887,5.82-13.227,10.484l-10.691,14.797c-23.375,10.535-171.7,56.652-246.73,63.603h-0.004
	c-20.488,0.07-40.066,8.492-54.215,23.315c-11.27,16.031-15.457,35.988-11.578,55.199c7.129,60.188,21.531,119.29,42.887,176.02
	c15.805,39.853,58.355,113.641,82.801,113.641c0.777,0.004,1.555-0.074,2.316-0.242c11.375-2.398,29.242-7.129,39.395-9.887
	c-0.316,15.098-1.563,30.164-3.73,45.108c-1.48,9.79-4.855,19.195-9.938,27.695l-18.191,30.707
	c-5.164,8.688-8.816,18.185-10.801,28.094l-16.477,82.367c-0.313,1.559,0.004,3.184,0.887,4.508s2.258,2.246,3.816,2.559
	c0.398,0.07,0.801,0.109,1.203,0.109c2.852,0,5.309-2.008,5.879-4.801l16.465-82.367c1.723-8.574,4.879-16.801,9.336-24.323
	l18.191-30.707c5.883-9.836,9.785-20.73,11.484-32.066c3.203-22.246,4.48-44.729,3.816-67.199c0.73-47.801,3.934-95.535,9.598-143
	v-73.905c-0.008-5.79,1.195-11.513,3.543-16.802l4.801-10.922l-2.461,30.949c-0.129,1.586,0.383,3.156,1.415,4.367
	c1.035,1.211,2.504,1.965,4.094,2.09h0.48h-0.004c3.137,0.008,5.75-2.395,6-5.52l5.902-74.398l0.004-0.004
	c0.559-7.078,2.93-13.895,6.887-19.789l8.258-12.323v70.203c0,3.313,2.684,6,6,6c3.313,0,6-2.688,6-6v-89.82
	c0.023-6.551,3.406-12.625,8.965-16.094l28.151-17.398h-0.004c3.891-2.402,8.512-3.32,13.023-2.594l3.059,0.504l-4.801,6.59
	c-6.238,8.648-9.156,19.254-8.219,29.879l6.984,78.563c0.273,3.109,2.883,5.484,6,5.473h0.539c1.586-0.141,3.047-0.91,4.066-2.133
	c1.02-1.219,1.512-2.797,1.371-4.383l-6.984-78.552c-0.684-7.754,1.445-15.491,6-21.805L397.52,429.9
	c2.047-2.848,4.848-5.066,8.094-6.406c3.242-1.339,6.793-1.742,10.254-1.164l50.397,8.258c-5.508,2.914-10.645,5.566-15.098,7.801
	l0.004-0.004c-7.469,3.711-13.586,9.677-17.484,17.056l-7.199,13.5c-3.098,5.844-4.719,12.354-4.727,18.969v46.215
	c-0.039,7.574,2.098,15,6.156,21.396c13.896,21.77,23.517,45.992,28.345,71.362c1.969,11.173,3.155,23.521,4.309,35.484
	c3.77,39,7.848,79.285,40.586,76.801c20.688-1.586,78.948-4.477,141.6-5.258l-3.168,4.633h-0.004
	c-5.324,6.223-11.496,11.664-18.336,16.164L571.4,787.62l-0.004,0.004c-5.613,3.711-10.841,7.98-15.599,12.742l-5.664,5.664
	c-3.426,3.426-7.125,6.559-11.065,9.371l-9.254,6.613h0.004c-9.379,6.688-17.527,14.949-24.087,24.422l-13.043,18.888
	c-7.352,10.59-16.934,19.444-28.065,25.944c-10.914,6.324-20.523,14.672-28.31,24.599c-15.207,18.016-28.25,37.75-38.866,58.801
	c-6.305,15.32-14.095,29.983-23.259,43.789c-2.809,4.547-5.52,8.914-7.957,13.104c-9.77,16.728-32.495,75.435-33.457,77.931
	l0.004-0.004c-1.195,3.09,0.344,6.566,3.438,7.758c3.09,1.191,6.563-0.348,7.758-3.438c0.238-0.602,23.328-60.289,32.617-76.199
	c2.398-4.105,5.039-8.398,7.801-12.828h-0.004c9.586-14.465,17.72-29.832,24.289-45.891c10.082-19.949,22.527-38.613,37.07-55.595
	c6.855-8.715,15.312-16.047,24.91-21.602c12.651-7.391,23.539-17.457,31.895-29.496l13.105-18.887
	c5.762-8.336,12.93-15.609,21.18-21.492l9.254-6.613c4.48-3.203,8.691-6.77,12.586-10.668l5.664-5.652
	c4.184-4.195,8.789-7.953,13.742-11.207l49.848-32.914c7.957-5.258,15.117-11.633,21.263-18.926l8.305-12.07
	c46.668-0.98,93.352,0.84,139.8,5.445c82.477,10.56,188.99,48.406,233.8,66.938c17.418,8.371,36.228,13.469,55.488,15.034
	c7.891,0.242,15.676-1.844,22.391-6c11.785-7.691,18-22.801,18.492-44.762c1.969-89.949-51.469-216.67-163.42-387.33L964.05,383.09z
	 M293.06,495.45c-26.91,7.602-54.664,11.844-82.617,12.621c-3.316,0-6,2.688-6,6c0,3.316,2.684,6,6,6
	c24.949-0.832,49.754-4.145,74.051-9.887l-10.262,15.312c-5.094,7.609-8.152,16.396-8.879,25.523l-0.574,7.273l-18.66,42.19
	c-3.023,6.801-4.582,14.16-4.574,21.599v73.198c-0.348,2.902-6.457,55.332-8.844,102.12c-11.195,3.594-21.934,8.48-31.992,14.57
	c-2.297,1.398-3.379,4.156-2.656,6.742c0.727,2.59,3.09,4.379,5.777,4.383c1.102-0.004,2.18-0.305,3.121-0.879
	c7.977-4.832,16.418-8.855,25.199-12c-0.371,10.453-0.504,20.398-0.266,29.004c0.07,2.578,0.086,5.063,0.109,7.559
	c-9.012,2.461-29.734,8.027-41.914,10.598c-9.758,1.367-49.789-51.422-71.461-106.079c-20.973-55.755-35.117-113.841-42.121-172.99
	c-3.375-15.98-0.121-32.648,9.011-46.188c12.207-12.16,28.754-18.957,45.984-18.891c59.809-8.367,118.81-21.707,176.4-39.887
	l-0.793,0.48h0.004c-7.641,4.785-12.781,12.698-14.043,21.625L293.06,495.45z M1102.38,805.2
	c-14.397,9.422-40.608,0.695-66.729-10.105c-45.313-18.758-153.131-57.047-236.86-67.766c-84.371-10.801-259.11-3.145-298.49-0.121
	c-19.883,1.355-23.651-23.914-27.707-66c-1.199-12.191-2.398-24.793-4.453-36.422v0.008c-5.094-26.918-15.272-52.621-30-75.724
	c-2.82-4.473-4.301-9.66-4.273-14.948v-46.238c0.004-4.645,1.145-9.215,3.324-13.32l7.199-13.512c2.727-5.18,7.008-9.375,12.242-12
	c33.742-16.801,104.24-57.098,104.95-57.504c2.875-1.656,3.863-5.332,2.207-8.207s-5.332-3.863-8.207-2.207
	c-0.516,0.301-38.473,21.961-71.867,40.078l-25.453-4.164c123.19-61.848,240.971-180.72,242.21-181.97
	c15.306-13.07,35.574-18.773,55.453-15.598c42.168,4.164,110.771,37.078,198.101,170.23
	c109.02,166.23,163.329,294.27,161.409,380.53c-0.398,17.773-4.789,29.548-13.059,34.957L1102.38,805.2z"/>
</svg>
