<?xml version="1.0" encoding="utf-8"?>
<!-- Generator: Adobe Illustrator 16.0.0, SVG Export Plug-In . SVG Version: 6.00 Build 0)  -->
<!DOCTYPE svg PUBLIC "-//W3C//DTD SVG 1.1//EN" "http://www.w3.org/Graphics/SVG/1.1/DTD/svg11.dtd">
<svg version="1.1" id="Layer_1" xmlns="http://www.w3.org/2000/svg" xmlns:xlink="http://www.w3.org/1999/xlink" x="0px" y="0px"
	 width="1088.156px" height="1062.56px" viewBox="57.275 94.001 1088.156 1062.56" fill="#104e64e6"
	 enable-background="new 57.275 94.001 1088.156 1062.56" xml:space="preserve">
<path d="M1072.6,701.02C994.455,638.512,745.15,358.17,649,217.28c-98.398-144-140.79-135.6-198.96-104.58
	c-55.523,29.617-68.762,96.324-34.535,174.11c34.896,79.309,52.547,112.8,56.16,119.53l-108,160.601
	c-0.133,0.145-14.398,14.327-49.066,42v-0.004c-14.664,10.895-26.664,24.979-35.085,41.194
	c-9.684,16.974-20.762,33.113-33.121,48.25c-40.762,50.906-124.85,149.261-187.55,219.301c-1.078,1.184-1.641,2.746-1.559,4.348
	c0.078,1.598,0.797,3.098,1.988,4.168c1.191,1.066,2.762,1.613,4.359,1.516c1.602-0.094,3.094-0.824,4.148-2.027
	c62.82-70.177,147.06-168.771,187.86-219.75c12.727-15.603,24.137-32.23,34.113-49.72c7.703-14.918,18.727-27.87,32.223-37.858
	c17.729-13.646,34.688-28.271,50.781-43.813l74.397-109.79l43.031-64.559h0.004c2.965-4.457,7.965-7.133,13.32-7.129h30.405
	c1.195,0.004,2.355,0.395,3.313,1.105l7.957,6c1.352,1,2.168,2.563,2.223,4.242s-0.664,3.289-1.945,4.375l-5.219,4.441l-0.004-0.004
	c-1.137,0.977-2.625,1.441-4.113,1.285l-15.479-1.523c-3.316-0.332-6.27,2.086-6.602,5.398c-0.332,3.316,2.086,6.27,5.398,6.602
	l6.551,0.648l-13.105,9.828h0.004c-2.652,1.988-3.188,5.746-1.199,8.398s5.75,3.188,8.398,1.199l70.31-52.801l32.026-19.199
	c1.273-0.773,2.734-1.188,4.227-1.199h15.603h-0.004c3.719,0.059,6.941,2.586,7.883,6.18c0.945,3.598-0.625,7.379-3.836,9.254
	l-3.961,1.117v-0.004c-0.465,0.164-0.902,0.387-1.309,0.66l-23.892,2.172c-4.848,0.438-9.449,2.328-13.202,5.426l-55.859,45.996
	c-1.957,1.609-2.688,4.277-1.832,6.664c0.859,2.387,3.125,3.973,5.66,3.969c1.391,0.004,2.734-0.48,3.805-1.367l55.849-45.996
	c1.894-1.566,4.214-2.52,6.66-2.738l66.793-6.07c2.199-0.207,4.402,0.352,6.238,1.582l9.602,6.445c3.25,2.172,4.875,6.09,4.117,9.93
	c-0.758,3.836-3.75,6.84-7.586,7.613l-18.109,3.602l-35.508,5.605v-0.004c-10.945,1.715-21.125,6.668-29.23,14.224l-38.397,35.698
	c-2.43,2.258-2.57,6.055-0.313,8.484c2.254,2.43,6.055,2.566,8.484,0.313l38.397-35.711v-0.004
	c6.371-5.918,14.363-9.801,22.957-11.147l50.375-7.953c0.727-0.109,1.469-0.109,2.195,0l9.516,1.355
	c1.949,0.277,3.707,1.316,4.887,2.895c1.176,1.578,1.68,3.559,1.391,5.504c-0.535,3.645-3.652,6.348-7.332,6.359h-16.512
	c-3.52,0.004-6.969,0.961-9.984,2.773l-22.895,13.737v0.004c-6.879,4.137-12.785,9.703-17.328,16.316l-30.492,44.605l-0.109,0.156
	l-8.941,13.077l-35.41,42.48c-1.02,1.227-1.512,2.805-1.367,4.391s0.91,3.051,2.137,4.07c2.547,2.125,6.336,1.781,8.457-0.766
	l35.746-42.949l4.801-7.043c1.668,1.969,3.77,4.273,6.254,6.875l-14.172,18.637l-34.246,60.888l-42.771,33.66
	c-10.504,8.238-22.766,13.94-35.832,16.668l-46.055,9.527c-25.637,5.23-48.094,20.543-62.328,42.491
	c-17.785,27.238-49.129,78.793-97.477,169.69c-0.781,1.41-0.965,3.074-0.508,4.617s1.516,2.84,2.938,3.594
	c1.422,0.758,3.09,0.91,4.625,0.422c1.535-0.484,2.813-1.566,3.539-3.004c48.145-90.539,79.272-141.771,96.938-168.83
	c12.496-19.27,32.216-32.711,54.72-37.297l46.065-9.602l0.004,0.004c14.879-3.105,28.84-9.602,40.801-18.984l19.935-15.684
	l-14.051,24.996h-0.004c-17.254,29.746-38.406,57.055-62.896,81.203c-9.715,9.655-17.203,21.312-21.945,34.163
	c-17.422,44.759-38.766,87.888-63.793,128.881c-17.676,29.461-40.68,65.026-68.397,105.729c-1.691,2.734-0.93,6.313,1.727,8.121
	c2.656,1.805,6.262,1.199,8.184-1.375c27.84-40.883,50.977-76.656,68.772-106.31c25.388-41.605,47.044-85.375,64.716-130.801
	c4.16-11.206,10.715-21.375,19.198-29.793c25.281-24.934,47.109-53.137,64.91-83.858l28.802-51.313l0.109-0.191l34.34-61.09
	l51.602-67.801c2.57-3.375,6.051-5.945,10.031-7.414l48.863-18c1.934-0.707,4.102-0.164,5.473,1.367
	c1.371,1.535,1.672,3.75,0.758,5.59c-0.695,1.309-1.891,2.273-3.313,2.676l-33.23,13.859c-7.344,3.059-13.395,8.574-17.121,15.602
	l-27.121,51.227c-1.375,2.832-0.336,6.242,2.387,7.816c2.723,1.578,6.199,0.785,7.969-1.816l24.134-37.547
	c4.25-6.594,10.659-11.508,18.133-13.905l65.473-20.953h-0.004c2.203-0.711,4.594,0.313,5.598,2.398
	c1.004,2.082,0.316,4.59-1.613,5.871l-41.293,21.526h0.004c-8.172,4.203-14.867,10.797-19.203,18.898l-29.004,48.504
	c-1.617,3.082-0.566,6.895,2.402,8.711c2.938,1.523,6.539,0.848,8.723-1.641l32.398-42.574v-0.004
	c2.516-3.516,5.941-6.281,9.914-7.992l55.848-23.93v0.004c3.957-2.25,8.984-0.863,11.23,3.094c2.25,3.957,0.863,8.984-3.094,11.234
	l-46.716,33.741c-4.664,3.367-8.445,7.816-11.02,12.961l-18.961,37.923l0.004-0.004c-1.832,3.676-0.566,8.141,2.926,10.301
	s8.055,1.309,10.523-1.973l18.672-24.898l38.016-43.883c2.23-2.578,6.035-3.074,8.852-1.156c2.813,1.914,3.746,5.637,2.168,8.656
	l-15.742,30.227l-21.483,41.185l-71.578,101.41v0.004c-7.863,11.16-17.523,20.94-28.586,28.94
	c-32.508,22.441-60.945,50.271-84.082,82.285c-31.836,49.523-76.56,166.12-78.435,171.01
	c-13.934,35.734-30.457,73.31-49.116,111.601c-1.445,2.98-0.203,6.574,2.78,8.02c2.98,1.449,6.574,0.207,8.02-2.777
	c18.806-38.629,35.461-76.488,49.513-112.561c0.469-1.199,46.176-120.37,77.34-168.85c22.332-30.754,49.727-57.484,81.012-79.06
	c4.301-3.133,8.402-6.526,12.289-10.163c20.797,32.09,116.22,177,174,225.13c27.523,21.987,61.859,33.676,97.082,33.047
	c28.234-0.027,56.07-6.652,81.293-19.34c25.224-12.688,47.133-31.087,63.988-53.738c54.84-75.435,61.176-191.25-33-266.63
	L1072.6,701.02z M755.3,602.727l0.563-1.129v0.004c1.707-3.405,4.211-6.348,7.297-8.581l1.465-1.055L755.3,602.727z
	 M1095.86,960.637v0.004c-13.599,18.398-30.816,33.82-50.595,45.316c-19.776,11.5-41.698,18.832-64.414,21.547
	c-39.086,5.852-78.854-4.641-109.97-29.004c-57.238-47.664-156.32-198.89-173-224.64c3.734-4.063,7.219-8.352,10.43-12.841
	l24.445-34.668c7.715,10.066,23.566,30.359,41.271,50.578l-0.004,0.004c1.023,1.27,2.523,2.063,4.148,2.203
	c1.629,0.141,3.242-0.387,4.469-1.461s1.965-2.602,2.043-4.234c0.074-1.629-0.516-3.219-1.637-4.406
	c-19.56-22.354-36.828-44.784-43.031-52.957l40.297-57.155l18.422-35.306l-0.004,0.004c29.813,26.613,62.398,49.949,97.199,69.599
	c2.867,1.633,6.516,0.641,8.164-2.215s0.684-6.508-2.164-8.176c-34.973-19.734-67.648-43.293-97.414-70.25l13.453-25.773
	c1.996-3.848,2.598-8.266,1.703-12.508c-0.895-4.238-3.234-8.039-6.613-10.75c-1.516-1.215-3.207-2.188-5.016-2.891l1.836-1.332
	c5.43-3.918,8.566-10.272,8.379-16.965c-0.191-6.695-3.68-12.859-9.32-16.465c-5.645-3.609-12.703-4.188-18.859-1.551
	l-51.938,22.246c0.336-0.191,0.684-0.371,1.031-0.551l41.543-21.673h0.004c4.77-2.77,7.852-7.723,8.23-13.227
	c0.383-5.5-1.992-10.832-6.332-14.23c-4.344-3.398-10.09-4.422-15.34-2.734l-54.72,17.509l22.009-9.168
	c4.379-1.402,8.008-4.512,10.055-8.629c2.051-4.117,2.348-8.887,0.824-13.228c-1.52-4.336-4.734-7.875-8.902-9.813
	c-4.172-1.934-8.949-2.098-13.242-0.457l-48.854,18.012c-6.125,2.254-11.484,6.207-15.441,11.402l-30.59,40.199
	c-2.93-3.156-5.074-5.652-6.551-7.512l28.02-40.945c3.566-5.195,8.207-9.566,13.609-12.815l22.953-13.798
	c1.152-0.691,2.465-1.055,3.805-1.059h16.522c4.832-0.004,9.484-1.805,13.06-5.055c3.57-3.25,5.801-7.715,6.258-12.522
	c0.461-4.805-0.891-9.613-3.785-13.478c-2.359-3.145-5.629-5.492-9.363-6.719c3.598-4.742,5.074-10.766,4.074-16.633
	s-4.387-11.059-9.352-14.34l-9.602-6.445c-4.121-2.75-9.055-4.02-13.992-3.602l-22.801,2.074c0-0.109,0.109-0.191,0.145-0.301v0.004
	c2.242-6.191,1.324-13.082-2.453-18.473c-3.777-5.391-9.945-8.605-16.531-8.609h-15.603h0.004c-1.215,0.059-2.418,0.223-3.602,0.492
	c-6.816-12.707-37.354-70.801-40.354-97.824c-0.363-3.297-3.332-5.668-6.625-5.305s-5.668,3.328-5.305,6.625
	c3.039,29.039,33.229,86.758,41.102,101.47l-28.319,17.027l-24.841,18.637c-0.07-0.359,0-0.719-0.133-1.066
	c-1.055-3.707-3.293-6.969-6.371-9.289l-7.957-6c-3.035-2.266-6.723-3.492-10.512-3.504h-8.484
	c-11.062-17.906-20.469-36.781-28.102-56.398c-1.199-3.094-4.672-4.629-7.766-3.434c-3.09,1.195-4.629,4.672-3.43,7.766
	c7.035,17.938,15.397,35.324,25.02,52.02h-7.645c-9.367-0.008-18.112,4.672-23.305,12.469l-0.996,1.488
	c-6.973-13.488-24.191-48-52.801-113.04c-31.935-72.59-21.023-131.91,29.194-158.7c48.759-26.016,84-44.785,183.41,100.8
	c96.672,141.6,347.4,423.42,426.07,486.36c64.805,51.849,102.07,152.271,30.785,250.271L1095.86,960.637z"/>
</svg>
