<?xml version="1.0" encoding="utf-8"?>
<!-- Generator: Adobe Illustrator 16.0.0, SVG Export Plug-In . SVG Version: 6.00 Build 0)  -->
<!DOCTYPE svg PUBLIC "-//W3C//DTD SVG 1.1//EN" "http://www.w3.org/Graphics/SVG/1.1/DTD/svg11.dtd">
<svg version="1.1" id="Layer_1" xmlns="http://www.w3.org/2000/svg" xmlns:xlink="http://www.w3.org/1999/xlink" x="0px" y="0px"
	 width="1066.607px" height="663.801px" viewBox="65.869 268.035 1066.607 663.801" fill="#104e64e6"
	 enable-background="new 65.869 268.035 1066.607 663.801" xml:space="preserve">
<path d="M988.11,603.43c2.664-3.469,3.602-7.199,2.125-8.398s-4.883,0.707-7.547,4.164s-3.602,7.199-2.125,8.398
	C982.036,608.793,985.435,606.922,988.11,603.43z"/>
<path d="M1002.6,679.66c-0.605-0.695-1.469-1.125-2.391-1.184c-0.922-0.063-1.832,0.25-2.527,0.859
	c-2.773,2.492-6.215,4.117-9.902,4.68s-7.456,0.031-10.848-1.523c-1.672-0.961-3.809-0.383-4.77,1.289
	c-0.961,1.676-0.383,3.809,1.289,4.77c3.328,1.949,7.113,2.98,10.969,2.988c6.563-0.281,12.849-2.727,17.871-6.961
	c0.691-0.609,1.117-1.469,1.176-2.395C1003.525,681.262,1003.213,680.352,1002.6,679.66L1002.6,679.66z"/>
<path d="M1127.7,628.79c-4.156-20.098-14.431-38.414-29.41-52.441c-9.926-16.573-25.656-28.866-44.137-34.487
	c-19.113-4.078-39.06,0.125-54.898,11.569c-0.789,0.504-1.344,1.301-1.539,2.219c-0.195,0.914-0.012,1.871,0.504,2.652l2.734,4.152
	h0.004c-7.797,4.156-14.902,9.492-21.074,15.816c-2.293,2.699-4.371,5.578-6.215,8.602c-1.598,3.711-5.078,6.273-9.094,6.695
	l-8.484,3.539c-5.52-6.742-23.832-28.906-34.262-39.602v0.004c-11.23-10.798-19.516-24.281-24.07-39.181
	c-8.148-18.362-18.293-35.772-30.254-51.914c-2.398-3.469-4.656-6.816-6.793-10.02c-7.266-11.164-13.617-22.902-18.984-35.098
	c-1.835-3.911-3.602-7.813-5.629-11.81c-2.629-5.305-4.344-9.098-5.641-12h0.004c-1.578-4.367-3.988-8.391-7.094-11.844
	c-5.625-7.758-10.332-16.141-14.026-24.984c-3.395-7.645-12.146-24.086-12.301-24.254l-11.052-32.723
	c-1.383-4.074-4.719-7.188-8.879-8.281c2.242-7.566,0.691-15.75-4.164-21.969c-7.762-5.68-17.895-6.973-26.832-3.422
	c-17.422,3.879-34.172,10.305-49.719,19.066c-23.473,12.719-15.191,31.559-10.234,42.828c2.398,5.52,4.922,11.363,6.973,16.223
	v0.004c2.426,5.848,6.512,10.859,11.755,14.414c5.242,3.555,11.409,5.492,17.741,5.578c3.371,0,6.715-0.566,9.898-1.668
	c3.148-1.082,6.109-2.64,8.785-4.621c0.84,0.238,1.512,0.625,2.398,0.816c5.652,1.254,10.688,4.438,14.246,9l1.199,1.586v-0.004
	c4.441,7.113,10.492,13.078,17.664,17.426c3.254,1.703,9.203,4.895,14.328,7.644c4.305,13.203,7.59,26.72,9.828,40.427
	c1.199,6.504,2.305,13.008,3.371,19.452c4.391,26.544,8.531,51.603,22.354,70.587c7.199,9.875,11.509,16.956,14.677,22.129v-0.004
	c3.02,5.934,7.188,11.203,12.266,15.504c12.313,12.348,22.84,26.354,31.273,41.617c12.776,24.562,28.395,47.539,46.534,68.461
	c10.56,10.895,15.898,16.309,18.591,19.02l-3.348,3.336h-0.004c-1.422,1.426-3.387,2.18-5.398,2.074
	c-6.035-0.414-12.047-1.152-18-2.219c-14.892-2.566-37.922-4.969-41.363-5.316c-7.746-2.852-15.125-6.602-21.996-11.172
	c-5.867-4.246-13.559-10.906-21.719-18h-0.004c-11.685-11.594-25-21.418-39.527-29.16l-2.578-0.781v0.004
	c-17.598-4.199-33.237-14.266-44.352-28.539c-5.531-6.828-9.504-12.069-12.888-16.547h-0.004
	c-7.397-10.379-15.995-19.852-25.616-28.211c-20.888-21.18-39.797-44.219-56.496-68.832c-1.199-2.23-0.996-3.684-0.227-7.031h-0.004
	c1.938-7.477,1.402-15.379-1.523-22.527c-2.504-7.227-5.465-14.288-8.867-21.141c-1.984-4.043-3.32-8.371-3.961-12.828
	c9.254-3.324,35.914-16.547,45.348-60.816c1.875-5.168,2.277-10.754,1.156-16.133c-1.117-5.383-3.711-10.348-7.492-14.336
	c-15.961-13.738-50.797-0.852-52.176-0.324c-2.102,0.707-51.949,17.855-73.104,52.332c-5.661,7.437-7.027,17.292-3.599,25.992
	c6.603,14.074,27.603,18.973,33.685,20.103l13.57,21.504v7.199c0,0.688,0.207,1.359,0.59,1.93
	c0.098,0.168,11.004,16.68,17.27,27.948c1.777,3.109,3.301,6.359,4.547,9.719c1.75,4.754,4.152,9.243,7.141,13.332
	c2.578,3.828,7.43,13.117,13.043,23.855l1.859,3.602c-3.973-2.094-8.254-3.543-12.684-4.297c-10.656-1.93-21.652,0.211-30.806,6
	c-4.641,2.387-9.41,4.512-14.293,6.359c-24.608,10.211-48.516,22.031-71.565,35.391c-11.271,7.059-21.957,15.005-31.969,23.759
	c-3.095,0.34-6.161,0.914-9.169,1.719l-2.015,0.492c-5.461,1.43-10.755,3.441-15.794,6c-4.191,2.176-8.621,3.863-13.198,5.027
	c-3.984,0.867-7.883,2.07-11.664,3.598c-5.277,2.027-10.656,3.785-16.117,5.27c-2.773,0.77-6.59,1.656-10.801,2.605h0.004
	c-2.699-4.027-5.672-7.863-8.906-11.474c-0.648-0.75-1.586-1.188-2.578-1.199c-0.648-0.313-1.598,0.266-2.293,0.898
	c-1.883-2.102-3.793-4.199-5.688-6.086c-3.555-3.195-6.664-6.852-9.254-10.871c-2.336-3.93-2.938-8.651-1.656-13.043
	c0.676-3.129,0.902-6.336,0.672-9.527c-1.293-6.769-4.367-13.073-8.902-18.266c-2.434-2.875-6.063-4.457-9.828-4.281
	c0.145-3.348-0.766-6.656-2.605-9.457c-6.07-9.324-21.603-13.883-46.512-13.668c-52.896,0.527-139.2,43.31-152.061,49.849
	c-1.406-0.633-2.891-1.07-4.418-1.297c-4.828-0.73-9.738-0.73-14.566,0c-3.383,0.566-6.523,2.105-9.047,4.43
	c-1.629-2.984-4.234-5.316-7.379-6.603c-10.09-2.335-20.68,0.516-28.238,7.599c-8.844,6.574-9.805,12.684-9.059,16.655
	c1.965,6.242,6.82,11.156,13.043,13.199c-9.188,6.309-17.609,13.664-25.094,21.922c-1.828,2.18-3.035,4.809-3.492,7.617
	s-0.152,5.684,0.891,8.332c5.219,13.199,21.238,37.402,69.457,52.56c0.195,8.422,3.633,16.444,9.598,22.395
	c5.43,3.945,12.266,5.426,18.84,4.078c7.957-0.711,15.547-3.672,21.875-8.543c3.094-2.371,6.586-4.168,10.309-5.316
	c0.379,1.387,0.379,2.848,0,4.234c-1.332,5.289,1.207,10.789,6.098,13.203c1.406,0.668,2.941,1.02,4.5,1.031
	c2.617,0.047,5.117-1.078,6.816-3.074c3.941-4.742,5.41-11.066,3.961-17.063c-0.145-0.348-0.492-0.527-0.684-0.863h-0.004
	c12.445-0.172,24.883,0.633,37.203,2.398c123.6,13.789,169.55-12.445,189.2-23.651c1.836-1.044,3.406-1.945,4.801-2.629
	c9.277-4.703,11.565-1.703,19.738,11.831c1.586,2.617,3.324,5.496,5.316,8.578c11.52,17.785,23.112,35.474,38.315,56.103
	c3.602,4.801,6.66,8.914,9.602,12.828l-0.004,0.004c12.974,16.809,24.961,34.352,35.906,52.547
	c12.914,21.711,28.949,41.406,47.59,58.453c29.734,23.27,52.263,31.569,77.328,31.569c25.156-1.559,50.035-6.125,74.103-13.608
	c10.598-2.711,22.151-5.676,34.922-8.711c87.741-20.914,138.17-42.215,179.859-75.973c4.934-4,9.57-8.356,13.871-13.031
	c0.316-0.184,0.602-0.418,0.84-0.695c0.07-0.098,0-0.227,0.086-0.324h-0.004c16.859-19.056,27.828-42.59,31.574-67.754
	c0.266-1.477,0.504-2.785,0.742-3.887c1.875-7.492,5.344-14.496,10.164-20.531l2.281,0.371l2.398,5.113
	c0.359,0.77,0.988,1.387,1.766,1.727l12.238,5.41v0.004c0.445,0.203,0.93,0.305,1.418,0.297c1.363,0.008,2.602-0.785,3.168-2.027
	c0-0.109,0.238-0.551,0.492-1.129v0.004c18.659,4.613,37.702,7.523,56.891,8.699c1.488,0,2.891,0,4.199-0.145
	c1.238-0.094,2.332-0.832,2.883-1.945c16.238-36.039,20.137-76.43,11.086-114.91H1127.7z M768.05,336.54
	c-1.121,3.707-2.652,7.277-4.559,10.645c-1.938-0.508-3.844-1.137-5.699-1.883c2.98-4.172,5.508-8.645,7.547-13.344
	c0.727-1.656,1.344-3.355,1.848-5.09C767.854,330.048,768.147,333.294,768.05,336.54L768.05,336.54z M730.238,359.798
	c-5.988,1.922-12.484,1.508-18.177-1.164c-5.695-2.672-10.168-7.402-12.52-13.238c-2.063-4.895-4.559-10.801-7.008-16.332
	c-6-13.715-9.336-24.926,7.199-33.863c15.008-8.465,31.184-14.664,48-18.395c10.141-2.316,16.979-1.789,20.397,1.559h0.004
	c3.066,4.504,3.898,10.164,2.254,15.359l-1.766-0.445l-1.285-0.973l0.004,0.004c0.25-2.086,0.652-4.152,1.199-6.18
	c0.609-1.832-0.379-3.813-2.211-4.422c-1.836-0.609-3.813,0.379-4.426,2.215c-1.656,5.793-2.254,11.836-1.762,17.844
	c0.098,1.332,0.348,2.398,0.539,3.672v0.348c0.191,1.117,0.301,2.328,0.504,3.395c1.848,6.672,1.078,13.797-2.148,19.922
	c-2,4.875-4.691,9.438-7.992,13.547c-3.276-1.286-6.762-1.973-10.28-2.027h-4.801c-4.305-0.012-8.043,2.957-9.008,7.152
	c-0.961,4.195,1.109,8.5,4.988,10.367l1.117,0.551h-0.004C732.14,359.11,731.198,359.481,730.238,359.798L730.238,359.798z
	 M936.518,671.568v-0.004c-17.703-20.509-32.961-43.009-45.469-67.043c-8.887-16.066-20.016-30.781-33.059-43.703
	c-4.379-3.809-7.969-8.434-10.57-13.621c-3.227-5.27-7.645-12.492-14.988-22.598c-12.852-17.63-16.858-41.902-21.121-67.609
	c-1.066-6.492-2.148-13.055-3.395-19.609c-3.238-17.062-6-27.815-7.824-34.354l0.469,0.266l3.336-6.145
	c0,0-17.258-9.336-23.762-12.73v0.004c-6.25-3.945-11.52-9.258-15.41-15.543l-1.199-1.586v0.004
	c-4.555-5.855-11.016-9.93-18.262-11.52c-2.281-0.469-4.496-1.207-6.602-2.199l-3.602-1.789v0.004
	c-0.941-0.449-1.449-1.496-1.215-2.516c0.23-1.02,1.141-1.738,2.188-1.734h4.801c3.32,0.012,6.598,0.754,9.602,2.172
	c4.566,2.23,9.406,3.844,14.398,4.801c1.441,0.25,2.883-0.438,3.602-1.715c2.754-4.668,4.945-9.648,6.527-14.832
	c-0.219-10.137-1.656-20.207-4.273-30c-0.137-0.629-0.449-1.207-0.898-1.668l-2.27-2.328c-0.145-0.938-0.348-1.777-0.422-2.797
	v-0.422l8.039,6.059l0.004,0.004c1.004,0.77,1.738,1.836,2.102,3.047l6.457,21.602h-0.004c0.445,1.477,1.805,2.492,3.348,2.496
	c0.344,0,0.684-0.055,1.008-0.156c0.301-0.086,0.422-0.383,0.672-0.551l2.016,5.914c0.086,0.168,9,16.906,12.301,24.336
	c3.992,9.57,9.141,18.617,15.324,26.941c2.559,2.895,4.531,6.262,5.809,9.91c1.332,2.953,3.07,6.816,5.746,12.215
	c1.945,3.949,3.758,7.813,5.555,11.676h0.004c5.52,12.509,12.043,24.548,19.5,36c2.148,3.215,4.465,6.59,6.84,10.078v0.004
	c11.641,15.703,21.535,32.633,29.508,50.484c4.84,15.793,13.602,30.104,25.465,41.602c9.434,9.602,25.922,29.496,32.521,37.5
	l-1.586,0.66c-0.992,0.41-1.742,1.258-2.027,2.293c-0.27,1.039-0.063,2.145,0.566,3.012l7.813,10.535l-16.066,22.152h-0.004
	c-4.902,2.961-8.133,8.047-8.734,13.742c-0.434,8.004,5.473,15.897,17.138,23.172h-0.004c4.316,3.551,8.117,7.688,11.293,12.289
	l-2.723,2.723c-2.582-2.641-7.883-7.969-18.457-18.927L936.518,671.568z M558.658,412.368v-0.004
	c-2.336-6.57-1.133-13.883,3.191-19.355c19.824-32.293,68.901-49.199,69.504-49.402c8.988-3.359,34.656-10.105,45.266-0.961
	c5.113,4.414,6.48,12.383,4.066,23.723c-8.281,38.867-30.492,51.602-39.479,55.199l-0.492-4.883
	c-0.578-5.305-5.191-9.238-10.523-8.973c-5.332,0.27-9.527,4.645-9.574,9.98v1.199c-0.004,3.063,0.266,6.121,0.805,9.133
	l1.703,9.602l-2.977-2.305l-7.824-8.398c-3.945-4.25-9.305-6.914-15.07-7.5l-16.944-1.727v-0.004
	c-1.367-0.113-2.68,0.563-3.383,1.742c-0.902,1.66-1.035,3.633-0.363,5.398c0.156,0.422,0.574,0.719,0.816,1.105
	c-7.75-1.965-14.453-6.832-18.719-13.599L558.658,412.368z M634.892,513.168v-0.004c-2.68-3.66-4.836-7.672-6.406-11.93
	c-1.371-3.664-3.03-7.215-4.969-10.617c-5.629-10.129-14.594-23.902-16.979-27.527v-7.203c0.004-0.656-0.18-1.301-0.527-1.859
	l-4.969-7.883c0.527-0.039,1.039-0.203,1.488-0.48c0.754-0.539,1.262-1.355,1.41-2.27c0.148-0.918-0.074-1.852-0.617-2.602
	l-10.801-14.94l3.973,0.406v0.004c4.078,0.414,7.863,2.301,10.655,5.301l8.27,8.832l10.535,8.027v0.004
	c1.145,0.871,2.703,0.953,3.934,0.203c1.227-0.746,1.871-2.172,1.621-3.59l-3.266-18.359h0.004
	c-0.469-2.609-0.699-5.258-0.699-7.906v-1.203c0.035-1.621,1.32-2.941,2.941-3.023s3.031,1.102,3.227,2.715l0.926,9.227
	c0,0.145,0,0.277,0.086,0.422l-0.004-0.004c0.621,6.125,2.352,12.082,5.113,17.582c3.273,6.578,6.117,13.359,8.52,20.305
	c2.484,5.91,2.938,12.478,1.297,18.673c-1.379,3.957-1.027,8.313,0.961,12c17.056,25.301,36.449,48.948,57.922,70.633
	c9.285,8.059,17.574,17.194,24.695,27.215c3.434,4.523,7.453,9.828,13.043,16.727h0.004c12.016,15.345,28.855,26.188,47.797,30.781
	l2.566,0.781c13.504,7.582,25.941,16.918,36.996,27.766c8.27,7.199,16.078,13.923,22.188,18.349
	c13.34,8.215,27.688,14.668,42.684,19.203c9.289,3.313,18.07,6.445,25.105,9.781v-0.004c14.405,8.926,26.909,20.608,36.793,34.379
	c0.656,0.906,1.71,1.441,2.831,1.441c1.313,0.008,2.52-0.723,3.117-1.895c0.598-1.168,0.488-2.574-0.285-3.637
	c-5.43-7.297-11.409-14.168-17.895-20.543c5.367-0.559,10.785,0.324,15.69,2.563c4.911,2.234,9.133,5.742,12.234,10.156
	c8.125,13.848,3.086,36.168-13.199,58.272h-0.004c-12.957,17.246-32.461,28.375-53.901,30.754
	c-20.191,3.234-40.863-1.215-57.938-12.469c-6.016-5.227-10.328-12.133-12.387-19.832c-2.055-7.699-1.762-15.836,0.844-23.367
	c6.758,5.891,12,10.402,15.887,13.802h0.004c5.977,4.464,11.402,9.625,16.164,15.37c0.656,0.844,1.664,1.336,2.734,1.332
	c1.344,0.012,2.57-0.75,3.16-1.957c0.586-1.207,0.426-2.645-0.414-3.695c-5.016-6.105-10.742-11.586-17.062-16.332
	c-4.68-4.03-11.017-9.526-19.836-17.258v0.004c-29.07-26.082-55.672-54.793-79.466-85.766c-7.335-10.535-15.688-20.324-24.934-29.23
	c-7.879-4.066-14.793-9.77-20.281-16.729c-3.938-4.957-8.195-9.656-12.746-14.063c-4.656-4.801-10.44-10.62-17.94-18.961h0.004
	c-13.996-19.319-26.199-39.875-36.457-61.414c-5.941-11.327-10.646-20.315-13.441-24.469V513.168z M739.902,755.568l0.004-0.004
	c-6.699-16.938-12.271-34.302-16.685-51.97c-8.645-29.147-18.836-57.812-30.526-85.875c1.801,1.859,3.504,3.602,5.039,5.172h0.004
	c4.332,4.188,8.391,8.652,12.141,13.371c5.863,7.547,13.285,13.738,21.758,18.156c8.609,8.574,16.461,17.875,23.474,27.801
	c9.769,12.949,23.577,29.427,38.94,46.008h-0.004c-15.44,13.544-34.074,22.938-54.141,27.302L739.902,755.568z M518.202,593.938
	c22.688-13.137,46.215-24.762,70.43-34.801c5.117-1.938,10.125-4.164,14.988-6.672c7.832-5.098,17.309-7.02,26.508-5.375
	c9.691,1.496,18.254,7.129,23.473,15.431c7.234,14.34,15.798,27.969,25.582,40.702c14.224,33.353,26.668,67.431,37.285,102.101
	c4.398,17.526,9.891,34.762,16.453,51.602c-13.812,2.555-34.453,6-34.453,6c-14.397,2.398-30.637,5.902-36.444,7.199
	c-0.805-1.199-1.559-2.242-2.398-3.602c-12.898-20.272-28.349-38.805-45.974-55.141c-2.281-2.016-5.676-4.992-9.805-8.566
	c1.367-21.355,0.219-42.801-3.418-63.888c-1.648-13.026-0.473-26.254,3.441-38.784c0.316-0.895,0.254-1.879-0.168-2.727
	c-0.426-0.844-1.176-1.484-2.078-1.77c-0.906-0.281-1.887-0.188-2.719,0.27c-0.832,0.453-1.441,1.223-1.695,2.137
	c-2.688,9.055-4.301,18.397-4.797,27.828c-0.371,0.203-0.816,0.238-1.105,0.59c-13.723,11.065-29.113,19.887-45.602,26.125
	c-13.031-11.242-24.603-21.238-31.199-27.023v-0.004c-6.207-6.047-13.738-10.566-21.996-13.199
	c8.121-6.738,16.707-12.897,25.69-18.43L518.202,593.938z M592.698,634.918c0.172,1.941,0.477,3.871,0.914,5.77
	c3.262,18.613,4.469,37.527,3.598,56.402c-11.074-9.602-25.355-21.927-39.267-33.927l-6.277-5.41h0.004
	C566.197,651.78,579.972,644.116,592.698,634.918L592.698,634.918z M396.548,637.918c-3.781,0.793-7.871,1.645-12.215,2.52
	c3.023-2.914,5.914-5.879,7.922-7.992C393.587,634.074,395.192,636.043,396.548,637.918L396.548,637.918z M367.185,585.727
	c0.168,2.578-0.035,5.164-0.598,7.68c-1.551,5.969-0.688,12.306,2.398,17.642c2.887,4.613,6.398,8.801,10.441,12.444
	c1.957,1.945,3.898,4.044,5.785,6.169h-0.004c-4.555,4.973-9.543,9.53-14.902,13.62c-8.508,1.727-17.112,3.527-25.465,5.363
	c0.523-5.375,0.371-10.793-0.457-16.129c-0.586-1.949-1.281-3.871-2.074-5.746c-4.098-8.309-5.898-17.559-5.219-26.797
	c3.309-10.004,7.945-19.516,13.785-28.285c0.996-1.422,2.59-2.309,4.324-2.41c1.73-0.102,3.414,0.598,4.57,1.895
	C363.478,575.289,366.036,580.309,367.185,585.727L367.185,585.727z M330.247,611.274l0.004,0.004
	c1.227,6.195,3.09,12.245,5.566,18.059c0.684,1.613,1.281,3.258,1.801,4.934c0.645,5.305,0.68,10.668,0.094,15.984
	c-6.215,1.441-12.191,2.867-17.352,4.297c-8.902,2.473-19.199,4.801-29.734,6.793v-0.004c15.062-15.134,28.354-31.931,39.625-50.063
	L330.247,611.274z M306.368,546.403c29.125-0.445,37.848,6.395,40.522,10.414v0.004c1.676,2.469,2.066,5.594,1.047,8.397
	c-1.156,0.727-2.168,1.665-2.977,2.762c-6.105,9.211-10.948,19.199-14.401,29.699c-1.703,2.832-33.672,55.513-55.199,66.301
	c-14.742,2.613-29.734,3.547-44.688,2.773c-7.82-0.09-15.465-2.355-22.066-6.555c0.07-0.563,0.238-1.078,0.289-1.645h-0.004
	c0.086-0.934-0.215-1.867-0.828-2.578l-12.84-14.854c-0.992-1.125-2.594-1.496-3.98-0.926c-1.266,0.555-2.078,1.801-2.078,3.18
	c-6.938-6.059-13.23-12.82-18.781-20.172c-3.457-5.195-5.684-11.105-6.516-17.293c-0.57-4.102-1.875-8.066-3.852-11.711
	c18.852-9.336,98.402-47.277,146.35-47.797H306.368z M184.978,689.203c-3.336,3.012-10.801,10.922-15.266,15.684l-3.852-8.074
	c3.012-4.016,6.258-7.852,9.723-11.483c8.844-9.723,15.449-21.267,19.355-33.816l6.77,7.859h-0.004
	c-2.34,11.441-8.188,21.867-16.727,29.832L184.978,689.203z M88.404,608.805c-0.684-3.602,3.086-7.309,6.348-9.742v-0.004
	c5.707-5.516,13.695-8,21.527-6.695c2.781,1.262,4.727,3.863,5.148,6.891c-0.625,1.535-1.027,3.148-1.203,4.797
	c-0.383,5.262-0.383,10.543,0,15.806c-5.703,1.305-11.664,0.98-17.195-0.934c-8.148-2.234-13.883-6.22-14.629-10.142L88.404,608.805
	z M73.377,658.52c-1.18-3.016-0.617-6.438,1.465-8.914c8.355-8.969,17.754-16.905,27.996-23.641
	c3.719,0.965,7.535,1.496,11.375,1.582c2.188,0.012,4.367-0.238,6.492-0.742c1.602,14.854,5.48,29.379,11.496,43.055
	c3.016,7.246,4.133,15.138,3.242,22.935c-0.18,4.297-0.129,8.605,0.156,12.897v0.371C92.384,691.786,77.986,670.34,73.377,658.52
	L73.377,658.52z M182.637,725.887c-5.41,4.203-11.93,6.738-18.758,7.297c-4.668,1.07-9.57,0.125-13.512-2.602
	c-6.18-4.98-7.078-16.233-7.727-24.445l-0.086-1.008c-0.25-4.055-0.297-8.121-0.129-12.18c0.926-8.934-0.445-17.957-3.984-26.211
	c-8.516-19.574-12.379-40.852-11.293-62.172c0.453-4.957,4.242-8.961,9.168-9.695c4.133-0.625,8.336-0.625,12.469,0
	c5.664,0.84,6.625,4.414,8.242,12.434c1.031,7.184,3.68,14.039,7.742,20.052c6.672,8.852,14.363,16.883,22.918,23.93
	c-3.719,10.867-9.605,20.863-17.305,29.387c-4.219,4.363-8.066,9.074-11.508,14.078c-0.598,1.004-0.656,2.242-0.156,3.297
	l6.867,14.474c0.512,1.035,1.488,1.766,2.625,1.957c0.176,0.012,0.355,0.012,0.531,0c0.973,0,1.906-0.41,2.566-1.129
	c0.07-0.07,3.77-4.078,7.945-8.484c0.016,2.397,0.344,4.78,0.969,7.094c2.195,4.387,6.176,7.617,10.922,8.855
	c-3.027,1.355-5.883,3.07-8.508,5.098L182.637,725.887z M209.035,737.203c-0.848,0.676-2.031,0.742-2.949,0.168
	c-2.023-1.039-2.969-3.41-2.223-5.555c0.426-2.074,0.465-4.211,0.121-6.301c1.402,0.098,3.277,0.277,5.746,0.551
	c1.68,0.191,1.945,0.828,2.074,1.199l0.004,0.004c0.453,3.566-0.57,7.164-2.832,9.957L209.035,737.203z M205.434,717.488
	c-9.035-1.586-17.797-5.09-18.48-7.453h0.004c-0.914-4.262-0.957-8.668-0.121-12.945c1.094-1.078,2.09-2.063,2.82-2.711v-0.004
	c7.758-7.512,13.664-16.719,17.258-26.902c7.137,3.629,14.949,5.738,22.941,6.191h1.094c-3.031,14.41-2.055,29.375,2.82,43.273
	c-9.445-0.574-18.922-0.383-28.332,0.574L205.434,717.488z M790.054,902.628c-12.806,3.059-24.396,6-35.039,8.746
	c-66.07,16.957-93.435,24-145.29-16.621v0.004c-17.978-16.608-33.488-35.707-46.055-56.715
	c-11.06-18.383-23.177-36.109-36.289-53.086c-2.965-3.898-6-7.957-9.602-12.758c-15.087-20.474-26.605-38.052-38.063-55.754
	c-1.957-3.012-3.602-5.832-5.195-8.398c-7.801-12.949-13.453-22.273-28.895-14.398c-1.43,0.73-3.098,1.68-5.039,2.785
	c-19.066,10.871-63.72,36.313-184.8,22.801c-0.492-0.07-6.145-0.926-14.16-1.633c-5.664-13.766-6.922-28.944-3.602-43.452
	c28.496-0.801,56.785-5.106,84.23-12.816c15.602-4.309,37.691-8.785,57.227-12.73c15.793-3.203,29.438-6,37.105-8.102
	c5.66-1.531,11.242-3.352,16.715-5.461c3.457-1.41,7.031-2.516,10.68-3.313c5.094-1.27,10.027-3.125,14.699-5.52
	c4.613-2.344,9.461-4.199,14.461-5.53l2.039-0.551c10.117-2.484,17.449-4.309,34.715,10.801
	c8.641,7.547,25.681,22.262,43.414,37.559c22.935,19.789,47.039,40.586,55.668,48.228h0.004
	c17.164,15.918,32.207,33.979,44.763,53.737c5.477,10.173,12.895,19.177,21.84,26.496c1.645,0.93,3.734,0.355,4.68-1.285
	c0.984-1.66,0.449-3.801-1.203-4.801c-4.914-4.184-9.191-9.063-12.695-14.483c7.199-1.586,20.902-4.465,33.238-6.504
	c0,0,25.512-4.32,38.867-6.875c3.602-0.684,7.141-1.609,10.715-2.629h0.004c2.008,19.223,6.402,38.112,13.094,56.245
	c6.25,21.863,17.474,41.984,32.785,58.798c7.105,8.074,14.953,16.164,19.69,20.952c-7.91,2.161-16.082,4.211-24.711,6.266
	L790.054,902.628z M967.184,828.034c-35.398,28.655-77.484,48.18-144.55,66.336c-3.527-3.516-13.466-13.523-22.246-23.508h-0.004
	c-14.75-16.146-25.521-35.517-31.449-56.566c-6.68-18.039-10.992-36.867-12.828-56.016c15.81-5.277,30.363-13.754,42.754-24.902
	c11.271,11.93,23.195,23.688,34.97,34.129c-3.559,9.207-4.228,19.281-1.919,28.875c2.313,9.598,7.492,18.263,14.855,24.836
	c14.547,10.215,32.008,15.445,49.772,14.906c4.5,0,8.992-0.297,13.453-0.891c21.603-2.551,41.435-13.188,55.513-29.771
	c3.699,4.661,7.945,8.859,12.647,12.505C974.691,821.53,971.031,824.89,967.184,828.034L967.184,828.034z M1011.835,746.339
	c-0.238,1.199-0.492,2.508-0.77,4.043h0.004c-3.41,23.012-13.211,44.603-28.284,62.316c-4.891-3.699-9.211-8.094-12.828-13.043
	c16.801-23.763,21.526-48.109,12.227-63.949c-7.297-12.435-22.031-18-41.473-15.974c-4.059-3.401-8.488-6.344-13.199-8.769
	c-1.359-1.599-2.566-3.324-3.598-5.148c5.617,0.957,11.281,1.629,16.965,2.016h0.793c3.738-0.012,7.316-1.5,9.961-4.141
	l12.098-12.109l-0.004,0.004c0.23-0.227,0.426-0.488,0.578-0.77c0.926-1.668,3.371-6.059-13.766-20.953
	c-9.602-6-14.578-12-14.305-17.172h0.004c0.5-3.496,2.582-6.57,5.648-8.328c0.52-0.25,0.969-0.625,1.309-1.09l18-24.852
	c0.906-1.23,0.906-2.902,0-4.129l-6.684-9.023l12.086-5.09c5.637-0.844,10.479-4.445,12.91-9.602
	c1.668-2.742,3.551-5.352,5.629-7.797c5.773-5.793,12.383-10.688,19.608-14.521l5.664,8.594v-0.004
	c0.887,1.328,2.555,1.895,4.066,1.379c9.441-3.141,19.414-4.387,29.341-3.672c-1.734,2.258-3.816,4.223-6.168,5.82
	c-4.527,3.098-8.359,7.105-11.259,11.763c-23.809,39.336,3.191,63.815,3.469,64.055c0.59,0.527,1.336,0.84,2.125,0.891
	c1.645,0.098,6.625,0.961,7.957,3.504c1.043,2.016-0.395,5.148-1.379,6.875h-0.004c-2.859,3.027-6.52,5.18-10.559,6.203
	c-4.039,1.02-8.285,0.871-12.238-0.434c-0.531-0.332-1.016-0.738-1.441-1.199c0,0,0.434-1.031,3.602-2.398
	c0.871-0.367,1.555-1.07,1.898-1.949c0.344-0.883,0.313-1.863-0.078-2.723c-0.395-0.859-1.117-1.523-2.008-1.84
	s-1.871-0.258-2.719,0.164c-4.883,2.23-7.453,5.051-7.598,8.398h0.004c0.086,3.031,1.75,5.801,4.391,7.297
	c-2.102,4.043-4.98,7.633-8.473,10.559c-1.578,1.105-1.965,3.281-0.863,4.859l8.398,12.228v0.004c0.609,0.875,1.578,1.426,2.641,1.5
	c4.285,0.305,8.59-0.227,12.672-1.563c-2.176,2.094-4.594,3.918-7.199,5.438c-0.93,0.492-1.59,1.371-1.801,2.398
	c-0.219,1.02,0.027,2.078,0.672,2.895l4.945,6.254v-0.004c-5.242,6.734-8.996,14.5-11.016,22.789L1011.835,746.339z
	 M1111.147,738.683c-18.91-0.941-37.688-3.707-56.063-8.27c7.93-23.758,11.228-48.819,9.707-73.819
	c-0.035-0.93-0.445-1.809-1.137-2.426c-0.691-0.621-1.609-0.934-2.535-0.863c-1.926,0.102-3.402,1.746-3.301,3.672
	c1.535,25.487-2.141,51.022-10.801,75.047l-7.754-3.434l-2.566-5.594V723c-0.492-1.051-1.469-1.789-2.613-1.98l-4.801-0.793
	l-3.434-4.356c9.613-7.125,16.974-16.862,21.203-28.055c0.77-1.77-0.039-3.828-1.809-4.598c-1.77-0.766-3.828,0.043-4.598,1.813
	c-2.293,4.703-5.828,8.684-10.228,11.521c-4.395,2.836-9.48,4.41-14.711,4.563l-5.664-8.172c3.563-3.43,6.484-7.465,8.629-11.918
	c1.352,0.227,2.723,0.352,4.094,0.371c8.152-0.246,15.867-3.754,21.406-9.742c3.227-4.051,3.996-9.536,2.004-14.316
	c-2.816-4.145-7.383-6.758-12.383-7.094c-3.898-4.008-20.103-23.473-1.344-54.457v0.004c2.449-3.898,5.688-7.242,9.504-9.816
	c3.664-2.484,6.723-5.766,8.938-9.602c2.129,0.855,4.078,2.102,5.75,3.672c1.387,1.344,3.598,1.309,4.938-0.078
	c1.344-1.383,1.309-3.594-0.078-4.938c-13.117-12.707-38.398-6.648-46.633-4.211l-8.82-13.355
	c13.629-9.078,30.344-12.27,46.358-8.855c16.742,5.313,30.98,16.539,40.056,31.582c0.148,0.27,0.336,0.516,0.551,0.734
	c14.069,13.188,23.793,30.349,27.862,49.199c8.266,36.313,4.84,74.309-9.777,108.56L1111.147,738.683z"/>
<path d="M732.78,316.12c0,4.09-3.316,7.402-7.406,7.402s-7.402-3.313-7.402-7.402s3.313-7.406,7.402-7.406
	S732.78,312.03,732.78,316.12"/>
<path d="M582.6,401.9c1.113,0.371,2.281,0.566,3.453,0.578h0.887h0.004c2.023-0.07,3.805-1.359,4.5-3.266
	c0.926-2.965-1.402-6-5.664-7.321s-7.895-0.227-8.844,2.746v0.004c-0.246,1.156-0.129,2.356,0.336,3.446
	C578.521,399.967,580.416,401.322,582.6,401.9L582.6,401.9z"/>
<path d="M646.04,413.32c1.934-0.094,3.793-0.762,5.34-1.922c3.672-2.555,5.004-6.121,3.238-8.676h0.004
	c-0.773-0.891-1.801-1.531-2.941-1.836c-2.262-0.16-4.504,0.496-6.324,1.848c-1.219,0.824-2.262,1.887-3.059,3.121
	c-1.188,1.645-1.254,3.844-0.168,5.555C643.028,412.664,644.497,413.383,646.04,413.32L646.04,413.32z"/>
<path d="M109.84,615.89c2.02,0.469,4.145-0.012,5.766-1.305c1.621-1.289,2.566-3.25,2.566-5.324s-0.945-4.035-2.566-5.324
	s-3.746-1.77-5.766-1.305c-2.02-0.465-4.145,0.016-5.766,1.305s-2.566,3.25-2.566,5.324s0.945,4.035,2.566,5.324
	C105.695,615.878,107.82,616.358,109.84,615.89z"/>
<path d="M99.602,664.09c-1.574-0.984-3.473-1.297-5.277-0.867s-3.359,1.563-4.324,3.145c-0.793,1.875-0.516,4.027,0.719,5.641
	c1.012,1.363,2.359,2.441,3.914,3.121c1.277,0.594,2.668,0.91,4.078,0.922c0.289,0.02,0.578,0.02,0.863,0
	c2.027-0.125,3.828-1.336,4.707-3.168c0.57-1.785,0.398-3.73-0.484-5.387C102.918,665.84,101.403,664.609,99.602,664.09
	L99.602,664.09z"/>
<path d="M317.06,583.33c0.598,0.223,1.227,0.34,1.863,0.336c1.235-0.039,2.43-0.457,3.419-1.199c1.28-0.957,2.261-2.262,2.82-3.758
	c0.773-1.898,0.773-4.027,0-5.926c-0.563-1.328-1.637-2.375-2.978-2.906c-1.78-0.641-3.765-0.336-5.265,0.816
	c-2.578,1.965-3.836,5.211-3.254,8.402C313.986,580.998,315.271,582.604,317.06,583.33L317.06,583.33z"/>
<path d="M221.24,657.48c0.398,0.055,0.801,0.082,1.203,0.082c2.625-0.086,5.148-1.023,7.199-2.665
	c1.879-1.391,3.336-3.28,4.199-5.456c1.051-2.266,0.762-4.926-0.746-6.915c-1.508-1.988-3.992-2.98-6.453-2.578
	c-4.723,0.59-8.761,3.676-10.574,8.074c-0.961,2.286-0.68,4.906,0.746,6.938C217.904,656.347,219.494,657.25,221.24,657.48
	L221.24,657.48z"/>
</svg>
