<?xml version="1.0" encoding="utf-8"?>
<!-- Generator: Adobe Illustrator 16.0.0, SVG Export Plug-In . SVG Version: 6.00 Build 0)  -->
<!DOCTYPE svg PUBLIC "-//W3C//DTD SVG 1.1//EN" "http://www.w3.org/Graphics/SVG/1.1/DTD/svg11.dtd">
<svg version="1.1" id="Layer_1" xmlns="http://www.w3.org/2000/svg" xmlns:xlink="http://www.w3.org/1999/xlink" x="0px" y="0px"
	 width="918.231px" height="995.759px" fill="#104e64e6" stroke="#104e64e6" stroke-width="8" viewBox="185.126 102.609 918.231 995.759"
	 enable-background="new 185.126 102.609 918.231 995.759" xml:space="preserve">
<path d="M1096.8,468.85c-15.301-58.116-82.668-82.332-138.3-75.695c-28.125,2.465-56.406,2.59-84.551,0.371
	c-0.91-6.559-3.848-12.664-8.402-17.473l-8.148-8.676c-3.887-4.137-8.801-7.172-14.242-8.793l-12.312-3.602
	c-2.535-5.695-6.426-10.684-11.341-14.52c-4.66-3.578-10.077-6.043-15.84-7.199l-20.062-3.984c-1.309-2.316-2.855-4.484-4.621-6.469
	l-10.98-12.191c-5.438-5.98-12.651-10.059-20.578-11.629l-29.819-5.855c-6.871-7.063-15.957-11.555-25.742-12.723l-20.305-2.484
	v0.004c-4.816-0.574-9.672,0.668-13.617,3.488c-3.945,2.816-6.699,7.008-7.719,11.75c-24-16.344-65.773-48.48-106.5-79.789
	c-34.646-26.629-70.465-54.168-95.185-71.879c-56.746-40.68-102.79-55.199-183.5-15.359c-59.832,29.496-86.23,80.855-78.637,152.65
	c5.125,48.145,66.098,180.39,89.879,223.86h0.004c9.211,18.551,22.008,35.09,37.656,48.66
	c17.695,16.617,34.473,34.184,50.266,52.621c55.801,64.152,166.97,130.729,181.271,139.18c6.383,11.974,9.172,25.539,8.027,39.06
	c-2.348,16.616-2.348,33.483,0,50.102c0,21.168-1.766,24.539-13.199,46.488c-2.953,5.641-6.492,12.406-10.801,20.914
	c-20.398,40.905-116.141,187.93-117.11,189.41v0.004c-1.809,2.773-1.023,6.492,1.754,8.301c2.777,1.813,6.496,1.027,8.305-1.75
	c3.961-6.07,97.043-149.07,117.79-190.591c4.211-8.397,7.727-15.145,10.645-20.733h-0.004
	c10.566-15.586,15.677-34.234,14.531-53.027c-2.152-15.729-2.152-31.684,0-47.414c3.023-21.19-5.797-39.491-16.008-60.707
	c-3.602-7.453-7.379-15.323-10.906-23.879c-7.035-16.487-9.32-34.612-6.602-52.332c0.613-9.793,1.367-21.973,1.367-38.207
	l0.004-0.004c-0.887-20.983,1.781-41.969,7.895-62.062c2.184-7.789,4.668-16.621,7.141-29.138
	c6.961-35.172,16.066-74.594,17.387-80.229c2.734-5.484,22.355-44.879,33.406-69.602h0.004c1.367-3.078,3.988-5.426,7.199-6.441
	c3.109-0.992,6.5-0.586,9.289,1.113c5.379,2.813,9.766,7.219,12.556,12.609c2.793,5.395,3.855,11.516,3.043,17.535
	c-0.793,7.414-4.285,22.801-5.664,28.801c-7.957,15.603-20.281,36.887-31.199,55.801c-11.902,20.578-22.176,38.398-25.021,45.48
	c-3.945,10.397-7.332,21.004-10.151,31.762c-0.402,1.543-0.172,3.18,0.637,4.555c0.809,1.371,2.129,2.367,3.672,2.766
	c3.207,0.828,6.477-1.102,7.309-4.309c2.699-10.262,5.926-20.379,9.672-30.312c2.531-6.324,13.094-24.603,24.276-43.945
	c11.184-19.343,23.763-41.113,32.004-57.324c0.371-0.863,9.227-21.395,15.191-39.277c3.516-10.57,8.605-26.184,12.168-37.199
	l-0.004,0.004c2.973-9.148,4.48-18.703,4.477-28.32v-6.145c-0.055-4.297-1.551-8.449-4.246-11.797
	c-0.141-0.289-0.305-0.566-0.492-0.828c-0.059-0.07-0.086-0.168-0.145-0.227c-2.016-2.309-2.402-5.621-0.973-8.336
	c1.434-2.711,4.383-4.262,7.43-3.902l20.305,2.473v-0.004c8.602,1.059,16.384,5.633,21.492,12.637
	c5.109,7.004,7.082,15.809,5.457,24.324c-5.027,26.102-14.305,73.008-20.172,94.935l-2.027,19.858
	c-0.332,3.297,2.074,6.238,5.371,6.57s6.238-2.074,6.57-5.371l1.801-18.84c5.785-21.336,15.146-68.566,20.207-94.801
	c1.551-8.203,0.684-16.684-2.496-24.406l18.406,3.602c5.395,1.074,10.309,3.844,14.016,7.906l11.063,12.203h0.004
	c4.152,4.602,6.504,10.543,6.621,16.742c0.191,8.941,0,17.555-0.492,25.609l0.004-0.004c-2.453,19.844-6.082,39.523-10.875,58.934
	c-1.934,8.762-3.707,16.801-4.883,22.883c-2.383,10.688-3.527,21.609-3.406,32.559c0.195,3.164,2.824,5.633,6,5.625h0.359
	c3.305-0.191,5.828-3.027,5.641-6.336c-0.02-9.938,1.055-19.852,3.203-29.555c1.199-6,2.914-13.922,4.801-22.559
	c4.941-20.008,8.66-40.297,11.133-60.758c0.527-8.398,0.707-17.363,0.516-26.652c-0.074-1.652-0.258-3.301-0.551-4.93l13.199,2.605
	v-0.004c5.926,1.164,11.266,4.352,15.102,9.016s5.934,10.516,5.938,16.559v50.52c0.023,3.691-0.527,7.363-1.633,10.883
	c-7.168,21.891-12.973,44.199-17.391,66.805c-0.254,1.57,0.125,3.18,1.055,4.469c0.93,1.293,2.332,2.164,3.902,2.418
	c0.324,0.047,0.648,0.074,0.973,0.074c2.938-0.004,5.441-2.133,5.918-5.031c4.305-22.039,9.977-43.793,16.977-65.133
	c1.496-4.699,2.25-9.602,2.246-14.535v-50.52c0-0.73-0.215-1.441-0.266-2.184l5.605,1.668c3.41,1.023,6.488,2.926,8.926,5.52
	l8.16,8.676c3.715,3.926,5.676,9.188,5.438,14.582c-0.66,15.504-2.531,53.785-5.461,74.305c-0.758,5.27-1.379,10.224-1.98,14.931
	v-0.004c-0.844,17.022-5.074,33.702-12.44,49.069c-4.531,10.855-7.305,22.363-8.223,34.09c-4.305,38.824-16.332,76.392-35.375,110.5
	c-10.513,18.181-19.32,32.259-27.086,44.688c-20.953,33.602-31.466,50.397-34.453,82.246l-6.289,40.633l0.004,0.004
	c-1.5,9.438-4.633,18.547-9.25,26.914c-16.422,31.227-28.836,64.395-36.961,98.723l-31.441,105.101
	c-0.945,3.176,0.859,6.516,4.035,7.465c0.555,0.164,1.133,0.25,1.715,0.25c2.652,0,4.988-1.742,5.746-4.281l31.512-105.391v-0.004
	c7.895-33.395,19.966-65.66,35.931-96.035c5.277-9.586,8.855-20.012,10.569-30.815l6.349-40.992c0.547-6.066,1.543-12.082,2.977-18
	c54-8.473,136.699-28.715,242.17-101.8c90.207-62.578,124.67-137.101,102.41-221.54L1096.8,468.85z M656.51,321.08
	c0.008,8.355-1.305,16.66-3.887,24.609c-3.086,9.492-7.199,22.297-10.608,32.398v0.004c-2.934-11.039-10.224-20.41-20.195-25.969
	c-5.734-3.473-12.685-4.313-19.082-2.305c-6.512,2.031-11.836,6.766-14.613,12.996c-11.723,26.184-33.289,69.276-33.504,69.707
	c-0.207,0.422-0.371,0.863-0.48,1.32c-0.098,0.434-10.117,43.319-17.629,81.323c-2.398,12-4.801,20.652-6.926,28.224h0.004
	c-6.422,21.147-9.262,43.223-8.402,65.305c0,15.875-0.742,27.84-1.344,37.465c-2.887,19.523-0.301,39.461,7.477,57.603
	c2.855,6.926,5.867,13.344,8.832,19.535c-35.617-22.129-118.64-76.402-162.95-127.33c-16.051-18.728-33.098-36.574-51.069-53.461
	c-14.699-12.699-26.708-28.207-35.329-45.613c-23.461-42.853-83.508-172.8-88.477-219.36c-7.199-67.199,16.414-113.21,72-140.64
	c75.672-37.332,117.04-24.457,171.2,14.398c24.551,17.594,60.289,45.07,94.801,71.641c50.398,38.746,97.945,75.266,118.55,87.602
	c1.008,1.258,1.566,2.816,1.586,4.43L656.51,321.08z M987.6,680.46c-99.66,69.06-178.43,90-231.31,98.855
	c7.113-16.281,15.727-31.863,25.727-46.548c7.43-11.891,16.668-26.688,27.289-45.034v-0.004
	c19.728-35.427,32.246-74.406,36.841-114.7c0.871-10.271,3.176-20.367,6.852-30c8.141-16.707,12.836-34.879,13.812-53.435
	c0.59-4.645,1.199-9.539,1.957-14.733c2.617-18.336,4.355-49.129,5.293-69.301l-0.004-0.004c28.613,2.242,57.363,2.074,85.945-0.492
	c50.578-6.133,111.7,15.289,125.27,66.84c21.06,80.16-10.887,148.38-97.668,208.55L987.6,680.46z"/>
<path d="M1011,499.67c-6.387,0-12.512-2.539-17.027-7.055c-4.52-4.516-7.055-10.641-7.055-17.027c0-6.391,2.535-12.516,7.055-17.03
	c4.516-4.516,10.642-7.055,17.027-7.055c6.387,0,12.516,2.539,17.031,7.055s7.055,10.641,7.055,17.03
	c-0.008,6.383-2.547,12.505-7.063,17.021S1017.386,499.663,1011,499.67L1011,499.67z M1011,463.502
	c-4.887,0-9.293,2.945-11.164,7.461s-0.836,9.711,2.621,13.168s8.652,4.488,13.168,2.621c4.516-1.871,7.461-6.277,7.461-11.164
	C1023.078,468.916,1017.672,463.51,1011,463.502z"/>
<path d="M484.88,417.01c-1.488,0.004-2.977-0.137-4.438-0.418c-6.27-1.184-11.815-4.805-15.414-10.074
	c-3.602-5.266-4.965-11.75-3.789-18.02c1.133-6.02,4.52-11.379,9.465-14.992c4.949-3.609,11.086-5.199,17.164-4.445
	c6.078,0.758,11.641,3.801,15.551,8.516c3.914,4.711,5.883,10.738,5.504,16.852c-0.375,6.114-3.066,11.855-7.527,16.051
	c-4.461,4.199-10.352,6.539-16.477,6.543L484.88,417.01z M473.001,390.694c-0.613,3.145,0.055,6.407,1.859,9.055
	c1.801,2.648,4.59,4.465,7.742,5.047c4.801,0.922,9.688-1.145,12.375-5.234c2.684-4.086,2.641-9.391-0.113-13.435
	c-2.75-4.043-7.672-6.031-12.457-5.027C477.618,382.1,473.903,385.885,473.001,390.694L473.001,390.694z"/>
<path d="M339.36,203.11c-1.5-0.004-3-0.145-4.477-0.422c-6.273-1.18-11.824-4.801-15.431-10.07
	c-3.605-5.27-4.973-11.758-3.801-18.031c1.172-6.277,4.789-11.832,10.051-15.445c5.254-3.621,11.734-4.988,18-3.793
	c7.938,1.48,14.609,6.84,17.763,14.273c3.148,7.438,2.367,15.957-2.09,22.691c-4.453,6.734-11.988,10.789-20.063,10.797
	L339.36,203.11z M339.274,166.93h0.004c-5.801,0.012-10.771,4.148-11.832,9.852c-0.922,4.805,1.145,9.688,5.23,12.375
	c4.09,2.684,9.395,2.641,13.438-0.113c4.043-2.75,6.027-7.672,5.027-12.457c-1-4.789-4.789-8.504-9.598-9.406
	c-0.746-0.156-1.504-0.238-2.266-0.25H339.274z"/>
<path d="M369.21,499.67c-7.172,0.016-13.977-3.168-18.562-8.68c-4.586-5.512-6.48-12.781-5.16-19.832
	c1.129-6.023,4.511-11.387,9.456-15.004c4.945-3.613,11.087-5.211,17.164-4.457c6.082,0.75,11.648,3.789,15.566,8.5
	s5.895,10.738,5.523,16.852c-0.371,6.117-3.055,11.863-7.512,16.066c-4.457,4.207-10.348,6.555-16.477,6.566V499.67z
	 M357.28,473.365h0.004c-0.922,4.805,1.145,9.691,5.23,12.375c4.09,2.688,9.395,2.645,13.438-0.109
	c4.044-2.754,6.027-7.672,5.027-12.461s-4.789-8.5-9.598-9.402c-3.145-0.617-6.402,0.055-9.051,1.855
	c-2.648,1.805-4.465,4.594-5.047,7.742H357.28z"/>
</svg>
