<?xml version="1.0" encoding="utf-8"?>
<!-- Generator: Adobe Illustrator 16.0.0, SVG Export Plug-In . SVG Version: 6.00 Build 0)  -->
<!DOCTYPE svg PUBLIC "-//W3C//DTD SVG 1.1//EN" "http://www.w3.org/Graphics/SVG/1.1/DTD/svg11.dtd">
<svg version="1.1" id="Layer_1" xmlns="http://www.w3.org/2000/svg" xmlns:xlink="http://www.w3.org/1999/xlink" x="0px" y="0px"
	 width="1080.56px" height="611.585px" viewBox="60.688 294.29 1080.56 611.585" fill="#104e64e6" 
	 enable-background="new 60.688 294.29 1080.56 611.585" xml:space="preserve">
<path d="M1130.3,746.28c-1.441-3.961-36.479-98.642-212.04-190.08c-2.398-1.078-58.559-26.879-150.479-24.121
	c-0.48,0-48.359-3.602-100.32-26.16c0.84-16.078-5.879-41.52-36-58.32l-1.078-4.801c-1.559-7.078-6.238-13.077-12.719-16.319
	l-83.523-42.48c-7.441-3.719-15.961-3.48-22.922,0.359c-22.44-16.441-99.121-67.559-133.92-28.922
	c-5.762,6.359-9.359,18-4.559,29.52c4.68,11.398,18.719,25.32,59.281,27.602c14.641,0.84,23.641,3.719,40.68,13.32
	c-35.039,40.319-83.281,97.319-99.479,123.12c-0.238,0.238-16.199,24.479-71.16,6.121c-23.16-31.32-46.32-74.521-61.199-172.081
	c-10.441-69.238-42.121-84.84-60-87.961c-21.719-3.84-40.559,6.961-47.16,19.199c-14.879,27.48,4.922,47.52,20.762,63.719
	c7.559,7.68,15.359,15.602,19.922,23.879c15.121,27.358,10.078,79.198,9.238,87.479c-3.238,7.32-24.121,53.039-63.238,91.199
	c-2.762,2.762-66.84,69.719-59.039,176.04c2.039,26.879,10.68,51.84,25.199,72.359c21.719,30.719,69.961,77.038,163.68,76.922
	c16.078,0,33.359-1.32,52.199-4.32c20.879-3.359,42-8.879,63-16.078c0.84,0.359,1.68,0.719,2.52,0.961l0.719-2.039
	c8.398-3,16.801-6.238,25.199-9.84c25.077-10.801,75.479-28.199,132.6-22.681c0.719,0,70.68-0.48,243.36,30.359
	c3.602,0.602,89.762,15.84,166.8,5.281c29.52-4.078,74.039,0.121,125.52,11.762c22.56,5.16,42.238,3.121,58.56-5.879
	c2.281-1.32,4.078-3.238,5.039-5.641c3.359-7.926,30.121-77.047,4.563-141.479L1130.3,746.28z M433.1,394.56
	c-34.077-1.922-41.879-12.238-43.68-16.559c-1.922-4.801,0.121-9.238,1.32-10.68c21-23.398,79.68,10.078,107.28,29.641
	c-3.84,4.32-8.281,9.359-13.199,15C463.22,399.482,451.579,395.642,433.1,394.56L433.1,394.56z M379.1,574.08l36.841-52.32h-0.121
	c33.602-42.121,83.762-99.358,102.239-120.12c1.922-2.281,5.281-2.879,7.922-1.441l83.398,42.48c0.238,0.121,0.359,0.359,0.602,0.48
	l-122.64,157.2c-1.68,2.281-3.84,3.84-6.121,5.039c-3.359,1.68-7.078,2.398-10.802,1.68l-86.28-17.879
	c-1.801-0.359-3.121-1.32-4.078-2.281c-1.199-1.199-1.922-2.52-2.16-3.238c-1.199-3.238-0.84-6.84,1.199-9.602L379.1,574.08z
	 M167.42,365.16c-16.801-17.039-25.922-27.48-17.762-42.48c3.121-5.762,14.641-12.359,28.32-9.961
	c22.32,3.961,38.879,30.48,45.359,72.961c12.121,79.801,29.879,124.919,48.84,156.72c-1.441-0.719-2.762-1.32-4.199-2.039
	c-0.359-0.238-34.801-19.32-65.879-51.84c1.441-15,4.922-65.281-11.641-95.281c-5.996-10.68-14.637-19.559-23.039-28.078
	L167.42,365.16z M527.42,833.64c-60.121-5.762-113.76,12.603-140.52,24.121c-4.199,1.801-8.52,3.359-12.72,5.039
	c-157.68-56.879-225.72-248.88-234.6-276.239c27.602-28.802,45.602-59.763,54.48-77.281c18.238,25.199,63,84.602,123.96,147.479
	c59.397,61.199,144.239,135.601,238.199,178.08C537.26,833.519,528.022,833.519,527.42,833.64L527.42,833.64z M632.18,549.24
	c-2.641-0.238-4.801,1.32-5.16,3.719c-0.359,2.281,1.199,4.441,3.48,4.922l-1.68,5.879c-0.602-0.602-1.441-1.078-2.398-1.199h-0.121
	c-2.52-0.48-4.68,1.32-5.039,3.84s1.441,4.801,3.84,5.039h0.602c0.359,0,0.48-0.238,0.84-0.359l-2.16,7.559
	c-0.48,0.602-0.84,1.32-0.961,2.039c0,0.359,0,0.719,0.121,1.078l-2.52,8.762c-1.801,0.48-3.121,1.922-3.359,3.84
	c-0.121,1.32,0.359,2.52,1.199,3.48l-2.398,8.398c-0.602-1.559-2.039-2.762-3.719-3h-0.121c-2.398-0.121-4.559,1.559-4.801,4.078
	c-0.238,2.52,1.68,4.68,4.078,4.922h0.48c1.078,0,1.922-0.48,2.762-1.078l-3.48,12.238c-0.48-0.121-0.84-0.121-1.32-0.238
	c0.238-0.48,0.719-0.84,0.719-1.441c0.238-2.52-1.559-4.68-4.078-4.922h-0.121c-2.398-0.238-4.559,1.559-4.922,4.078
	c0,0.238,0.121,0.48,0.121,0.719c-1.199-0.238-2.281-0.48-3.48-0.719c0-0.121,0.121-0.238,0.238-0.359
	c0.48-2.398-1.078-4.801-3.48-5.281h-0.121c-2.52-0.48-4.801,1.078-5.281,3.602v0.84l-3.359-0.48c0-0.121,0.121-0.121,0.121-0.238
	c0.48-2.398-1.078-4.801-3.602-5.281h-0.121c-2.52-0.48-4.801,1.199-5.16,3.602v0.719l-3.48-0.48c0-0.238,0.238-0.359,0.359-0.602
	c0.238-2.52-1.559-4.68-4.078-4.922h-0.121c-2.398-0.121-4.559,1.559-4.801,4.078v0.359l-3.48-0.48c0-0.238,0.238-0.359,0.238-0.48
	c0.238-2.52-1.559-4.68-4.078-4.922h-0.121c-2.398-0.359-4.68,1.559-4.922,4.078v0.238l-3.359-0.48c0-0.238,0.238-0.359,0.238-0.48
	c0.238-2.52-1.559-4.68-4.078-4.922h-0.121c-2.398-0.121-4.559,1.559-4.801,4.078v0.238l-3.359-0.48c0-0.121,0.238-0.238,0.238-0.48
	c0.238-2.52-1.559-4.68-4.078-4.922h-0.121c-2.398-0.121-4.559,1.559-4.801,4.078v0.121l-3.238-0.48
	c0-0.121,0.121-0.121,0.121-0.121c0.359-2.52-1.32-4.801-3.719-5.16h-0.121c-2.52-0.359-4.68,1.32-5.039,3.84v0.359l-3.359-0.48
	c0-0.121,0.121-0.238,0.121-0.359c0.238-2.52-1.559-4.68-4.078-4.922h-0.121c-2.281-0.359-4.68,1.559-4.922,4.078v0.121
	l-0.961-0.121l7.801-10.078c0.719,0.84,1.68,1.441,2.762,1.559h0.602c2.16,0,4.078-1.559,4.441-3.84
	c0.238-2.039-0.84-3.84-2.52-4.68l4.68-6c0.719,0.719,1.559,1.32,2.641,1.441h0.719c2.16,0,4.078-1.559,4.441-3.84
	c0.238-1.922-0.719-3.719-2.398-4.68l3.961-5.039c2.16-0.121,3.961-1.559,4.199-3.84c0.121-0.48,0-1.078-0.121-1.559l5.879-7.559
	c2.039-0.121,3.84-1.68,4.078-3.719c0.121-0.48,0-0.961-0.121-1.441l9-11.642c-0.238,2.398,1.441,4.68,3.84,5.04h0.602
	c2.16,0,4.078-1.559,4.441-3.84c0.359-2.52-1.32-4.801-3.84-5.039h-0.121c-0.719-0.121-1.441,0-2.16,0.238l7.078-9
	c-0.238,2.397,1.68,4.559,4.078,4.801h0.48c2.281,0,4.199-1.68,4.441-4.078c0.238-2.52-1.559-4.68-4.078-4.922h-0.121
	c-0.602-0.121-1.199,0-1.801,0.121l4.441-5.762c0.719,0.602,1.441,0.961,2.398,1.078h0.48c2.281,0,4.199-1.801,4.441-4.078
	c0.121-1.68-0.602-3.121-1.801-3.961l4.559-5.879c0.602,0.48,1.32,0.84,2.16,0.961h0.602c2.16,0,4.078-1.559,4.441-3.84
	c0.238-1.68-0.48-3.238-1.801-4.199l4.68-6c1.441-0.602,2.641-1.68,2.879-3.48v-0.238l7.199-9.359c1.32-0.602,2.52-1.68,2.762-3.238
	v-0.238l9-11.642c0.359,1.922,1.801,3.48,3.84,3.84h0.602c2.16,0,4.078-1.559,4.441-3.84c0.359-2.52-1.32-4.801-3.84-5.039h-0.121
	h-0.961l0.961-1.199l0.84,0.48c2.641,1.32,4.922,2.641,7.199,4.078c-0.48,0.602-0.84,1.441-0.961,2.281
	c-0.238,2.52,1.559,4.68,4.078,4.922h0.48c1.441,0,2.641-0.84,3.359-1.922c4.922,4.199,8.398,8.641,10.68,12.961
	c0,0.121-0.121,0.238-0.121,0.48c-0.238,1.922,0.84,3.84,2.52,4.68c0.84,2.281,1.559,4.559,1.922,6.602
	c-1.199,0.719-2.039,1.801-2.281,3.238c-0.121,1.078,0.121,2.16,0.719,3l-0.238-0.121l-1.922,6.719c-2.16,0-4.078,1.68-4.32,3.961
	c-0.121,1.68,0.719,3.121,1.922,4.078l-9.602,33C632.66,549.36,632.539,549.239,632.18,549.24L632.18,549.24z M1114.34,791.4
	l-302.16-54.121c-22.078-4.199-42.961-13.32-61.078-26.763l-83.641-61.559c-10.199-7.559-21.238-13.68-33-18.359l30.719-106.08
	c52.922,21.962,99.238,25.32,102.24,25.441c31.56-0.961,58.68,1.68,80.641,5.398c52.441,20.16,61.681,50.039,61.681,50.039
	c57.479,102,188.76,133.32,188.76,133.32s9.238,8.28,14.397,27.719c3,12.242,1.441,24.961,1.441,24.961V791.4z"/>
<path d="M636.12,487.92h0.48c2.281,0,4.199-1.801,4.441-4.078c0.238-2.52-1.559-4.68-4.078-4.922h-0.121
	c-2.398-0.121-4.559,1.559-4.801,4.078C631.8,485.396,633.601,487.678,636.12,487.92z"/>
<path d="M623.76,486.24h0.719c2.16,0,4.078-1.559,4.441-3.84c0.359-2.52-1.32-4.801-3.719-5.16h-0.121
	c-2.52-0.359-4.68,1.32-5.039,3.84C619.557,483.604,621.236,485.881,623.76,486.24L623.76,486.24z"/>
<path d="M611.76,484.8h0.48c2.281,0,4.199-1.68,4.441-4.078c0.238-2.52-1.559-4.68-4.078-4.922h-0.121
	c-2.398-0.359-4.68,1.559-4.922,4.078C607.439,482.28,609.357,484.558,611.76,484.8z"/>
<path d="M639.24,493.44c-2.52-0.359-4.68,1.32-5.039,3.84c-0.359,2.397,1.441,4.801,3.84,5.16h0.719c2.16,0,4.078-1.559,4.441-3.84
	C643.561,496.077,641.881,493.8,639.24,493.44L639.24,493.44z"/>
<path d="M614.76,490.2c-2.398-0.121-4.559,1.559-4.801,4.078c-0.238,2.52,1.68,4.68,4.078,4.922h0.48
	c2.281,0,4.199-1.801,4.441-4.078c0.238-2.52-1.559-4.68-4.078-4.922H614.76z"/>
<path d="M601.68,497.64h0.719c2.16,0,4.078-1.559,4.441-3.84c0.359-2.52-1.32-4.801-3.719-5.16H603
	c-2.52-0.359-4.68,1.32-5.039,3.84C597.48,494.999,599.16,497.28,601.68,497.64L601.68,497.64z"/>
<path d="M627.12,491.88c-2.52-0.359-4.68,1.32-5.039,3.84c-0.359,2.398,1.441,4.801,3.84,5.16h0.719c2.16,0,4.078-1.559,4.441-3.84
	C631.44,494.521,629.761,492.239,627.12,491.88L627.12,491.88z"/>
<path d="M620.76,514.2c2.281,0,4.199-1.68,4.441-4.078c0.238-2.52-1.559-4.68-4.078-4.922h-0.121
	c-2.398-0.359-4.559,1.559-4.922,4.078c-0.238,2.52,1.559,4.68,4.078,4.922H620.76z"/>
<path d="M596.16,511.08h0.48c2.281,0,4.199-1.801,4.441-4.078c0.238-2.52-1.559-4.68-4.078-4.922h-0.121
	c-2.398-0.238-4.559,1.559-4.801,4.078C591.719,508.682,593.641,510.842,596.16,511.08z"/>
<path d="M633.48,506.88c-2.52-0.359-4.68,1.32-5.04,3.84c-0.359,2.52,1.441,4.801,3.84,5.039h0.602c2.16,0,4.078-1.559,4.441-3.84
	c0.359-2.52-1.32-4.801-3.84-5.039H633.48z"/>
<path d="M609.36,503.76c-2.641-0.359-4.801,1.32-5.16,3.719s1.441,4.801,3.839,5.16h0.719c2.161,0,4.078-1.559,4.441-3.84
	C613.441,506.396,611.762,504.119,609.36,503.76L609.36,503.76z"/>
<path d="M585.96,524.04h0.719c2.16,0,4.078-1.559,4.441-3.84c0.359-2.52-1.32-4.801-3.719-5.16h-0.121
	c-2.52-0.238-4.68,1.32-5.039,3.84C581.761,521.282,583.44,523.56,585.96,524.04L585.96,524.04z"/>
<path d="M611.4,518.16c-2.52-0.48-4.68,1.32-5.039,3.84s1.441,4.801,3.84,5.039h0.602c2.16,0,4.078-1.559,4.441-3.84
	c0.359-2.52-1.32-4.801-3.84-5.039H611.4z"/>
<path d="M599.16,516.6c-2.52-0.359-4.68,1.559-5.039,4.078c-0.238,2.52,1.559,4.68,4.078,4.922h0.48c2.281,0,4.199-1.68,4.441-4.078
	C603.48,518.998,601.68,516.838,599.16,516.6z"/>
<path d="M623.04,528.72c2.281,0,4.199-1.68,4.441-4.078c0.238-2.52-1.559-4.68-4.078-4.922h-0.121
	c-2.398-0.359-4.68,1.559-4.922,4.078c-0.238,2.52,1.559,4.68,4.078,4.922H623.04z"/>
<path d="M635.76,521.28c-2.641-0.359-4.801,1.32-5.16,3.719s1.441,4.801,3.84,5.16h0.719c2.16,0,4.078-1.559,4.441-3.84
	C639.959,524.038,638.279,521.64,635.76,521.28L635.76,521.28z"/>
<path d="M600.6,535.68c-0.238,2.52,1.559,4.68,4.078,4.922h0.48c2.281,0,4.199-1.68,4.441-4.078c0.238-2.52-1.559-4.68-4.078-4.922
	H605.4C603.119,531.238,600.838,533.16,600.6,535.68z"/>
<path d="M629.76,534.72h-0.121c-2.398-0.238-4.559,1.559-4.801,4.078c-0.238,2.52,1.68,4.68,4.078,4.922h0.48
	c2.281,0,4.199-1.801,4.441-4.078C634.076,537.122,632.279,534.962,629.76,534.72z"/>
<path d="M580.2,537.48h0.602c2.16,0,4.078-1.559,4.441-3.84c0.359-2.52-1.32-4.801-3.84-5.039h-0.121
	c-2.52-0.359-4.68,1.32-5.039,3.839C575.88,534.96,577.681,537.12,580.2,537.48L580.2,537.48z"/>
<path d="M617.28,542.16c2.16,0,4.078-1.559,4.441-3.84c0.359-2.52-1.32-4.801-3.719-5.16h-0.121c-2.52-0.238-4.68,1.32-5.039,3.84
	c-0.359,2.398,1.441,4.801,3.84,5.16H617.28L617.28,542.16z"/>
<path d="M588.48,533.88c-0.359,2.52,1.441,4.801,3.839,5.039h0.602c2.161,0,4.078-1.559,4.441-3.84
	c0.359-2.52-1.32-4.801-3.839-5.039h-0.121C591,529.681,588.84,531.481,588.48,533.88z"/>
<path d="M587.52,547.92c0.238-2.52-1.559-4.68-4.078-4.922h-0.121c-2.397-0.238-4.68,1.559-4.922,4.078
	c-0.238,2.52,1.559,4.68,4.078,4.922h0.48C585.238,551.877,587.281,550.197,587.52,547.92z"/>
<path d="M599.52,549.72c0.359-2.52-1.32-4.801-3.719-5.16h-0.121c-2.52-0.238-4.68,1.32-5.039,3.84
	c-0.359,2.398,1.441,4.801,3.84,5.16h0.719C597.359,553.442,599.281,551.88,599.52,549.72L599.52,549.72z"/>
<path d="M611.76,551.04c0.238-2.52-1.559-4.68-4.078-4.922h-0.121c-2.398-0.121-4.559,1.559-4.801,4.078
	c-0.238,2.52,1.68,4.68,4.078,4.922h0.48C609.6,555.001,611.518,553.321,611.76,551.04z"/>
<path d="M620.04,547.68c-2.641-0.359-4.801,1.32-5.16,3.719s1.441,4.801,3.84,5.16h0.719c2.16,0,4.078-1.559,4.441-3.84
	C624.239,550.321,622.56,548.039,620.04,547.68L620.04,547.68z"/>
<path d="M570.24,550.32h0.602c2.16,0,4.078-1.559,4.441-3.84c0.359-2.52-1.32-4.801-3.84-5.039h-0.121
	c-2.52-0.359-4.68,1.32-5.039,3.84S567.721,549.961,570.24,550.32L570.24,550.32z"/>
<path d="M577.2,565.32c2.16,0,4.078-1.559,4.441-3.84c0.359-2.52-1.32-4.801-3.84-5.039h-0.121c-2.52-0.359-4.68,1.32-5.039,3.84
	s1.441,4.801,3.84,5.039H577.2L577.2,565.32z"/>
<path d="M588.96,566.88h0.48c2.281,0,4.199-1.801,4.441-4.078c0.238-2.52-1.559-4.68-4.078-4.922h-0.121
	c-2.398-0.121-4.559,1.559-4.801,4.078C584.64,564.481,586.44,566.642,588.96,566.88z"/>
<path d="M600.84,568.44h0.719c2.16,0,4.078-1.559,4.441-3.84c0.359-2.52-1.32-4.801-3.719-5.16h-0.121
	c-2.52-0.238-4.68,1.32-5.039,3.839C596.762,565.799,598.32,568.076,600.84,568.44L600.84,568.44z"/>
<path d="M552.36,562.2h0.602c2.16,0,4.078-1.559,4.441-3.84c0.359-2.52-1.32-4.801-3.84-5.039h-0.121
	c-2.52-0.48-4.68,1.32-5.039,3.84C548.04,559.681,549.841,561.841,552.36,562.2L552.36,562.2z"/>
<path d="M613.2,570h0.48c2.281,0,4.199-1.68,4.441-4.078c0.238-2.52-1.559-4.68-4.078-4.922h-0.121
	c-2.398-0.359-4.559,1.559-4.922,4.078C608.88,567.602,610.681,569.762,613.2,570z"/>
<path d="M564.6,563.76h0.48c2.281,0,4.199-1.68,4.441-4.078c0.238-2.52-1.559-4.68-4.078-4.922h-0.121
	c-2.398-0.359-4.68,1.559-4.922,4.078C560.279,561.357,562.197,563.518,564.6,563.76z"/>
<path d="M567.84,569.28c-2.52-0.359-4.68,1.32-5.039,3.84s1.441,4.801,3.84,5.039h0.602c2.16,0,4.078-1.559,4.441-3.84
	c0.359-2.52-1.32-4.801-3.84-5.039H567.84z"/>
<path d="M542.52,575.16H543c2.281,0,4.199-1.68,4.441-4.078c0.238-2.52-1.559-4.68-4.078-4.922h-0.121
	c-2.397-0.238-4.559,1.559-4.922,4.078C538.199,572.641,540.121,574.922,542.52,575.16z"/>
<path d="M590.88,581.4h0.719c2.16,0,4.078-1.559,4.441-3.84c0.359-2.52-1.32-4.801-3.719-5.16H592.2
	c-2.52-0.359-4.68,1.32-5.039,3.84C586.681,578.643,588.36,581.041,590.88,581.4L590.88,581.4z"/>
<path d="M555.6,567.72c-2.52-0.48-4.68,1.32-5.039,3.84s1.441,4.801,3.84,5.039h0.602c2.16,0,4.078-1.559,4.441-3.84
	c0.359-2.52-1.32-4.801-3.84-5.039H555.6z"/>
<path d="M603.24,582.96h0.48c2.281,0,4.199-1.801,4.441-4.078c0.238-2.52-1.559-4.68-4.078-4.922h-0.121
	c-2.398-0.121-4.559,1.559-4.801,4.078C598.924,580.44,600.721,582.718,603.24,582.96z"/>
<path d="M579,579.84h0.48c2.281,0,4.199-1.68,4.441-4.078c0.238-2.52-1.559-4.68-4.078-4.922h-0.121
	c-2.398-0.359-4.68,1.559-4.922,4.078C574.559,577.32,576.48,579.602,579,579.84z"/>
<path d="M616.44,575.52c-2.641-0.359-4.801,1.32-5.161,3.72c-0.359,2.397,1.441,4.801,3.84,5.16h0.719
	c2.16,0,4.078-1.559,4.441-3.84C620.639,578.282,618.959,575.88,616.44,575.52L616.44,575.52z"/>
<path d="M573.6,593.28c2.16,0,4.078-1.559,4.441-3.84c0.359-2.52-1.32-4.801-3.84-5.039h-0.121c-2.52-0.48-4.68,1.32-5.039,3.84
	s1.441,4.801,3.84,5.039H573.6L573.6,593.28z"/>
<path d="M561.48,591.72c2.28,0,4.199-1.68,4.441-4.078c0.238-2.52-1.559-4.68-4.078-4.922h-0.121
	c-2.398-0.359-4.68,1.559-4.922,4.078c-0.238,2.52,1.559,4.68,4.078,4.922H561.48z"/>
<path d="M549.36,590.16c2.16,0,4.078-1.559,4.441-3.84c0.359-2.52-1.32-4.801-3.84-5.039h-0.121c-2.52-0.48-4.68,1.32-5.039,3.84
	s1.441,4.801,3.84,5.039H549.36L549.36,590.16z"/>
<path d="M597.96,596.4c2.281,0,4.199-1.68,4.441-4.078c0.238-2.52-1.559-4.68-4.078-4.922h-0.121
	c-2.281-0.359-4.68,1.559-4.922,4.078c-0.238,2.52,1.559,4.68,4.078,4.922H597.96z"/>
<path d="M610.68,588.96c-2.641-0.238-4.801,1.32-5.16,3.719s1.441,4.801,3.84,5.16h0.719c2.16,0,4.078-1.559,4.441-3.84
	C614.879,591.718,613.199,589.319,610.68,588.96L610.68,588.96z"/>
<path d="M537.24,588.6c2.281,0,4.199-1.801,4.441-4.078c0.238-2.52-1.559-4.68-4.078-4.922h-0.121
	c-2.398-0.121-4.559,1.559-4.801,4.078c-0.238,2.52,1.68,4.68,4.078,4.922H537.24z"/>
<path d="M585.72,594.84c2.16,0,4.078-1.559,4.441-3.84c0.359-2.52-1.32-4.801-3.84-5.039H586.2c-2.52-0.48-4.68,1.32-5.039,3.84
	s1.441,4.801,3.84,5.039H585.72L585.72,594.84z"/>
<path d="M588.36,600.36c-2.52-0.238-4.801,1.559-5.039,4.078s1.559,4.68,4.078,4.922h0.48c2.28,0,4.199-1.68,4.441-4.078
	C592.681,602.763,590.88,600.603,588.36,600.36z"/>
<path d="M600.72,601.92h-0.121c-2.52-0.359-4.68,1.32-5.039,3.84s1.441,4.801,3.84,5.039h0.602c2.16,0,4.078-1.559,4.441-3.84
	C604.923,604.557,603.239,602.279,600.72,601.92L600.72,601.92z"/>
<path d="M564.12,597.24h-0.121c-2.398-0.121-4.559,1.559-4.801,4.078c-0.238,2.52,1.68,4.68,4.078,4.922h0.48
	c2.281,0,4.199-1.801,4.441-4.078C568.44,599.643,566.64,597.482,564.12,597.24z"/>
<path d="M576.48,598.8c-2.641-0.359-4.801,1.32-5.161,3.719c-0.359,2.398,1.441,4.801,3.84,5.16h0.719
	c2.16,0,4.078-1.559,4.441-3.84C580.679,601.44,578.878,599.159,576.48,598.8L576.48,598.8z"/>
<path d="M527.88,592.56h-0.121c-2.52-0.359-4.68,1.32-5.039,3.84s1.441,4.801,3.84,5.039h0.602c2.16,0,4.078-1.559,4.441-3.839
	C532.079,595.201,530.399,592.924,527.88,592.56L527.88,592.56z"/>
<path d="M539.88,594.12c-2.398-0.359-4.801,1.559-5.039,4.078s1.559,4.68,4.078,4.922h0.48c2.281,0,4.199-1.68,4.441-4.078
	C544.079,596.519,542.282,594.358,539.88,594.12z"/>
<path d="M552.24,595.68h-0.121c-2.52-0.359-4.68,1.32-5.039,3.84s1.441,4.801,3.84,5.039h0.602c2.16,0,4.078-1.559,4.441-3.84
	C556.322,598.32,554.643,596.039,552.24,595.68L552.24,595.68z"/>
</svg>
