<?xml version="1.0" encoding="utf-8"?>
<!-- Generator: Adobe Illustrator 16.0.0, SVG Export Plug-In . SVG Version: 6.00 Build 0)  -->
<!DOCTYPE svg PUBLIC "-//W3C//DTD SVG 1.1//EN" "http://www.w3.org/Graphics/SVG/1.1/DTD/svg11.dtd">
<svg version="1.1" id="Layer_1" xmlns="http://www.w3.org/2000/svg" xmlns:xlink="http://www.w3.org/1999/xlink" x="0px" y="0px"
	 width="556.905px" height="1027.492px" viewBox="363.884 112.095 556.905 1027.492" fill="#104e64e6"
	 enable-background="new 363.884 112.095 556.905 1027.492" xml:space="preserve">
<path d="M913.62,453.31c-5.25-6.375-12.81-10.409-21.023-11.233c2.988-25.5,14.688-126.91,18.156-183.07
	c4.094-66.371-19.738-139.29-66.729-146.4c-40.802-6.121-70.802,44.125-90.695,77.41c-2.914,4.871-5.617,9.406-8.125,13.367h-0.004
	c-23.396,37.801-49.887,73.598-79.199,107.02c-7.754,7.754-17.461,17.195-26.891,26.258h-52.418
	c-10.344,0.043-19.91,5.508-25.199,14.398l-9.926,16.801c-13.164,6.273-26.637,11.875-40.367,16.789
	c-16.188,6.215-32.93,12.648-43.285,17.605c-7.93,3.805-14.211,10.363-17.668,18.453s-3.863,17.16-1.133,25.523l10.599,32.543
	l-0.004,0.004c-24.638,14.77-48.078,31.452-70.103,49.895c-17.121,16.949-26.426,40.254-25.68,64.332
	c0.996,19.359,10.604,37.258,26.195,48.781c17.508,13.754,35.84,26.434,54.887,37.969c-12.805,16.801-3.949,39.133,4.055,59.113
	c4.066,10.176,8.398,20.039,13.008,30.289c5.258,11.819,10.691,24,16.141,37.871c3.227,8.195,7.285,16.309,11.195,24.133
	c8.398,16.801,16.391,32.746,14.398,46.895l0.004-0.004c-3.648,22.816-4.055,46.035-1.199,68.965c2.855,38.605,0,144.12,0,145.2
	c-0.047,1.594,0.543,3.141,1.641,4.297s2.609,1.832,4.203,1.871h0.156c3.246,0.004,5.906-2.582,6-5.832
	c0.121-4.367,2.891-107.18,0-146.399c-2.813-22.345-2.406-44.974,1.199-67.199c2.398-17.004-6.371-34.535-15.603-53.103
	c-3.805-7.609-7.738-15.457-10.801-23.159c-5.531-14.063-11.027-26.398-16.332-38.398c-4.5-10.105-8.82-19.836-12.863-29.941
	c-9.875-24.694-14.93-40.477-1.715-51.395l12.396-10.246c0.121,1.754,0.203,3.422,0.324,5.195v-0.004
	c0.215,3.156,2.84,5.602,6,5.594h0.387c1.586-0.109,3.066-0.844,4.113-2.043s1.574-2.766,1.465-4.352
	c-3.602-52.801-5.09-96.887-4.871-141.28l7.523,23.09v-0.004c0.805,2.47,3.105,4.141,5.699,4.141c0.633,0,1.258-0.098,1.859-0.285
	c1.516-0.492,2.777-1.566,3.5-2.988s0.848-3.07,0.352-4.585l-36.695-112.641c-1.824-5.598-1.559-11.668,0.75-17.082
	c2.313-5.418,6.512-9.809,11.816-12.363c9.938-4.801,26.397-11.102,42.405-17.229c10.152-3.898,18.552-7.199,25.38-9.938
	l-7.895,13.379c-3.262,5.535-4.621,11.988-3.863,18.371l0.684,5.734l-5.734,10.633c-3.348,6.184-4.082,13.445-2.043,20.172
	l19.198,63.91v0.004c0.762,2.531,3.094,4.266,5.738,4.27c0.402,0,0.805-0.039,1.199-0.117c3.047-0.637,5.098-3.5,4.727-6.59
	l-11.866-99.434v0.004c-0.438-3.754,0.363-7.547,2.28-10.802l28.441-48.19c3.125-5.27,8.789-8.504,14.914-8.52h39.897
	c-7.078,6.758-13.297,12.648-17.305,16.453l0.004-0.004c-5.625,5.316-9.406,12.285-10.801,19.898l-3.84,20.473v-0.004
	c-1.188,6.355-0.688,12.909,1.453,19.012l21.777,61.414c0,0,13.823,23.641,24,41.651c9.313,16.478,45.19,62.398,86.125,57.492
	c25.065-3.012,52.188-25.812,80.578-67.776l1.32-1.945v0.004c13.155-20.935,31.297-38.277,52.801-50.474
	c7.848-4.105,14.147-7.199,19.199-9.395v-0.004c4.68-2.02,9.969-2.094,14.702-0.211c4.734,1.883,8.527,5.57,10.543,10.254
	c2.012,4.68,2.082,9.97,0.195,14.703c-5.331,14.734-13.409,28.32-23.809,40.043c-7.277,7.301-13.771,15.345-19.367,24
	c-5.453,9.438-12.895,17.578-21.805,23.855c-18.771,10.945-51.863,64.871-61.021,94.559c-4.453,14.398-28.297,87.984-60.983,117.601
	c-32.688,29.615-46.234,53.09-44.508,121.2c1.703,66.827,34.163,226.68,35.543,233.459c0.77,3.129,3.871,5.09,7.027,4.445
	c3.155-0.645,5.242-3.664,4.723-6.844c-0.336-1.656-33.603-165.6-35.293-231.359c-1.691-66.359,11.711-85.922,40.559-112.03v-0.004
	c6.609-6.141,12.531-12.979,17.664-20.397c10.945-3.602,62.688-22.802,85.379-68.173c25.767-51.602,39.828-87.926,42.996-111.199
	h0.004c1.879-13.023,2-26.234,0.359-39.289c4.922-7.574,10.617-14.621,16.992-21.023c11.562-12.918,20.594-27.895,26.629-44.147
	c2.168-5.215,2.867-10.927,2.02-16.513c-0.844-5.582-3.203-10.828-6.82-15.168L913.62,453.31z M469.94,657.93l-0.133,0.07
	l-15.816,13.066c-19.68-11.664-38.563-24.625-56.521-38.793c-12.815-9.414-20.741-24.07-21.602-39.949
	c-0.609-20.617,7.383-40.559,22.07-55.043c20.612-17.27,42.535-32.914,65.565-46.801l3.254,9.973
	c-1.238,51.539-0.289,99.707,3.18,157.479L469.94,657.93z M633.48,489c-2.856-4.883-4.738-8.074-4.801-8.074l-13.691-38.82
	c0.098,0,0.168-0.098,0.266-0.121c6.113-1.207,12.461,0.043,17.664,3.477s8.852,8.773,10.147,14.871
	c1.965,6.379,1.54,13.258-1.199,19.345C640.101,483.574,637.171,486.832,633.48,489L633.48,489z M880.37,443.305
	c-1.156,0.363-2.289,0.797-3.395,1.297c-5.184,2.316-11.688,5.461-19.813,9.719c-23.479,13.211-43.28,32.091-57.602,54.91
	l-0.949,1.402c-32.832,48.517-57.324,60.806-72.086,62.578c-31.848,3.828-63.805-33.023-74.242-51.492
	c-4.094-7.199-8.723-15.289-12.815-22.367l0.004,0.004c5.797-3.387,10.405-8.484,13.198-14.59c3.984-8.723,4.656-18.602,1.883-27.78
	c-2.172-9.161-7.879-17.091-15.875-22.06s-17.633-6.574-26.809-4.461c-0.313,0.098-0.574,0.301-0.875,0.395l-3.602-10.344
	c-1.445-4.105-1.789-8.523-0.996-12.805l3.84-20.474v0.004c0.949-5.125,3.5-9.816,7.285-13.395c6-5.676,16.801-15.926,28.233-26.93
	c9.984-9.602,20.398-19.754,28.703-28.02h0.004c29.996-34.008,57.052-70.504,80.879-109.09c2.543-4.031,5.305-8.664,8.281-13.633
	c18.203-30.527,45.603-76.727,78.603-71.688c39.602,6,60.227,74.102,56.543,133.78C895.202,316.332,882.733,423.275,880.37,443.305
	L880.37,443.305z M862.538,587.725c-2.941,21.603-17.017,57.806-41.844,107.45c-14.478,25.172-36.824,44.892-63.599,56.125
	c14.75-27.065,26.707-55.559,35.688-85.043c8.93-28.969,40.621-78.996,55.598-87.729l-0.004-0.004
	c5.93-3.613,11.164-8.258,15.457-13.716c0.172,7.661-0.262,15.324-1.297,22.919V587.725z"/>
<path d="M810.09,256.62c-7.563,0-14.809-3.004-20.156-8.348c-5.344-5.344-8.344-12.594-8.344-20.152c0-7.558,3-14.809,8.344-20.152
	c5.348-5.348,12.595-8.348,20.156-8.348c7.559,0,14.805,3,20.152,8.348c5.344,5.344,8.348,12.594,8.348,20.152
	c-0.012,7.555-3.016,14.797-8.359,20.141C824.887,253.605,817.645,256.609,810.09,256.62L810.09,256.62z M810.09,211.62
	c-4.379,0-8.574,1.738-11.668,4.832s-4.832,7.289-4.832,11.668c0,4.375,1.738,8.57,4.832,11.668
	c3.094,3.094,7.289,4.832,11.668,4.832c4.375,0,8.57-1.738,11.664-4.832c3.094-3.098,4.836-7.293,4.836-11.668
	c-0.008-4.375-1.75-8.57-4.84-11.66C818.656,213.366,814.461,211.624,810.09,211.62L810.09,211.62z"/>
<path d="M439.49,594.54c-11.148,0-19.871-12.961-19.871-29.496s8.723-29.496,19.871-29.496c11.147,0,19.858,12.949,19.858,29.496
	C459.349,581.595,450.626,594.54,439.49,594.54z M439.49,547.548c-3.145,0-7.871,6.973-7.871,17.496s4.727,17.496,7.871,17.496
	s7.859-6.973,7.859-17.496S442.623,547.548,439.49,547.548z"/>
</svg>
