<?xml version="1.0" encoding="utf-8"?>
<!-- Generator: Adobe Illustrator 16.0.0, SVG Export Plug-In . SVG Version: 6.00 Build 0)  -->
<!DOCTYPE svg PUBLIC "-//W3C//DTD SVG 1.1//EN" "http://www.w3.org/Graphics/SVG/1.1/DTD/svg11.dtd">
<svg version="1.1" id="Layer_1" xmlns="http://www.w3.org/2000/svg" xmlns:xlink="http://www.w3.org/1999/xlink" x="0px" y="0px"
	 width="731.045px" height="1028.659px" viewBox="239.343 87.612 731.045 1028.659" fill="#104e64e6"
	 enable-background="new 239.343 87.612 731.045 1028.659" xml:space="preserve">
<path d="M506.18,632.71c-2.984,0-5.676,1.801-6.82,4.559c-1.141,2.762-0.508,5.934,1.605,8.047c2.113,2.109,5.289,2.738,8.047,1.59
	c2.758-1.145,4.555-3.84,4.547-6.828c0-1.953-0.777-3.832-2.16-5.211C510.012,633.483,508.137,632.706,506.18,632.71L506.18,632.71z
	"/>
<path d="M506.18,661.2c-2.984,0-5.676,1.801-6.816,4.555c-1.145,2.758-0.512,5.934,1.598,8.043c2.113,2.113,5.285,2.742,8.043,1.602
	s4.555-3.832,4.555-6.82c0.004-1.957-0.773-3.836-2.156-5.219C510.016,661.974,508.137,661.196,506.18,661.2L506.18,661.2z"/>
<path d="M506.18,694.22c-2.984,0-5.676,1.801-6.816,4.559c-1.145,2.758-0.512,5.93,1.598,8.043c2.113,2.109,5.285,2.742,8.043,1.598
	c2.758-1.141,4.555-3.832,4.555-6.816c0.004-1.961-0.773-3.84-2.156-5.223C510.016,694.993,508.137,694.22,506.18,694.22
	L506.18,694.22z"/>
<path d="M532.45,720c-2.988,0-5.68,1.801-6.82,4.559s-0.508,5.934,1.605,8.043s5.289,2.738,8.047,1.594
	c2.758-1.148,4.551-3.84,4.547-6.828c0-1.957-0.777-3.832-2.164-5.215C536.282,720.773,534.403,719.996,532.45,720L532.45,720z"/>
<path d="M532.45,701.61c0.004-2.988-1.793-5.684-4.551-6.828c-2.758-1.148-5.938-0.516-8.047,1.598
	c-2.113,2.109-2.746,5.289-1.598,8.047c1.145,2.758,3.84,4.555,6.828,4.551C529.149,708.978,532.45,705.677,532.45,701.61
	L532.45,701.61z"/>
<path d="M527.11,683.27c2.984,0.004,5.68-1.793,6.824-4.551c1.148-2.754,0.52-5.934-1.59-8.047
	c-2.109-2.109-5.285-2.746-8.047-1.602c-2.758,1.141-4.559,3.832-4.559,6.816C519.739,679.961,523.036,683.262,527.11,683.27
	L527.11,683.27z"/>
<path d="M553.59,694.22c0,4.078-3.305,7.383-7.383,7.383c-4.074,0-7.379-3.305-7.379-7.383c0-4.074,3.305-7.379,7.379-7.379
	C550.285,686.841,553.59,690.146,553.59,694.22"/>
<path d="M553.57,708.97c-2.984,0-5.676,1.797-6.816,4.555s-0.512,5.934,1.602,8.043c2.109,2.109,5.281,2.742,8.039,1.602
	c2.758-1.145,4.559-3.836,4.559-6.82c0.004-1.957-0.773-3.836-2.16-5.223C557.41,709.743,555.531,708.966,553.57,708.97
	L553.57,708.97z"/>
<path d="M579.76,686.86c0.004-2.984-1.793-5.68-4.551-6.828c-2.754-1.145-5.934-0.516-8.047,1.594s-2.746,5.285-1.605,8.043
	c1.145,2.762,3.836,4.559,6.82,4.559C576.447,694.228,579.752,690.931,579.76,686.86L579.76,686.86z"/>
<path d="M532.45,654.83c2.984,0.004,5.68-1.793,6.828-4.551c1.145-2.758,0.512-5.938-1.598-8.047
	c-2.113-2.113-5.289-2.742-8.051-1.598c-2.758,1.145-4.555,3.84-4.547,6.828C525.083,651.529,528.38,654.83,532.45,654.83
	L532.45,654.83z"/>
<path d="M553.57,661.2c-2.984,0-5.676,1.801-6.816,4.555c-1.141,2.758-0.512,5.934,1.602,8.043c2.109,2.113,5.281,2.742,8.039,1.602
	s4.559-3.832,4.559-6.82c0.004-1.957-0.773-3.836-2.16-5.219C557.41,661.974,555.531,661.196,553.57,661.2z"/>
<path d="M912,779.84l-8.508-28.094c1.859,0,3.781,0,5.398,0.059v0.004c4.035,0.176,7.891-1.684,10.254-4.957
	c2.367-3.273,2.93-7.516,1.496-11.293L882,633.599c-1.629-4.293-5.566-7.281-10.142-7.695c-0.313,0-1.535-0.133-3.516-0.254
	l-33.815-85.859v0.004c0.754-0.367,1.465-0.813,2.125-1.332c3.477-2.934,4.996-7.582,3.922-12l-25.379-105.6
	c-0.898-3.742-3.543-6.828-7.102-8.293c-7.668-2.766-15.646-4.598-23.75-5.445c-0.191-18-2.398-41.352-21.48-55.801
	c-20.398-15.469-54.852-15.938-105.14-1.414v-0.004c-30.125,7.395-57.863,22.363-80.578,43.488
	c-41.617-36.371-51.898-65.387-54.238-74.762c8.555-14.734,17.103-28.98,23.521-38.629c20.397-30.625,63.069-144.79,64.883-149.63
	v0.004c1.117-2.996,0.992-6.316-0.348-9.219c-1.344-2.906-3.789-5.152-6.793-6.25l-72.938-26.566
	c-5.984-2.184-12.637,0.695-15.141,6.551l-15.828,36.949c-8.965-3.063-18.707-2.961-27.602,0.289
	c-17.816,7.16-33.427,18.895-45.263,34.016c-11.832,15.121-19.473,33.094-22.141,52.109c-1.465,12.008-5.16,23.641-10.898,34.293
	c-2.848,4.09-5.09,8.57-6.66,13.297c-24.965,16.285-48.312,34.926-69.719,55.668c-5.824,7.102-11.234,14.535-16.199,22.262
	c-0.578,0.688-1.074,1.441-1.477,2.242c-30.168,46.117-81.602,142.95-52.176,205.57c19.367,41.148,64.465,68.027,112.22,96.469
	c38.785,23.103,78.888,46.992,108.311,80.017c11.602,13.098,21.746,27.414,30.266,42.699c0.219,0.449,0.465,0.883,0.73,1.305
	c6.793,12,12.863,24.562,19.32,37.87c26.578,54.759,56.723,116.83,160.59,203.48c102.35,85.414,161.46,102.77,192.61,102.77h-0.004
	c9.648,0.531,19.241-1.766,27.602-6.609c30.141-14.125,52.922-40.312,62.734-72.12c31.836-98.642-42.552-242.57-50.508-257.631
	V779.84z M428.14,451.92c2.688,3.398,5.543,6.664,8.555,9.777c21.853,22.176,54.996,26.172,93.228,21.457h0.004
	c-0.742,1.074-1.305,2.262-1.668,3.516c-0.59,2.367-0.434,4.855,0.441,7.129c-15.527,6.227-31.547,13.703-38.699,17.113v-0.004
	c-18.109-12.734-37.586-23.398-58.066-31.797C430.59,469.713,429.316,460.584,428.14,451.92L428.14,451.92z M541.29,514.643
	l34.129,53.566l-15.602,6.938c-14.435-17.457-30.509-33.492-48-47.879C520.251,523.389,531.172,518.576,541.29,514.643
	L541.29,514.643z M597.462,584.663c17.855-6.422,34.367-12,49.754-16.801l34.906,64.02c-3.844,2.816-6.941,6.523-9.039,10.801
	c-2.629,5.728-3.578,12.082-2.734,18.324l-48.563,18.07c-3.348-7.344-6.926-15.07-10.922-23.566
	c-10.082-21.348-22.133-41.707-36-60.815L597.462,584.663z M807.992,538.042l34.414,87.277
	c-35.418,0.973-70.648,5.574-105.13,13.727c-7.391-10.156-19.484-15.801-32.017-14.938l-34.547-63.324
	C745.459,539.218,787.493,536.94,807.992,538.042L807.992,538.042z M739.797,760.862l-33.358-100.07
	c-1.031-3.09-3.27-5.629-6.207-7.031c-1.605-0.746-3.363-1.113-5.133-1.082c1.629-2.063,3.977-3.434,6.574-3.84
	c3.676-1.16,7.637-1.066,11.258,0.266c-1.547,2.836-1.887,6.176-0.938,9.262l31.703,102.891v0.004
	c0.754,2.426,2.258,4.551,4.297,6.07c-1.793,0.887-3.648,1.633-5.555,2.23c-1.184,0.371-2.387,0.68-3.602,0.926
	C740.509,767.562,740.856,764.062,739.797,760.862L739.797,760.862z M687.609,680.174l25.655,77.027l-4.199,1.453L664.332,774.1
	c-2.039-1.633-4.223-3.047-6.371-4.512v-0.359l-0.004-0.004c-6.805-23.441-15.603-46.263-26.293-68.207L687.609,680.174z
	 M708.332,784.294c6.746,7.035,16.137,10.918,25.883,10.703c5.254-0.055,10.465-0.918,15.457-2.555
	c13.84-2.969,25.063-13.062,29.474-26.508c11.293-1.801,25.823-4.031,41.473-6.215v-0.004c12.27,15.039,30.258,24.276,49.629,25.488
	c5.906-0.059,11.758-1.156,17.281-3.238l0.254,0.84c-5.305,12.254-6.84,41.409,5.113,133.02l0.719,5.555
	c3.938,30,9.324,71.039,0.336,77.113c-0.695,0.492-7.727,4.285-33.781-10.453c-62.809-35.484-168.88-182.29-177.83-194.771
	L708.332,784.294z M878.732,752.95l1.789,5.93v-0.004c-9.367,3.586-19.892,2.375-28.199-3.238
	C861.502,754.567,870.455,753.599,878.732,752.95L878.732,752.95z M892.064,728.012c-39.603,1.895-103.461,12-128.53,16.129
	l-24.887-80.772c40.418-10.008,81.969-14.703,123.6-13.957L892.064,728.012z M812.865,514.182
	c-29.137-2.398-92.398,1.621-214.88,44.81l-40.802-63.973c25.199-11.82,82.129-38.125,102.11-44.173h0.086h-0.004
	c32.215-11.051,65.594-18.344,99.48-21.729c11.581,0.297,23.112,1.617,34.465,3.945L812.865,514.182z M664.315,372.942
	c52.223-15.07,74.52-9.672,84-2.496c8.945,9.207,13.305,21.93,11.891,34.691h-1.32c-33.336,0.926-75.504,13.513-120.17,26.832
	c-21.938,6.539-44.773,13.344-66.816,18.707c3.457-20.629,20.185-56.879,92.414-77.734H664.315z M562.075,412.087h-0.004
	c-8.465,13.18-13.474,28.281-14.566,43.906c-40.043,7.598-75.086,7.789-93.719-11.113c-27.602-27.938-39.602-74.09-43.754-113.5
	c7.934-4.152,15.602-8.566,23.09-13.273l33.898,62.242v0.004c2.102,3.859,6.141,6.262,10.535,6.266
	c4.394,0,8.434-2.398,10.538-6.254c0.18-0.336,8.595-15.719,19.453-34.98h-0.004c13.566,25.637,32.103,48.309,54.527,66.699
	L562.075,412.087z M511.266,199.197c-1.066,12.59-23.483,47.426-64.129,79.68c0.973-2.723,1.895-5.543,2.746-8.496
	c11.103-38.219,43.105-71.184,61.199-71.184H511.266z M533.68,114.752l50.81,18.504c-11.426,29.914-42.758,110.4-58.105,133.41
	c-13.645,20.496-35.698,59.473-48.758,82.934l-24.637-45.227c51.358-38.004,85.199-85.402,82.008-110.4
	c0-0.359-0.227-0.66-0.289-1.02c-0.059-0.359,0-0.383,0-0.59l-7.199-31.934l0.004,0.004c-1.449-5.199-3.895-10.062-7.199-14.328
	L533.68,114.752z M428.75,222.862c3.992-30.465,23.926-56.496,52.297-68.293c4.602-1.735,9.727-1.426,14.09,0.84
	c4.367,2.21,7.645,6.113,9.059,10.801l2.125,9.434c-32.397,4.141-67.487,46.801-79.487,88.066
	c-3.594,13.156-9.949,25.395-18.638,35.906c0-5.82,0.059-11.258,0.313-16.105c0.164-6.102,2.035-12.031,5.398-17.125
	c7.715-13.402,12.754-28.176,14.845-43.5L428.75,222.862z M269.78,541.382c-16.645-35.375,0.625-89.09,22.164-132.96
	c-4.234,49.043-6.313,118.66,8.004,170.21v0.004c-12.523-10.194-22.797-22.879-30.168-37.25L269.78,541.382z M338.096,606.398
	c-42.781-59.724-19.272-227.71-15.828-250.57c4.165-6.387,8.703-12.52,13.595-18.371c14.875-14.777,31.074-28.156,48.397-39.973
	c0.055,28.898,3.715,57.676,10.896,85.668c1.414,12,17.16,144.18,34.164,225.45c5.832,27.853,11.785,49.802,17.194,66.91
	c-23.688-17.444-48.375-33.491-73.934-48.059c-11.832-7.047-23.445-14.004-34.484-21.051V606.398z M515.696,752.008
	c-2.113-3.512-4.32-7.02-6.625-10.522h-0.004c3.227-1.371,5.043-4.82,4.348-8.258c-0.695-3.434-3.711-5.906-7.215-5.914
	c-2.055,0.004-4.012,0.875-5.387,2.398c-4.117-5.566-8.555-11.113-13.441-16.656c-2.398-4.043-18.78-34.066-34.547-109.431
	c-5.914-28.284-11.688-62.901-16.801-96.405c67.621,33.854,121.66,89.772,153.18,158.51c21.603,45.996,33.047,73.656,39,89.531
	v0.004c-36.754-9.742-75.266-10.855-112.52-3.254L515.696,752.008z M939.606,1030.078c-7.859,25.926-26.543,47.191-51.242,58.32
	c-0.699,0.297-1.348,0.703-1.918,1.203c-0.445,0.289-45.695,27.19-191.57-94.535c-99.902-83.414-128.85-143.07-154.37-195.601
	c-4.129-8.508-8.195-16.883-12.479-25.198c31.801-4.883,103.8-10.478,134.109,31.991c4.715,6.637,116.3,163.2,186.19,202.641
	c17.062,9.602,41.711,21.108,59.016,9.469c21.301-14.398,16.332-52.224,10.056-100.15l-0.73-5.531
	c-5.207-39.973-7.645-66.805-8.578-84.77c21.405,49.883,52.02,138.729,31.512,202.16L939.606,1030.078z"/>
</svg>
