<?xml version="1.0" encoding="utf-8"?>
<!-- Generator: Adobe Illustrator 16.0.0, SVG Export Plug-In . SVG Version: 6.00 Build 0)  -->
<!DOCTYPE svg PUBLIC "-//W3C//DTD SVG 1.1//EN" "http://www.w3.org/Graphics/SVG/1.1/DTD/svg11.dtd">
<svg version="1.1" id="Layer_1" xmlns="http://www.w3.org/2000/svg" xmlns:xlink="http://www.w3.org/1999/xlink" x="0px" y="0px"
	 width="598.169px" height="1032.185px" viewBox="235.24 109.716 598.169 1032.185" fill="#104e64e6" stroke="#104e64e6" stroke-width="8"
	 enable-background="new 235.24 109.716 598.169 1032.185" xml:space="preserve">
<path d="M756.12,263.72c-10.066,0-11.566-17.34-11.566-27.672s1.5-27.684,11.566-27.684c10.065,0,11.555,17.34,11.555,27.684
	C767.675,246.392,766.175,263.72,756.12,263.72z"/>
<path d="M362.03,535.84c-7.508,0-14.707-2.98-20.017-8.293c-5.309-5.309-8.293-12.508-8.293-20.016s2.984-14.707,8.293-20.017
	c5.309-5.309,12.509-8.293,20.017-8.293s14.707,2.984,20.016,8.293c5.313,5.309,8.293,12.509,8.293,20.017
	c-0.008,7.508-2.992,14.703-8.297,20.012C376.733,532.848,369.538,535.832,362.03,535.84L362.03,535.84z M362.03,491.223
	c-4.324,0-8.473,1.719-11.531,4.777s-4.777,7.207-4.777,11.531s1.719,8.473,4.777,11.531s7.207,4.777,11.531,4.777
	s8.473-1.719,11.53-4.777c3.059-3.059,4.777-7.207,4.777-11.531s-1.719-8.473-4.777-11.531
	C370.503,492.942,366.354,491.223,362.03,491.223L362.03,491.223z"/>
<path d="M786.24,846c-20.017-85.609-15.469-120.65-10.633-157.74c0.637-4.859,1.262-9.742,1.848-14.762h0.004
	c2.594-26.563,1.625-53.352-2.883-79.656c-1.391-10.344-2.711-20.113-3.457-30.312c-0.383-5.184-0.742-9.684-1.117-13.906
	c3.492-8.629,7.402-16.98,11.229-25.031c9-18.961,16.801-35.328,15.603-49.319h0.004c-1.73-19.517-1.832-39.142-0.301-58.669
	c0.84-3.401,0.723-6.969-0.336-10.309s-3.02-6.32-5.664-8.617c-3.52-2.574-7.781-3.934-12.146-3.875
	c3.602-21.926,14.902-93.312,18.492-144.36c3.527-50.316-8.762-103.44-29.219-126.34c-6.188-7.746-15.316-12.574-25.199-13.32
	c-35.664-1.477-50.066,21.156-89.664,81.453l-5.734,8.711l-0.004,0.004c-19.766,32.066-44.047,61.121-72.094,86.266
	c-8.84,0.402-17.367,3.395-24.517,8.605l-7.379,5.41c-0.672,0-1.332-0.215-2.004-0.215h-13.996
	c-5.09,0.012-10.022,1.773-13.973,4.992c-3.945,3.219-6.664,7.699-7.699,12.684c-8.602-2.074-17.676-0.621-25.199,4.043
	l-2.699,1.703v0.004c-9.656,6.055-15.508,16.668-15.469,28.066v3.336c-0.313,0.086-0.613,0.121-0.91,0.215
	c-4.988,1.578-9.441,4.508-12.859,8.469c-3.418,3.957-5.672,8.785-6.508,13.949c-17.172,5.063-34.616,9.145-52.25,12.227
	c-34.534,6.445-59.495,11.113-113.209,53.103c-25.754,20.137-39.602,42.59-41.039,66.77v-0.004
	c-0.48,22.652,7.934,44.586,23.434,61.105c2.723,3.359,67.199,82.534,99.059,112.699c16.021,15.181,24.099,15.949,33.84,15.422
	c6.852-0.359,13.97-0.816,33,15.603l0.004-0.004c29.595,23.729,62.478,43.039,97.617,57.324
	c7.781,35.516,21.31,69.522,40.047,100.68c10.056,15.5,17.324,32.641,21.478,50.641c3.742,34.923,7.547,211.2,7.586,212.99
	c0.07,3.262,2.738,5.871,6,5.867h0.133c3.309-0.07,5.934-2.809,5.867-6.117c-0.145-7.285-3.852-178.59-7.645-214.02
	c-4.215-19.613-11.978-38.289-22.896-55.117c-18.758-30.949-32.094-64.871-39.434-100.311c-7.77-44.977-17.93-89.508-30.445-133.399
	c0,0-3.805-42.793-7.633-84.707l0.004-0.004c-1.234-16.219-3.352-32.355-6.336-48.349c-0.727-3.473-1.75-6.879-3.063-10.176
	l-28.332-71.352c-2.766-6.949-4.184-14.359-4.176-21.84v-14.398c-0.004-4.738,2.043-9.246,5.609-12.363
	c3.57-3.117,8.313-4.539,13.008-3.895c4.691,0.641,8.879,3.285,11.48,7.246l20.988,31.895c0.703,1.066,1.285,2.211,1.727,3.406
	l25.586,70.645l22.895,91.5c0.863,3.145,4.074,5.023,7.238,4.234s5.117-3.957,4.402-7.137l-8.281-33.059l10.802-26.004
	c4.456-10.789,5.125-22.771,1.894-33.984l-8.53-29.508c-3.415-11.836-10.957-22.055-21.263-28.801l-25.944-16.97
	c-0.191-0.313-0.289-0.684-0.492-0.984l-20.978-31.883c-4.438-6.707-11.512-11.211-19.465-12.398v-2.594v0.004
	c0-7.27,3.746-14.023,9.914-17.867l2.711-1.703v-0.004c3.438-2.168,7.43-3.301,11.496-3.27c4.063,0.035,8.035,1.238,11.438,3.465
	l48.359,31.68l51.875,43.105v-0.004c7.922,6.551,12.953,15.948,14.016,26.172l10.802,101.7c0.43,3.223,3.352,5.516,6.582,5.172
	c3.234-0.344,5.602-3.203,5.348-6.441l-8.785-82.896l-0.227-31.871l-0.004-0.004c-0.063-6.813-2.199-13.444-6.121-19.02
	c-3.922-5.57-9.445-9.82-15.837-12.18l-18.479-6.793l-32.016-26.566l-48.156-31.586v-0.422v0.004
	c-0.004-2.688,1.059-5.266,2.957-7.164c1.898-1.902,4.473-2.973,7.156-2.977h13.934c2.422,0,4.836,0.262,7.199,0.781L595.175,323
	l73.419,29.797c5.098,2.082,9.508,5.563,12.719,10.039s5.094,9.77,5.434,15.27l6.313,107.45v-0.004c0.188,3.18,2.82,5.66,6,5.652
	h0.348c3.309-0.191,5.832-3.027,5.641-6.336l-6.313-107.459c-0.48-7.762-3.141-15.23-7.672-21.551
	c-4.535-6.316-10.758-11.23-17.957-14.172L598.707,311.6l-38.867-8.52l-0.004,0.004c5.227-3.277,11.271-5.02,17.438-5.043h42.742
	c7.805,0.008,15.362,2.746,21.358,7.742l56.398,47.051h0.004c4.754,3.934,8.117,9.289,9.598,15.277
	c6.637,26.461,23.27,91.065,34.344,119.29v-0.004c10.988,24.229,16.91,50.453,17.402,77.055c0.781,10.57,2.172,20.978,3.602,31.031
	h-0.004c4.344,25.315,5.301,51.098,2.844,76.668c-0.574,4.969-1.199,9.793-1.824,14.594c-4.969,38.207-9.602,74.305,10.801,162
	c22.599,96.637,46.728,217.2,46.98,218.4c0.57,2.789,3.02,4.793,5.867,4.801c0.406,0.004,0.809-0.039,1.203-0.121
	c3.246-0.652,5.348-3.809,4.703-7.055c-0.254-1.152-24.435-121.891-47.056-218.771H786.24z M474.77,494.14
	c1.063,2.641,1.895,5.371,2.484,8.16c2.871,15.552,4.915,31.246,6.117,47.017c3.828,41.93,7.633,84.684,7.86,85.848
	c0.156,0.574,16.094,54.84,28.401,122.4h0.004c-31.301-13.355-60.629-30.926-87.168-52.224c-21-18.108-30.77-19.116-41.508-18.479
	c-6.313,0.324-11.387,0.637-24.898-12.156c-31.284-29.629-97.344-110.75-98.397-112.02h-0.004
	c-13.262-14.234-20.562-33.008-20.398-52.465c1.297-20.543,13.559-40.043,36.445-57.927c51.406-40.188,73.934-44.397,108-50.762
	l-0.004,0.004c16.742-2.961,33.316-6.773,49.668-11.422v6.422v-0.004c-0.004,8.996,1.699,17.91,5.016,26.27L474.77,494.14z
	 M550.696,448.421l8.543,29.521h-0.004c2.473,8.602,1.957,17.789-1.461,26.062l-4.586,11.074l-9.91-39.517l-20.56-56.758
	l11.677,7.645c7.883,5.141,13.664,12.938,16.297,21.97L550.696,448.421z M705.496,343.611l-56.398-47.039l-0.004-0.004
	c-8.164-6.786-18.438-10.508-29.055-10.523h-26.902c24.152-24.059,45.574-50.711,63.875-79.477l5.746-8.723
	c38.027-57.758,50.892-77.195,79.199-76.02h0.004c6.641,0.676,12.715,4.055,16.801,9.336c18.191,20.398,29.474,70.871,26.185,117.49
	c-3.77,53.711-16.224,130.44-18.938,146.73c-3.176,0.777-6.305,1.738-9.371,2.882c-9.977,3.453-18.426,10.293-23.879,19.332
	c-5.641-20.651-10.703-40.488-13.703-52.453h-0.004c-2.109-8.445-6.863-15.992-13.569-21.539L705.496,343.611z M738.496,438.076
	l-0.004-0.004c0.492-6.43,2.871-12.57,6.84-17.652c3.969-5.086,9.348-8.883,15.469-10.918c15.91-6,21.023-3.359,22.211-2.398
	c2.113,1.691,1.883,5.652,1.57,7.871h0.004c-1.676,20.445-1.605,40.996,0.215,61.426c-1.602,15.277-6.516,30.021-14.402,43.203
	c-1.129,2.398-2.269,4.871-3.422,7.309l0.004-0.004c-3.313-14.996-8.012-29.647-14.038-43.772
	c-4.273-10.957-9.411-27.457-14.462-45.063L738.496,438.076z"/>
</svg>
