<?xml version="1.0" encoding="UTF-8"?>
<svg width="1200pt" height="1200pt" version="1.1" viewBox="0 0 1200 1200" xmlns="http://www.w3.org/2000/svg" fill="#104e64e6">
 <path d="m579.49 260.16h71.258v27.84h-71.258z"/>
 <path d="m625.08 157.39 71.148 71.148-19.688 19.688-71.148-71.148z"/>
 <path d="m708.17 131.47h27.84v71.242h-27.84z"/>
 <path d="m1138.3 150.55-19.691-19.68-225.48 225.48 10.297 10.309-28.523-28.535 2.7109 2.7109 225.48-225.48-0.46875-0.46875h0.011719l-19.691-19.691-225.49 225.48-15.504-15.516 225.48-225.48-19.668-19.68-227.31 227.3c-4.9805-2.2422-10.391-3.4453-16.008-3.4453-10.453 0-20.281 4.0664-27.684 11.461-6.6836 6.6836-10.43 15.191-11.27 23.93-9.0469 0.85156-17.426 4.7773-23.93 11.281-2.4258 2.4258-4.4141 5.1016-6.0703 7.9219-9.5625-2.4609-19.934-3.9961-31.094-3.9961-33.742 0-65.664 14.074-92.281 40.715l-31.234 31.234c-4.6914-4.6914-12.277-4.6914-16.969 0l-127.2 127.19c-4.6914 4.6914-4.6914 12.277 0 16.969l-44.555 44.555c-3.8164 3.8164-23.566 24.574-34.078 56.207-8.3867 25.273-8.6172 50.914-1.2344 75.059-0.35938 1.6211-0.74219 3.2266-0.88672 4.8828-9.0469 0.86328-17.426 4.7891-23.93 11.293-7.3906 7.3789-11.461 17.219-11.461 27.672 0 5.8438 1.3203 11.484 3.7422 16.633l-262.57 262.57 19.691 19.691 260.91-260.91 15.527 15.516-260.94 260.91 20.16 20.16 260.91-260.91 15.516 15.516-260.91 260.9 19.68 19.691 262.74-262.75c4.9805 2.2305 10.402 3.4453 16.02 3.4453 10.453 0 20.281-4.0781 27.672-11.461 6.5039-6.5039 10.43-14.891 11.281-23.93 9.0469-0.85156 17.426-4.7773 23.93-11.281 5.6172-5.6172 9.3008-12.648 10.754-20.27 102.72-12.602 251.32-94.223 322.39-165.29 43.129-43.117 57.59-97.609 41.844-157.6-2.5078-9.5273-5.6758-18.574-9.2148-27.203 3.0859-1.7383 5.9531-3.875 8.5195-6.4453 6.5039-6.5039 10.43-14.879 11.281-23.914 9.0352-0.85156 17.426-4.7773 23.914-11.281 7.3906-7.3906 11.461-17.219 11.461-27.672 0-5.8555-1.3086-11.496-3.7422-16.633zm-386.91 245.18 15.516 15.516-44.699 44.688c-0.71875 0.73047-1.3789 1.4883-2.0391 2.2578-4.2734 2.3047-9.9492 1.7383-13.477-1.8008-2.1367-2.1367-3.3008-4.9688-3.3008-7.9922 0-3.0234 1.1758-5.8555 3.3008-7.9922zm-289.22 146.34 110.23-110.22 52.598 52.598-110.23 110.23zm217.26-76.75c1.8828 3.9375 4.4023 7.5703 7.5859 10.754 6.4922 6.5039 14.879 10.441 23.93 11.293 0.85156 9.0352 4.7773 17.426 11.27 23.914 7.3906 7.3906 17.23 11.473 27.684 11.473 4.0547 0 8.0039-0.625 11.746-1.8008 5.7734 25.344-4.2734 39.73-13.32 48.77-48.84 48.828-133.43 95.578-199.74 118.91-0.046874-0.046874-0.085937-0.097656-0.13281-0.15625-6.5039-6.4922-14.891-10.43-23.93-11.281-0.85156-9.0352-4.7773-17.426-11.281-23.914-3.8633-3.8633-8.3281-6.7422-13.117-8.6523zm78.445 26.281c-4.2461 4.2617-11.699 4.2734-15.973 0-2.1367-2.1367-3.3008-4.9688-3.3008-7.9922 0-1.9336 0.52734-3.7695 1.4414-5.4102 0.78125-0.68359 1.5859-1.3672 2.3281-2.125l44.688-44.688 15.527 15.516zm-126.09-96.746c21.301-21.301 46.402-32.555 72.613-32.555 9.5156 0 18.383 1.4766 26.52 3.7578 0.5625 2.7852 1.4648 5.5078 2.6406 8.1484l-46.535 46.523c-0.99609 0.99609-1.9219 2.0508-2.7969 3.1445-4.3672 2.5938-8.6992 6.0117-13.055 10.355l-31.234 31.234-39.371-39.371zm-247.27 265.24c8.6875-26.137 25.453-43.402 27.336-45.289l44.543-44.555 39.371 39.383-44.543 44.543c-3.0586 3.168-8.4727 9.5156-12.191 17.965l-27.492 27.48c-5.1484-2.4102-10.777-3.7422-16.633-3.7422-5.3398 0-10.523 1.0781-15.289 3.1094 0.023438-0.011719 0.046875-0.023438 0.085938-0.046876-1.0547-12.727 0.48047-25.77 4.8125-38.848zm112.37 20.844c0 1.9453-0.52734 3.7695-1.4414 5.4258-0.79297 0.68359-1.5859 1.3555-2.3281 2.1133l-44.699 44.699-15.527-15.527 44.699-44.699c4.4023-4.3906 11.578-4.4023 15.984 0 2.1367 2.1445 3.3125 4.9766 3.3125 7.9883zm-57.852 168.61c-4.2617 4.2617-11.711 4.2617-15.973 0l-71.328-71.328c-2.1367-2.1367-3.3008-4.9688-3.3008-7.9922 0-3.0234 1.1758-5.8555 3.3008-7.9922s4.9688-3.3008 7.9922-3.3008c1.9336 0 3.7578 0.52734 5.3984 1.4297 0.68359 0.79297 1.3672 1.5859 2.125 2.3281l71.328 71.328c0.74219 0.74219 1.5352 1.4414 2.3281 2.125 0.91016 1.6445 1.4414 3.4805 1.4414 5.4102 0 3.0117-1.1641 5.8438-3.3125 7.9922zm35.219-35.207c-3.5391 3.5156-9.2148 4.0938-13.488 1.7773-0.66016-0.75781-1.3086-1.5234-2.0391-2.2422l-71.316-71.328c-0.74219-0.74219-1.5469-1.4414-2.3398-2.125-0.89844-1.6562-1.4297-3.4805-1.4297-5.4102 0-3.0234 1.1758-5.8555 3.3008-7.9922 2.125-2.1367 4.9688-3.3008 7.9922-3.3008 3.0117 0 5.8438 1.1758 7.9922 3.3008l71.328 71.328c2.1367 2.1367 3.3008 4.9688 3.3008 7.9922 0 3.0195-1.1758 5.875-3.3008 8zm9.8281-45.516-15.516-15.516 44.699-44.699c0.73047-0.71875 1.3789-1.4883 2.0391-2.2578 4.2852-2.293 9.9492-1.7383 13.488 1.7891 2.1367 2.1367 3.3008 4.9688 3.3008 7.9922 0 3.0117-1.1758 5.8555-3.3008 7.9805zm323.32-140.05c-65.27 65.258-204.94 142.69-300.42 156.54l41.484-41.496c7.3906-7.3789 11.473-17.219 11.473-27.672 0-0.58984-0.070312-1.1641-0.097656-1.7383 75.125-26.965 163.43-80.234 208.19-125.01 27.035-27.023 26.855-58.535 17.531-86.09l38.363-38.375c2.3047 1.0781 4.7148 1.9453 7.1992 2.5547 22.152 49.371 27.48 110.09-23.723 161.29zm41.16-191.25c-4.2617 4.2734-11.711 4.2734-15.973 0l-71.34-71.328c-4.4023-4.4023-4.4023-11.566 0.011719-15.984 2.1367-2.1367 4.9688-3.3008 7.9805-3.3008 1.9453 0 3.7812 0.52734 5.4375 1.4414 0.67187 0.79297 1.3438 1.5859 2.1016 2.3281l71.328 71.328c0.74219 0.74219 1.5352 1.4414 2.3281 2.125 0.91016 1.6445 1.4414 3.4805 1.4414 5.4102-0.003906 3-1.1797 5.8438-3.3164 7.9805zm35.207-35.207c-3.5273 3.5273-9.2031 4.0938-13.477 1.7891-0.66016-0.76953-1.3203-1.5234-2.0391-2.2578l-71.316-71.328c-0.74219-0.74219-1.5352-1.4414-2.3281-2.1133-2.3516-4.2852-1.7656-9.7812 1.8594-13.414 2.1367-2.125 4.9688-3.3008 7.9922-3.3008 3.0117 0 5.8555 1.1758 7.9922 3.3008l71.316 71.34c2.1367 2.1367 3.3125 4.9688 3.3125 7.9922 0 3.0234-1.1875 5.8555-3.3125 7.9922z"/>
</svg>
