<?xml version="1.0" encoding="UTF-8"?>
<svg width="1200pt" height="1200pt" version="1.1" viewBox="0 0 1200 1200" xmlns="http://www.w3.org/2000/svg" fill="#104e64e6" stroke="#104e64e6" stroke-width="8" >
 <path d="m408.77 214.26c2.0508 3.4336 3.9844 6.6836 5.9023 9.3242 8.4414 7.4062 18.594 12.598 29.543 15.094 14.355 3.9297 27.758 10.75 39.387 20.039 6.4336 7.6797 23.52 12.336 50.879 19.273 29.867 7.5703 70.801 18 74.762 33.984 4.3438 17.473-2.3984 41.27-7.9219 60.371-5.0508 17.629-7.5117 27.098-4.1289 33.109 0.5 0.91406 1.168 1.7266 1.9688 2.3984 6.2188 3.5664 13.41 5.0586 20.531 4.2617 27.48 0.30078 99.863-9.9375 115.95-37.055 3.9375-6.6367 8.1016-10.332 12.395-10.992 8.0156-1.1992 17.688 7.4883 25.465 14.496v-0.003906c2.8164 2.6445 5.7812 5.125 8.8789 7.4297 9.9609 6.9727 11.844 10.57 12.191 11.543-1.2734 1.1992-8.7227 5.7852-47.902 4.4766l-0.39453 12c39.035 1.3086 56.398-2.3984 59.82-12.742 3.2031-9.6016-7.3086-18.457-16.801-25.117-2.6953-2.0273-5.2773-4.2031-7.7305-6.5156-9.6602-8.6992-21.684-19.512-35.316-17.438-9.1641 2.0859-16.871 8.2539-20.914 16.742-6.2266 10.488-28.906 20.398-60.672 26.52-18.664 4.4844-37.969 5.6523-57.035 3.4531 0.95703-7.8984 2.7227-15.68 5.2656-23.219 5.8555-20.496 13.199-45.996 8.0273-66.59-5.7227-22.992-47.027-33.48-83.461-42.719-18.91-4.8008-40.367-10.234-44.617-15.336-8.7969-10.5-27.77-17.473-44.508-23.605l0.003906 0.003907c-8.4844-2.4375-16.57-6.1016-24-10.875-1.5977-2.207-3.3125-5.1016-5.3164-8.3984-6.8125-13.523-17.016-25.047-29.617-33.445-9.3711-5.375-22.801-29.676-34.57-51.121v0.003906c-6.9453-13.492-14.754-26.523-23.375-39.012-2.5508-4.3203-6.2461-7.8477-10.676-10.195-4.4297-2.3438-9.4258-3.418-14.43-3.1016-20.473 2.6875-34.043 34.609-35.52 38.242l11.113 4.5352c3.0703-7.5234 14.398-29.352 25.969-30.875 4.4766-0.58984 9.1797 2.3164 13.98 8.6406h-0.003906c8.2852 12.012 15.801 24.531 22.512 37.488 13.801 25.043 26.832 48.695 39.121 55.738 10.77 7.4141 19.461 17.461 25.25 29.188z"/>
 <path d="m564.24 421.36-11.594-3.1094h0.003907c-6 16.938-16.348 32-30 43.684-8.7227 7.9062-5.7852 13.777-4.1172 15.938v-0.003907c0.44141 0.56641 0.94922 1.0781 1.5117 1.5234 6.3711 5.1484 20.051 3.0234 30.852 0.15625 18.219-5.1719 35.508-13.172 51.242-23.711l1.8359-1.1992c35.664-23.496 61.414-40.453 97.586-3.1094h-0.003906c8.7031 10.418 16.586 21.492 23.57 33.133 21.348 32.879 50.594 77.902 92.652 108.32l7.043-9.7305c-40.246-29.102-68.785-73.043-89.629-105.13-7.3555-12.32-15.719-24.008-25.008-34.945-43.094-44.508-76.957-22.199-112.8 1.4297l-1.8477 1.1992c-19.035 13.672-41.273 22.211-64.57 24.793 15.273-13.16 26.762-30.156 33.273-49.238z"/>
 <path d="m542.69 985.32c12.348-4.6797 23.074 2.7109 33.457 9.8633 9.0234 6.2266 18.359 12.648 27.602 7.9062 23.34-11.93 32.484-20.398 31.523-29.449-1.043-9.8281-13.199-13.055-23.891-15.898h-0.003906c-2.8633-0.64063-5.6719-1.5078-8.3984-2.5898-21.059-17.387-22.871-36.719-5.8789-62.688 12.664-15.5 26.5-30.008 41.387-43.395 36-34.801 76.801-74.34 80.508-99.289 2.5781-17.113-14.676-43.895-52.801-81.887-27.121-27.059-55.285-50.016-55.57-50.242l-7.5703 9.3242c42.121 34.223 107.61 97.355 104.04 121.02-3.1562 20.93-45.84 62.27-77.004 92.398-15.582 13.941-29.988 29.141-43.07 45.445-20.207 30.875-17.426 57.301 8.2812 78.516 3.9414 2.4648 8.3203 4.1445 12.898 4.957 5.2656 1.0273 10.32 2.9336 14.953 5.6406-0.49219 1.1992-3.7695 6.5625-24.973 17.387-2.9141 1.5-9.2539-2.8672-15.371-7.0938-11.102-7.6445-26.293-18.121-44.531-11.195-3.3242 1.4375-7.0508 1.6211-10.5 0.51562-3.4453-1.1016-6.375-3.418-8.2461-6.5156-4.9219-8.5547-2.3164-25.297 21.191-44.34l-7.5586-9.3359c-29.34 23.773-31.656 46.402-24 59.664 1.9414 3.4102 4.625 6.3438 7.8477 8.582 7.5781 5.1133 17.203 6.125 25.68 2.6992z"/>
 <path d="m545.76 244.68c-3.2695-14.562-1.457-29.809 5.1328-43.199 5.457-8.418 14.137-14.219 24-16.031 19.895-3.9258 40.512 0.87891 56.617 13.199 8.8047 5.5039 15.844 13.418 20.293 22.801-0.875 13.34-2.8438 26.582-5.8945 39.598-0.87109 7.4141 0.51953 14.918 3.9844 21.527 0.67188 1.6445 1.5859 3.875 2.0391 5.4258h0.003906c-1.9844 0.42188-3.9844 0.73828-6 0.94922-5.9141 0.71875-12 1.4648-13.824 6.875-1.3438 5.1328-2.3789 10.344-3.1094 15.602l11.879 1.7656c0.46875-3.2031 1.3672-8.5078 2.1133-11.699 1.1992-0.25391 3.0586-0.46875 4.3906-0.625 6.1797-0.75781 13.199-1.6094 15.887-7.0938 2.2695-4.6094 0.17969-9.7578-2.2422-15.73v-0.003907c-2.3398-4.3867-3.5195-9.3047-3.418-14.277 3.2461-13.875 5.3203-27.996 6.2031-42.219 0.097656-8.5078-10.883-21.289-21.145-29.555-19.418-16.594-45.395-23.324-70.43-18.254-13.035 2.4805-24.461 10.242-31.57 21.445-8.3086 16.113-10.641 34.652-6.5742 52.32z"/>
 <path d="m937.48 695.22c-3.7656 1.1211-6.4844 4.3945-6.8906 8.3008s1.5781 7.6719 5.0312 9.543c3.4531 1.8711 7.6914 1.4766 10.742-0.99609 3.0469-2.4766 4.3086-6.543 3.1875-10.305-0.73047-2.4688-2.418-4.5469-4.6797-5.7734-2.2656-1.2266-4.9219-1.5039-7.3906-0.76953zm3.875 13.066v0.003906c-1.5195 0.44531-3.1641-0.066406-4.1602-1.2969-0.99609-1.2344-1.1523-2.9453-0.39844-4.3398 0.75781-1.3945 2.2812-2.1953 3.8594-2.0312 1.5742 0.16406 2.8984 1.2617 3.3516 2.7812 0.30078 1 0.19141 2.0781-0.30859 2.9961-0.49609 0.91797-1.3398 1.5977-2.3438 1.8906z"/>
 <path d="m1016.6 638.51c-9.4805-13.547-18.191-10.535-23.398-8.7344l-0.66016 0.22656c-11.531 3.9102-31.199 10.453-52.547 17.508 0.60156-5.1797-0.45703-10.414-3.0234-14.953-10.188-19.02-43.066-38.258-93.602-38.34v12c31.766 0 71.293 10.094 83.016 32.004 2.1172 2.9219 2.5273 6.7422 1.082 10.047-2.0742 3.1211-7.9805 4.5469-15.793 3.8164-29.785-2.7852-34.402-1.8945-49.199 2.3984-12.141 3.5508-24.465 6.4453-36.914 8.6758-9.8398 1.8359-22.668 2.6758-27.863-3.8047-5.6055-6.9844-1.4883-21.023 0.5625-25.836l1.6914-3.9492-3.168-2.8789c-27.383-25.141-57.098-47.621-88.738-67.141-24.684-15.602-37.066-23.52-44.184-45.793v0.003906c-1.0391-4.5-4.582-7.9961-9.0977-8.9648-12.828-2.3984-29.867 17.641-58.895 53.316-11.133 14.48-23.195 28.215-36.121 41.121-18.938 16.922-59.867 39.035-95.004 30.625-23.473-5.6289-41.398-24-53.281-54.492-43.27-110.96 20.582-281.36 21.207-283.13l-11.223-4.2344c-11.859 33.152-21.09 67.191-27.598 101.8-14.652 77.496-12.504 141.41 6.4062 189.96 6.3867 18.285 17.453 34.578 32.102 47.254 8.6406 7.0078 18.746 11.984 29.566 14.555 42.719 10.234 87.898-17.34 105.8-33.348 13.43-13.301 25.941-27.496 37.453-42.492 10.199-12.551 20.746-25.512 29.762-35.004 11.074-11.664 15.742-13.68 17.184-14.016h-0.003906c0.11328 0.23828 0.21094 0.48438 0.28906 0.73438 8.3984 26.398 23.773 36.168 49.199 52.285v-0.003906c29.918 18.43 58.082 39.566 84.133 63.145-4.6094 11.094-3.6445 23.723 2.6055 33.984 7.1992 8.9531 20.398 11.676 39.469 8.125 12.824-2.3008 25.52-5.2852 38.027-8.9414 9.0742-3.125 18.723-4.2344 28.27-3.25-15.719 5.2305-29.113 9.7305-36.602 12.359h0.003906c-6.2617 1.5742-11.621 5.6172-14.855 11.207-2.3164 7.3008-1.6445 15.219 1.8711 22.02 0.64844 1.8477 1.2617 3.6016 1.7656 5.2812 2.0703 4.5586 5.7344 8.2031 10.305 10.246 2.4727 1.1797 4.6367 2.9141 6.3242 5.0664 0.19141 0.5 0.34375 1.0117 0.45703 1.5352 1.1992 4.9922 3.6953 10.523 16.922 12.852 6.1094 1.1719 11.906 3.6289 17.004 7.1992 5.125 3.5273 10.867 6.0547 16.93 7.4531 15.223 3.5586 31.098 3.2031 46.141-1.043 5.2891-1.5625 10.395-3.6992 15.215-6.3711 9.2539-4.8594 17.141-11.953 22.945-20.641 4.0977-8.0898 9.1328-15.672 15-22.586 7.1016-10.035 10.707-22.129 10.262-34.414 0.98828-11.938-1.5117-23.902-7.2031-34.441zm-7.4023 64.922c-6.1758 7.2383-11.473 15.188-15.781 23.676-5.2852 7.7109-12.379 14.012-20.664 18.348-17.613 9.2891-38.047 11.715-57.348 6.8047-5.4102-1.2656-10.531-3.543-15.094-6.7109-5.7227-3.9531-12.211-6.6562-19.047-7.9297-10.633-1.8711-11.52-5.4258-12.301-8.543l0.003906-0.003907c-0.19141-0.88281-0.46875-1.75-0.82812-2.5781-2.0742-3.2812-5.043-5.9062-8.5586-7.5586-3.4219-2.0898-6.9727-4.2617-7.7773-6.9609-0.53906-1.8359-1.1992-3.7305-1.8477-5.5547v-0.003907c-2.8555-5.3984-3.6133-11.664-2.1211-17.59 2.6172-4.1641 6.7656-7.1289 11.555-8.2578 9.457-3.3125 28.32-9.6016 49.535-16.656l1.6211 0.13281c4.8867 1.1875 10.012 0.96094 14.777-0.65234 4.7617-1.6172 8.9688-4.5508 12.125-8.4648 0.12109-0.17969 0.14453-0.38281 0.25391-0.5625 22.895-7.5859 44.398-14.711 56.699-18.887l0.69531-0.23828c4.8008-1.6562 9.793-3.3828 16.801 6.6016 8.7227 12.484 8.6406 48.918-2.6523 61.59z"/>
 <path d="m934.09 683.86c-5.5 1.625-10.125 5.3711-12.859 10.41s-3.3555 10.957-1.7227 16.453c1.6328 5.4961 5.3828 10.117 10.422 12.844 5.043 2.7305 10.961 3.3438 16.457 1.707 5.4922-1.6367 10.109-5.3945 12.836-10.438 2.7227-5.043 3.3281-10.965 1.6836-16.457-1.6367-5.4766-5.3789-10.078-10.406-12.801-5.0273-2.7227-10.93-3.3398-16.41-1.7188zm10.645 35.797h-0.003906c-4.0117 1.1914-8.332 0.74219-12.012-1.2539-3.6797-1.9922-6.4141-5.3672-7.6094-9.3789-1.1914-4.0117-0.73828-8.332 1.2539-12.012 1.9961-3.6797 5.3672-6.418 9.3789-7.6094 4.0117-1.1914 8.3359-0.74219 12.016 1.2539 3.6797 1.9922 6.4141 5.3672 7.6055 9.3789 1.1875 4.0117 0.73047 8.332-1.2617 12.008-1.9922 3.6797-5.3633 6.4141-9.3711 7.6133z"/>
 <path d="m993.01 640.05c-18.184 14.398-38.785 25.441-60.84 32.617-22.254 8.9688-45.906 13.973-69.887 14.785-1.5781-0.074219-2.9219 1.1328-3.0195 2.707-0.097656 1.5781 1.0859 2.9414 2.6602 3.0625 18.836-0.23437 37.516-3.4766 55.332-9.5977 5.2461-1.6016 10.848-3.4219 16.801-5.4609h-0.003906c22.812-7.4531 44.109-18.918 62.895-33.852 1.1641-1.0938 1.2227-2.9258 0.12891-4.0938-1.0898-1.1641-2.9219-1.2227-4.0898-0.12891z"/>
 <path d="m273.77 174.53c-3.0117 1.2812-4.9531 4.25-4.9219 7.5234 0.03125 3.2695 2.0312 6.1992 5.0664 7.4219 3.0352 1.2227 6.5078 0.49609 8.7969-1.8398 2.2891-2.3359 2.9492-5.8242 1.6641-8.832-1.75-4.1094-6.4961-6.0195-10.605-4.2734zm4.4531 10.453h-0.003906c-1.2188 0.51953-2.6289 0.25391-3.5781-0.67188-0.94531-0.92969-1.2422-2.3359-0.74609-3.5625 0.49609-1.2305 1.6797-2.043 3.0078-2.0547 1.3242-0.011718 2.5273 0.77344 3.0469 1.9922 0.69922 1.6641-0.070313 3.582-1.7305 4.2969z"/>
 <path d="m293.36 131.53c-19.32 2.5547-53.734 9.7188-67.199 29.016-5.3594 7.6875-7.0781 17.336-4.7031 26.402 2.8477 15.238 13.246 27.984 27.598 33.84 11.57 4.2148 23.781 6.4062 36.098 6.4805 2.5781 0.14453 5.0039 0.27734 7.0547 0.45703v-0.003906c3.4297 0.32031 6.8867-0.23438 10.047-1.6055 2.4805-1.082 4.7852-2.5312 6.8398-4.2969 12.316-12.652 19.527-29.41 20.242-47.051 2.0781-12.938-1.7734-26.121-10.488-35.906-6.8945-6.2695-16.312-8.9805-25.488-7.332zm31.199 42.781c-0.6875 16.348-7.2734 31.895-18.539 43.762-3.6055 3.3633-8.4336 5.0977-13.355 4.8008-2.1367-0.20312-4.6094-0.33594-7.1992-0.48047-11.758-0.054687-23.418-2.1211-34.477-6.1055-12.969-5.1992-22.352-16.707-24.828-30.457-2.0352-7.7305-0.58203-15.965 3.9727-22.535 5.9844-7.5586 13.93-13.328 22.969-16.68 13.129-5.1758 26.867-8.6406 40.883-10.309 7.7422-1.4648 15.723 0.75391 21.602 6 7.625 8.7891 10.934 20.523 9.0117 32.004z"/>
 <path d="m269.9 165.45c-4.3984 1.8594-7.8789 5.3945-9.6719 9.8242-1.793 4.4297-1.7539 9.3906 0.11719 13.789 1.8672 4.3984 5.4062 7.875 9.8398 9.6602 4.4297 1.7852 9.3906 1.7344 13.789-0.13672 4.3945-1.875 7.8633-5.4219 9.6445-9.8594 1.7773-4.4336 1.7188-9.3945-0.16016-13.785-1.875-4.375-5.4062-7.832-9.8203-9.6094-4.4141-1.7812-9.3516-1.7383-13.738 0.11719zm12.18 28.621 0.003907-0.003906c-4.9141 2.1172-10.617 1.0586-14.445-2.6797-3.8242-3.7383-5.0195-9.4141-3.0195-14.375 2-4.9609 6.793-8.2266 12.145-8.2695 5.3477-0.039062 10.191 3.1523 12.266 8.082 2.8125 6.6797-0.28906 14.379-6.9453 17.242z"/>
 <path d="m624.9 1060c-3.4414 0-6.543 2.0742-7.8594 5.25-1.3164 3.1797-0.58984 6.8398 1.8438 9.2734 2.4336 2.4336 6.0938 3.1602 9.2734 1.8438 3.1797-1.3164 5.25-4.418 5.25-7.8594-0.003906-4.6953-3.8086-8.5-8.5078-8.5078zm0 12c-1.3906 0-2.6484-0.83984-3.1797-2.125-0.53516-1.2891-0.23828-2.7695 0.74609-3.7539s2.4648-1.2812 3.7539-0.74609c1.2852 0.53125 2.125 1.7891 2.125 3.1797-0.027344 1.8828-1.5586 3.3984-3.4453 3.3984z"/>
 <path d="m624.9 1049.6c-5.0117 0-9.8164 1.9883-13.363 5.5352-3.543 3.543-5.5352 8.3516-5.5352 13.363 0 5.0117 1.9922 9.8203 5.5352 13.363 3.5469 3.5469 8.3516 5.5352 13.363 5.5352 5.0156 0 9.8203-1.9883 13.367-5.5352 3.543-3.543 5.5352-8.3516 5.5352-13.363-0.007812-5.0117-2-9.8125-5.543-13.359-3.543-3.543-8.3477-5.5352-13.359-5.5391zm0 32.723c-5.5898-0.003906-10.625-3.375-12.762-8.543-2.1367-5.1641-0.94922-11.109 3.0039-15.062 3.957-3.9492 9.8984-5.1289 15.062-2.9883 5.168 2.1406 8.5312 7.1797 8.5312 12.77-0.011719 7.6328-6.1992 13.816-13.836 13.824z"/>
 <path d="m702.32 1015.2c-13.66 7.3672-28.262 12.824-43.402 16.227-29.102 6.1328-48.121-7.5859-70.141-23.449-6.8164-4.9062-13.859-9.9844-21.504-14.676-7.0352-5.168-16.102-6.7031-24.445-4.1406-7 2.8633-12.359 8.7031-14.617 15.926-3.3594 7.3086-4.3984 15.469-2.9805 23.387 1.418 7.9219 5.2266 15.215 10.914 20.902 0.96484 0.9375 1.8125 1.9883 2.5195 3.1328 1.2812 3.5391 2.3789 7.1445 3.2891 10.801 0.91016 3.3125 1.8477 6.7578 2.8906 9.8633 1.0039 3.9258 3.0508 7.5039 5.9258 10.359 2.8789 2.8516 6.4727 4.8711 10.406 5.8398 3.2656 0.81641 4.2461 3.0586 5.7227 6.9492 1.0273 3.5469 3.0273 6.7383 5.7734 9.2031 2.6289 1.8398 5.7539 2.8359 8.9648 2.8555 3.9414-0.035156 7.7383 1.4844 10.57 4.2266 4.6523 4.7188 10.438 8.168 16.801 10.02 2.9336 0.70703 5.9688 0.89453 8.9648 0.55078 2.7461-0.61719 5.6172 0.14844 7.6914 2.0508 3.5391 2.582 7.8672 3.8555 12.238 3.6016 4.3633-0.11328 8.6992-0.73828 12.914-1.8711l0.92578-0.21484c36.863-8.3984 55.477-19.57 71.137-42.602h-0.003906c8.5195-12.309 13.578-26.676 14.652-41.605 1.5859-11.664-2.25-23.414-10.414-31.895-5.918-4.9102-13.395-1.1289-24.793 4.5586zm16.32 66.109c-15.023 22.078-32.195 32.305-68.074 40.5l-0.98437 0.23828c-4.1992 1.0195-15.348 3.7188-20.723-0.75781l-0.003906 0.003907c-2.3711-2.1758-5.4805-3.3711-8.6992-3.3359-0.88672 0-1.7539 0.070313-2.6172 0.13281-2.4531 0.29297-4.9375 0.15234-7.3438-0.42188-5.4688-1.6055-10.43-4.5977-14.398-8.6875-3.6484-3.5781-8.5352-5.6094-13.645-5.6758-2.2266 0.035156-4.418-0.58203-6.3008-1.7773-2.0195-1.918-3.4727-4.3555-4.1992-7.043-1-4.7891-4.543-8.6484-9.2266-10.055-3.1094-0.75-5.9453-2.3477-8.1992-4.6094-2.2539-2.2656-3.8359-5.1094-4.5703-8.2188-0.99609-2.9883-1.9219-6.3477-2.8086-9.6016-0.96484-3.8242-2.125-7.5977-3.4805-11.305-0.88281-1.7344-2.0547-3.3086-3.4688-4.6562-5.0781-5.0391-8.4688-11.531-9.6992-18.578-1.2305-7.0508-0.23828-14.309 2.8359-20.77 1.8047-5.7227 6.0312-10.367 11.559-12.707 6.8867-1.9805 14.305-0.60547 20.027 3.707 7.4883 4.5977 14.398 9.6016 21.191 14.473 18.383 13.199 35.914 25.883 59.398 25.883 4.9727-0.023437 9.9258-0.56641 14.785-1.6172 15.574-3.4805 30.594-9.082 44.641-16.656 10.465-5.2578 16.055-7.8828 19.199-5.2188 11.988 10.246 12.852 40.246-5.1953 66.801z"/>
 <path d="m606.24 1090.6c-1.3477 0.17188-2.3203 1.3828-2.1992 2.7383 0.12109 1.3594 1.2969 2.375 2.6562 2.3008 4.9375-0.64453 9.5781 2.5039 10.801 7.332 0.23828 1.1797 1.2773 2.0312 2.4844 2.0273 0.16797 0.019531 0.33594 0.019531 0.50391 0 1.3672-0.27734 2.2539-1.6055 1.9805-2.9766-0.78125-3.5898-2.8789-6.7578-5.8828-8.875-3.0078-2.1172-6.6992-3.0234-10.344-2.5469z"/>
 <path d="m557.41 1052.2c-1.3438 0.17578-2.3125 1.3828-2.1914 2.7344 0.11719 1.3516 1.2812 2.3672 2.6367 2.3047 1.7266-0.078125 3.4492 0.16406 5.0898 0.71094 3.0195 0.91406 5.2422 3.4883 5.7109 6.6094 0.23438 1.1875 1.2734 2.043 2.4844 2.043 0.16797 0.015625 0.33594 0.015625 0.50391 0 1.3672-0.27734 2.25-1.6094 1.9805-2.9766-0.77734-3.5938-2.875-6.7617-5.8789-8.875-3.0039-2.1172-6.6914-3.0273-10.336-2.5508z"/>
 <path d="m578.18 1076.1c-0.68359 0.042969-1.3203 0.35938-1.7656 0.87891-0.44531 0.51953-0.66016 1.1992-0.59766 1.8789 0.0625 0.68359 0.40234 1.3125 0.93359 1.7383 0.53516 0.42969 1.2188 0.625 1.8984 0.54297 4.9375-0.64453 9.5781 2.5039 10.801 7.332 0.23828 1.1797 1.2773 2.0273 2.4844 2.0273 0.16016 0.015625 0.32812 0.015625 0.49219 0 0.65625-0.12891 1.2383-0.51562 1.6094-1.0742 0.375-0.55859 0.51172-1.2422 0.38281-1.9023-0.78125-3.5938-2.8867-6.7617-5.8945-8.875-3.0039-2.1172-6.6992-3.0273-10.344-2.5469z"/>
</svg>
