<?xml version="1.0" encoding="UTF-8"?>
<svg width="1200pt" height="1200pt" version="1.1" viewBox="0 0 1200 1200" xmlns="http://www.w3.org/2000/svg">
 <path d="m1152 204h-1104v792h1104zm-48 48v583.08l-235.56-241.8-161.16 138.72-264.96-207.36-346.32 339.36v-612zm-1008 696v-17.039l349.8-342.96 262.92 205.92 156.84-134.76 238.44 244.68v44.16z"/>
 <path d="m939.96 540c31.824 0 62.348-12.645 84.852-35.148 22.504-22.504 35.148-53.027 35.148-84.852s-12.645-62.348-35.148-84.852c-22.504-22.504-53.027-35.148-84.852-35.148-31.828 0-62.348 12.645-84.855 35.148-22.504 22.504-35.145 53.027-35.145 84.852s12.641 62.348 35.145 84.852c22.508 22.504 53.027 35.148 84.855 35.148zm0-192c19.094 0 37.406 7.5859 50.91 21.09 13.504 13.5 21.09 31.816 21.09 50.91s-7.5859 37.41-21.09 50.91c-13.504 13.504-31.816 21.09-50.91 21.09-19.098 0-37.41-7.5859-50.914-21.09-13.5-13.5-21.086-31.816-21.086-50.91s7.5859-37.41 21.086-50.91c13.504-13.504 31.816-21.09 50.914-21.09z"/>
</svg>
